<svg width="384" height="120" viewBox="0 0 384 120" fill="none" xmlns="http://www.w3.org/2000/svg">
<mask id="path-1-inside-1_2740_1432" fill="white">
<path d="M0 12C0 5.37259 5.37258 0 12 0H372C378.627 0 384 5.37258 384 12V108C384 114.627 378.627 120 372 120H12C5.37258 120 0 114.627 0 108V12Z"/>
</mask>
<path d="M0 12C0 5.37259 5.37258 0 12 0H372C378.627 0 384 5.37258 384 12V108C384 114.627 378.627 120 372 120H12C5.37258 120 0 114.627 0 108V12Z" fill="white"/>
<path d="M0 0H384H0ZM392 108C392 119.046 383.046 128 372 128H20C8.9543 128 0 119.046 0 108C0 110.209 5.37258 112 12 112H372C374.209 112 376 110.209 376 108H392ZM0 120V0V120ZM372 0C383.046 0 392 8.9543 392 20V108C392 119.046 383.046 128 372 128V112C374.209 112 376 110.209 376 108V12C376 5.37258 374.209 0 372 0Z" fill="#02981D" mask="url(#path-1-inside-1_2740_1432)"/>
<path d="M24 40C24 33.3726 29.3726 28 36 28H76C82.6274 28 88 33.3726 88 40V80C88 86.6274 82.6274 92 76 92H36C29.3726 92 24 86.6274 24 80V40Z" fill="#015B11"/>
<path d="M52 60.9998L55 63.9998L60 56.9998M56 47.6188C53.1327 50.3343 49.2608 51.9998 45 51.9998C44.9323 51.9998 44.8647 51.9994 44.7972 51.9985C44.2799 53.572 44 55.2532 44 56.9998C44 64.4552 49.0991 70.7196 56 72.4958C62.9009 70.7196 68 64.4552 68 56.9998C68 55.2532 67.7201 53.572 67.2028 51.9985C67.1353 51.9994 67.0677 51.9998 67 51.9998C62.7392 51.9998 58.8673 50.3343 56 47.6188Z" stroke="white" stroke-width="2" stroke-linecap="round" stroke-linejoin="round"/>
<path d="M110.22 67.2C109.127 67.2 108.08 67.0467 107.08 66.74C106.08 66.42 105.287 66.0133 104.7 65.52L105.6 63.5C106.16 63.94 106.853 64.3067 107.68 64.6C108.507 64.8933 109.353 65.04 110.22 65.04C110.953 65.04 111.547 64.96 112 64.8C112.453 64.64 112.787 64.4267 113 64.16C113.213 63.88 113.32 63.5667 113.32 63.22C113.32 62.7933 113.167 62.4533 112.86 62.2C112.553 61.9333 112.153 61.7267 111.66 61.58C111.18 61.42 110.64 61.2733 110.04 61.14C109.453 61.0067 108.86 60.8533 108.26 60.68C107.673 60.4933 107.133 60.26 106.64 59.98C106.16 59.6867 105.767 59.3 105.46 58.82C105.153 58.34 105 57.7267 105 56.98C105 56.22 105.2 55.5267 105.6 54.9C106.013 54.26 106.633 53.7533 107.46 53.38C108.3 52.9933 109.36 52.8 110.64 52.8C111.48 52.8 112.313 52.9067 113.14 53.12C113.967 53.3333 114.687 53.64 115.3 54.04L114.48 56.06C113.853 55.6867 113.207 55.4133 112.54 55.24C111.873 55.0533 111.233 54.96 110.62 54.96C109.9 54.96 109.313 55.0467 108.86 55.22C108.42 55.3933 108.093 55.62 107.88 55.9C107.68 56.18 107.58 56.5 107.58 56.86C107.58 57.2867 107.727 57.6333 108.02 57.9C108.327 58.1533 108.72 58.3533 109.2 58.5C109.693 58.6467 110.24 58.7933 110.84 58.94C111.44 59.0733 112.033 59.2267 112.62 59.4C113.22 59.5733 113.76 59.8 114.24 60.08C114.733 60.36 115.127 60.74 115.42 61.22C115.727 61.7 115.88 62.3067 115.88 63.04C115.88 63.7867 115.673 64.48 115.26 65.12C114.86 65.7467 114.24 66.2533 113.4 66.64C112.56 67.0133 111.5 67.2 110.22 67.2ZM123.238 67.14C122.051 67.14 121.011 66.9067 120.118 66.44C119.238 65.96 118.551 65.3067 118.058 64.48C117.578 63.6533 117.338 62.7133 117.338 61.66C117.338 60.5933 117.571 59.6533 118.038 58.84C118.518 58.0133 119.171 57.3667 119.998 56.9C120.838 56.4333 121.791 56.2 122.858 56.2C123.898 56.2 124.825 56.4267 125.638 56.88C126.451 57.3333 127.091 57.9733 127.558 58.8C128.025 59.6267 128.258 60.6 128.258 61.72C128.258 61.8267 128.251 61.9467 128.238 62.08C128.238 62.2133 128.231 62.34 128.218 62.46H119.318V60.8H126.898L125.918 61.32C125.931 60.7067 125.805 60.1667 125.538 59.7C125.271 59.2333 124.905 58.8667 124.438 58.6C123.985 58.3333 123.458 58.2 122.858 58.2C122.245 58.2 121.705 58.3333 121.238 58.6C120.785 58.8667 120.425 59.24 120.158 59.72C119.905 60.1867 119.778 60.74 119.778 61.38V61.78C119.778 62.42 119.925 62.9867 120.218 63.48C120.511 63.9733 120.925 64.3533 121.458 64.62C121.991 64.8867 122.605 65.02 123.298 65.02C123.898 65.02 124.438 64.9267 124.918 64.74C125.398 64.5533 125.825 64.26 126.198 63.86L127.538 65.4C127.058 65.96 126.451 66.3933 125.718 66.7C124.998 66.9933 124.171 67.14 123.238 67.14ZM135.56 67.14C134.44 67.14 133.44 66.9067 132.56 66.44C131.693 65.96 131.013 65.3067 130.52 64.48C130.026 63.6533 129.78 62.7133 129.78 61.66C129.78 60.5933 130.026 59.6533 130.52 58.84C131.013 58.0133 131.693 57.3667 132.56 56.9C133.44 56.4333 134.44 56.2 135.56 56.2C136.6 56.2 137.513 56.4133 138.3 56.84C139.1 57.2533 139.706 57.8667 140.12 58.68L138.2 59.8C137.88 59.2933 137.486 58.92 137.02 58.68C136.566 58.44 136.073 58.32 135.54 58.32C134.926 58.32 134.373 58.4533 133.88 58.72C133.386 58.9867 133 59.3733 132.72 59.88C132.44 60.3733 132.3 60.9667 132.3 61.66C132.3 62.3533 132.44 62.9533 132.72 63.46C133 63.9533 133.386 64.3333 133.88 64.6C134.373 64.8667 134.926 65 135.54 65C136.073 65 136.566 64.88 137.02 64.64C137.486 64.4 137.88 64.0267 138.2 63.52L140.12 64.64C139.706 65.44 139.1 66.06 138.3 66.5C137.513 66.9267 136.6 67.14 135.56 67.14ZM146.801 67.14C145.894 67.14 145.094 66.9733 144.401 66.64C143.707 66.2933 143.167 65.7733 142.781 65.08C142.394 64.3733 142.201 63.4867 142.201 62.42V56.32H144.701V62.08C144.701 63.04 144.914 63.76 145.341 64.24C145.781 64.7067 146.401 64.94 147.201 64.94C147.787 64.94 148.294 64.82 148.721 64.58C149.161 64.34 149.501 63.98 149.741 63.5C149.994 63.02 150.121 62.4267 150.121 61.72V56.32H152.621V67H150.241V64.12L150.661 65C150.301 65.6933 149.774 66.2267 149.081 66.6C148.387 66.96 147.627 67.14 146.801 67.14ZM155.894 67V56.32H158.274V59.26L157.994 58.4C158.314 57.68 158.814 57.1333 159.494 56.76C160.187 56.3867 161.047 56.2 162.074 56.2V58.58C161.967 58.5533 161.867 58.54 161.774 58.54C161.681 58.5267 161.587 58.52 161.494 58.52C160.547 58.52 159.794 58.8 159.234 59.36C158.674 59.9067 158.394 60.7267 158.394 61.82V67H155.894ZM169.117 67.14C167.93 67.14 166.89 66.9067 165.997 66.44C165.117 65.96 164.43 65.3067 163.937 64.48C163.457 63.6533 163.217 62.7133 163.217 61.66C163.217 60.5933 163.45 59.6533 163.917 58.84C164.397 58.0133 165.05 57.3667 165.877 56.9C166.717 56.4333 167.67 56.2 168.737 56.2C169.777 56.2 170.704 56.4267 171.517 56.88C172.33 57.3333 172.97 57.9733 173.437 58.8C173.904 59.6267 174.137 60.6 174.137 61.72C174.137 61.8267 174.13 61.9467 174.117 62.08C174.117 62.2133 174.11 62.34 174.097 62.46H165.197V60.8H172.777L171.797 61.32C171.81 60.7067 171.684 60.1667 171.417 59.7C171.15 59.2333 170.784 58.8667 170.317 58.6C169.864 58.3333 169.337 58.2 168.737 58.2C168.124 58.2 167.584 58.3333 167.117 58.6C166.664 58.8667 166.304 59.24 166.037 59.72C165.784 60.1867 165.657 60.74 165.657 61.38V61.78C165.657 62.42 165.804 62.9867 166.097 63.48C166.39 63.9733 166.804 64.3533 167.337 64.62C167.87 64.8867 168.484 65.02 169.177 65.02C169.777 65.02 170.317 64.9267 170.797 64.74C171.277 64.5533 171.704 64.26 172.077 63.86L173.417 65.4C172.937 65.96 172.33 66.3933 171.597 66.7C170.877 66.9933 170.05 67.14 169.117 67.14ZM181.058 67.14C180.032 67.14 179.105 66.9133 178.278 66.46C177.465 65.9933 176.825 65.3533 176.358 64.54C175.892 63.7267 175.658 62.7667 175.658 61.66C175.658 60.5533 175.892 59.5933 176.358 58.78C176.825 57.9667 177.465 57.3333 178.278 56.88C179.105 56.4267 180.032 56.2 181.058 56.2C181.952 56.2 182.752 56.4 183.458 56.8C184.165 57.1867 184.725 57.78 185.138 58.58C185.552 59.38 185.758 60.4067 185.758 61.66C185.758 62.9 185.558 63.9267 185.158 64.74C184.758 65.54 184.205 66.14 183.498 66.54C182.792 66.94 181.978 67.14 181.058 67.14ZM181.358 65C181.958 65 182.492 64.8667 182.958 64.6C183.438 64.3333 183.818 63.9467 184.098 63.44C184.392 62.9333 184.538 62.34 184.538 61.66C184.538 60.9667 184.392 60.3733 184.098 59.88C183.818 59.3733 183.438 58.9867 182.958 58.72C182.492 58.4533 181.958 58.32 181.358 58.32C180.758 58.32 180.218 58.4533 179.738 58.72C179.272 58.9867 178.892 59.3733 178.598 59.88C178.318 60.3733 178.178 60.9667 178.178 61.66C178.178 62.34 178.318 62.9333 178.598 63.44C178.892 63.9467 179.272 64.3333 179.738 64.6C180.218 64.8667 180.758 65 181.358 65ZM184.598 67V64.48L184.698 61.64L184.498 58.8V52.16H186.978V67H184.598ZM200.376 67.2C199.283 67.2 198.236 67.0467 197.236 66.74C196.236 66.42 195.443 66.0133 194.856 65.52L195.756 63.5C196.316 63.94 197.01 64.3067 197.836 64.6C198.663 64.8933 199.51 65.04 200.376 65.04C201.11 65.04 201.703 64.96 202.156 64.8C202.61 64.64 202.943 64.4267 203.156 64.16C203.37 63.88 203.476 63.5667 203.476 63.22C203.476 62.7933 203.323 62.4533 203.016 62.2C202.71 61.9333 202.31 61.7267 201.816 61.58C201.336 61.42 200.796 61.2733 200.196 61.14C199.61 61.0067 199.016 60.8533 198.416 60.68C197.83 60.4933 197.29 60.26 196.796 59.98C196.316 59.6867 195.923 59.3 195.616 58.82C195.31 58.34 195.156 57.7267 195.156 56.98C195.156 56.22 195.356 55.5267 195.756 54.9C196.17 54.26 196.79 53.7533 197.616 53.38C198.456 52.9933 199.516 52.8 200.796 52.8C201.636 52.8 202.47 52.9067 203.296 53.12C204.123 53.3333 204.843 53.64 205.456 54.04L204.636 56.06C204.01 55.6867 203.363 55.4133 202.696 55.24C202.03 55.0533 201.39 54.96 200.776 54.96C200.056 54.96 199.47 55.0467 199.016 55.22C198.576 55.3933 198.25 55.62 198.036 55.9C197.836 56.18 197.736 56.5 197.736 56.86C197.736 57.2867 197.883 57.6333 198.176 57.9C198.483 58.1533 198.876 58.3533 199.356 58.5C199.85 58.6467 200.396 58.7933 200.996 58.94C201.596 59.0733 202.19 59.2267 202.776 59.4C203.376 59.5733 203.916 59.8 204.396 60.08C204.89 60.36 205.283 60.74 205.576 61.22C205.883 61.7 206.036 62.3067 206.036 63.04C206.036 63.7867 205.83 64.48 205.416 65.12C205.016 65.7467 204.396 66.2533 203.556 66.64C202.716 67.0133 201.656 67.2 200.376 67.2ZM214.954 67V64.84L214.814 64.38V60.6C214.814 59.8667 214.594 59.3 214.154 58.9C213.714 58.4867 213.048 58.28 212.154 58.28C211.554 58.28 210.961 58.3733 210.374 58.56C209.801 58.7467 209.314 59.0067 208.914 59.34L207.934 57.52C208.508 57.08 209.188 56.7533 209.974 56.54C210.774 56.3133 211.601 56.2 212.454 56.2C214.001 56.2 215.194 56.5733 216.034 57.32C216.888 58.0533 217.314 59.1933 217.314 60.74V67H214.954ZM211.594 67.14C210.794 67.14 210.094 67.0067 209.494 66.74C208.894 66.46 208.428 66.08 208.094 65.6C207.774 65.1067 207.614 64.5533 207.614 63.94C207.614 63.34 207.754 62.8 208.034 62.32C208.328 61.84 208.801 61.46 209.454 61.18C210.108 60.9 210.974 60.76 212.054 60.76H215.154V62.42H212.234C211.381 62.42 210.808 62.56 210.514 62.84C210.221 63.1067 210.074 63.44 210.074 63.84C210.074 64.2933 210.254 64.6533 210.614 64.92C210.974 65.1867 211.474 65.32 212.114 65.32C212.728 65.32 213.274 65.18 213.754 64.9C214.248 64.62 214.601 64.2067 214.814 63.66L215.234 65.16C214.994 65.7867 214.561 66.2733 213.934 66.62C213.321 66.9667 212.541 67.14 211.594 67.14ZM223.168 67L218.587 56.32H221.188L225.128 65.74H223.848L227.928 56.32H230.328L225.748 67H223.168ZM231.89 67V56.32H234.39V67H231.89ZM233.15 54.56C232.683 54.56 232.297 54.4133 231.99 54.12C231.697 53.8267 231.55 53.4733 231.55 53.06C231.55 52.6333 231.697 52.28 231.99 52C232.297 51.7067 232.683 51.56 233.15 51.56C233.617 51.56 233.997 51.7 234.29 51.98C234.597 52.2467 234.75 52.5867 234.75 53C234.75 53.44 234.603 53.8133 234.31 54.12C234.017 54.4133 233.63 54.56 233.15 54.56ZM243.731 56.2C244.585 56.2 245.345 56.3667 246.011 56.7C246.691 57.0333 247.225 57.5467 247.611 58.24C247.998 58.92 248.191 59.8 248.191 60.88V67H245.691V61.2C245.691 60.2533 245.465 59.5467 245.011 59.08C244.571 58.6133 243.951 58.38 243.151 58.38C242.565 58.38 242.045 58.5 241.591 58.74C241.138 58.98 240.785 59.34 240.531 59.82C240.291 60.2867 240.171 60.88 240.171 61.6V67H237.671V56.32H240.051V59.2L239.631 58.32C240.005 57.64 240.545 57.12 241.251 56.76C241.971 56.3867 242.798 56.2 243.731 56.2ZM256.222 71.02C255.236 71.02 254.269 70.8867 253.322 70.62C252.389 70.3667 251.622 69.9933 251.022 69.5L252.142 67.62C252.609 68.0067 253.196 68.3133 253.902 68.54C254.622 68.78 255.349 68.9 256.082 68.9C257.256 68.9 258.116 68.6267 258.662 68.08C259.209 67.5467 259.482 66.74 259.482 65.66V63.76L259.682 61.34L259.602 58.92V56.32H261.982V65.38C261.982 67.3133 261.489 68.7333 260.502 69.64C259.516 70.56 258.089 71.02 256.222 71.02ZM255.902 66.52C254.889 66.52 253.969 66.3067 253.142 65.88C252.329 65.44 251.682 64.8333 251.202 64.06C250.736 63.2867 250.502 62.38 250.502 61.34C250.502 60.3133 250.736 59.4133 251.202 58.64C251.682 57.8667 252.329 57.2667 253.142 56.84C253.969 56.4133 254.889 56.2 255.902 56.2C256.809 56.2 257.622 56.38 258.342 56.74C259.062 57.1 259.636 57.66 260.062 58.42C260.502 59.18 260.722 60.1533 260.722 61.34C260.722 62.5267 260.502 63.5067 260.062 64.28C259.636 65.04 259.062 65.6067 258.342 65.98C257.622 66.34 256.809 66.52 255.902 66.52ZM256.282 64.4C256.909 64.4 257.469 64.2733 257.962 64.02C258.456 63.7533 258.836 63.3933 259.102 62.94C259.382 62.4733 259.522 61.94 259.522 61.34C259.522 60.74 259.382 60.2133 259.102 59.76C258.836 59.2933 258.456 58.94 257.962 58.7C257.469 58.4467 256.909 58.32 256.282 58.32C255.656 58.32 255.089 58.4467 254.582 58.7C254.089 58.94 253.702 59.2933 253.422 59.76C253.156 60.2133 253.022 60.74 253.022 61.34C253.022 61.94 253.156 62.4733 253.422 62.94C253.702 63.3933 254.089 63.7533 254.582 64.02C255.089 64.2733 255.656 64.4 256.282 64.4ZM268.569 67.14C267.676 67.14 266.816 67.0267 265.989 66.8C265.176 66.56 264.529 66.2733 264.049 65.94L265.009 64.04C265.489 64.3467 266.062 64.6 266.729 64.8C267.396 65 268.062 65.1 268.729 65.1C269.516 65.1 270.082 64.9933 270.429 64.78C270.789 64.5667 270.969 64.28 270.969 63.92C270.969 63.6267 270.849 63.4067 270.609 63.26C270.369 63.1 270.056 62.98 269.669 62.9C269.282 62.82 268.849 62.7467 268.369 62.68C267.902 62.6133 267.429 62.5267 266.949 62.42C266.482 62.3 266.056 62.1333 265.669 61.92C265.282 61.6933 264.969 61.3933 264.729 61.02C264.489 60.6467 264.369 60.1533 264.369 59.54C264.369 58.86 264.562 58.2733 264.949 57.78C265.336 57.2733 265.876 56.8867 266.569 56.62C267.276 56.34 268.109 56.2 269.069 56.2C269.789 56.2 270.516 56.28 271.249 56.44C271.982 56.6 272.589 56.8267 273.069 57.12L272.109 59.02C271.602 58.7133 271.089 58.5067 270.569 58.4C270.062 58.28 269.556 58.22 269.049 58.22C268.289 58.22 267.722 58.3333 267.349 58.56C266.989 58.7867 266.809 59.0733 266.809 59.42C266.809 59.74 266.929 59.98 267.169 60.14C267.409 60.3 267.722 60.4267 268.109 60.52C268.496 60.6133 268.922 60.6933 269.389 60.76C269.869 60.8133 270.342 60.9 270.809 61.02C271.276 61.14 271.702 61.3067 272.089 61.52C272.489 61.72 272.809 62.0067 273.049 62.38C273.289 62.7533 273.409 63.24 273.409 63.84C273.409 64.5067 273.209 65.0867 272.809 65.58C272.422 66.0733 271.869 66.46 271.149 66.74C270.429 67.0067 269.569 67.14 268.569 67.14Z" fill="#171717"/>
</svg>
