<svg width="384" height="120" viewBox="0 0 384 120" fill="none" xmlns="http://www.w3.org/2000/svg">
<mask id="path-1-inside-1_2740_1428" fill="white">
<path d="M0 12C0 5.37259 5.37258 0 12 0H372C378.627 0 384 5.37258 384 12V108C384 114.627 378.627 120 372 120H12C5.37258 120 0 114.627 0 108V12Z"/>
</mask>
<path d="M0 12C0 5.37259 5.37258 0 12 0H372C378.627 0 384 5.37258 384 12V108C384 114.627 378.627 120 372 120H12C5.37258 120 0 114.627 0 108V12Z" fill="white"/>
<path d="M0 0H384H0ZM392 108C392 119.046 383.046 128 372 128H20C8.9543 128 0 119.046 0 108C0 110.209 5.37258 112 12 112H372C374.209 112 376 110.209 376 108H392ZM0 120V0V120ZM372 0C383.046 0 392 8.9543 392 20V108C392 119.046 383.046 128 372 128V112C374.209 112 376 110.209 376 108V12C376 5.37258 374.209 0 372 0Z" fill="#02981D" mask="url(#path-1-inside-1_2740_1428)"/>
<path d="M24 40C24 33.3726 29.3726 28 36 28H76C82.6274 28 88 33.3726 88 40V80C88 86.6274 82.6274 92 76 92H36C29.3726 92 24 86.6274 24 80V40Z" fill="#015B11"/>
<path d="M54 46H51C49.3431 46 48 47.3431 48 49V71C48 72.6569 49.3431 74 51 74H61C62.6569 74 64 72.6569 64 71V49C64 47.3431 62.6569 46 61 46H58M54 46V48H58V46M54 46H58M54 71H58" stroke="white" stroke-width="2" stroke-linecap="round" stroke-linejoin="round"/>
<path d="M105.88 52.5V38.5H112C113.52 38.5 114.853 38.7933 116 39.38C117.147 39.9667 118.04 40.78 118.68 41.82C119.32 42.86 119.64 44.0867 119.64 45.5C119.64 46.9 119.32 48.1267 118.68 49.18C118.04 50.22 117.147 51.0333 116 51.62C114.853 52.2067 113.52 52.5 112 52.5H105.88ZM108.48 50.3H111.88C112.933 50.3 113.84 50.1 114.6 49.7C115.373 49.3 115.967 48.74 116.38 48.02C116.807 47.3 117.02 46.46 117.02 45.5C117.02 44.5267 116.807 43.6867 116.38 42.98C115.967 42.26 115.373 41.7 114.6 41.3C113.84 40.9 112.933 40.7 111.88 40.7H108.48V50.3ZM122.163 52.5V41.82H124.663V52.5H122.163ZM123.423 40.06C122.957 40.06 122.57 39.9133 122.263 39.62C121.97 39.3267 121.823 38.9733 121.823 38.56C121.823 38.1333 121.97 37.78 122.263 37.5C122.57 37.2067 122.957 37.06 123.423 37.06C123.89 37.06 124.27 37.2 124.563 37.48C124.87 37.7467 125.023 38.0867 125.023 38.5C125.023 38.94 124.877 39.3133 124.583 39.62C124.29 39.9133 123.903 40.06 123.423 40.06ZM132.785 56.52C131.798 56.52 130.831 56.3867 129.885 56.12C128.951 55.8667 128.185 55.4933 127.585 55L128.705 53.12C129.171 53.5067 129.758 53.8133 130.465 54.04C131.185 54.28 131.911 54.4 132.645 54.4C133.818 54.4 134.678 54.1267 135.225 53.58C135.771 53.0467 136.045 52.24 136.045 51.16V49.26L136.245 46.84L136.165 44.42V41.82H138.545V50.88C138.545 52.8133 138.051 54.2333 137.065 55.14C136.078 56.06 134.651 56.52 132.785 56.52ZM132.465 52.02C131.451 52.02 130.531 51.8067 129.705 51.38C128.891 50.94 128.245 50.3333 127.765 49.56C127.298 48.7867 127.065 47.88 127.065 46.84C127.065 45.8133 127.298 44.9133 127.765 44.14C128.245 43.3667 128.891 42.7667 129.705 42.34C130.531 41.9133 131.451 41.7 132.465 41.7C133.371 41.7 134.185 41.88 134.905 42.24C135.625 42.6 136.198 43.16 136.625 43.92C137.065 44.68 137.285 45.6533 137.285 46.84C137.285 48.0267 137.065 49.0067 136.625 49.78C136.198 50.54 135.625 51.1067 134.905 51.48C134.185 51.84 133.371 52.02 132.465 52.02ZM132.845 49.9C133.471 49.9 134.031 49.7733 134.525 49.52C135.018 49.2533 135.398 48.8933 135.665 48.44C135.945 47.9733 136.085 47.44 136.085 46.84C136.085 46.24 135.945 45.7133 135.665 45.26C135.398 44.7933 135.018 44.44 134.525 44.2C134.031 43.9467 133.471 43.82 132.845 43.82C132.218 43.82 131.651 43.9467 131.145 44.2C130.651 44.44 130.265 44.7933 129.985 45.26C129.718 45.7133 129.585 46.24 129.585 46.84C129.585 47.44 129.718 47.9733 129.985 48.44C130.265 48.8933 130.651 49.2533 131.145 49.52C131.651 49.7733 132.218 49.9 132.845 49.9ZM141.831 52.5V41.82H144.331V52.5H141.831ZM143.091 40.06C142.625 40.06 142.238 39.9133 141.931 39.62C141.638 39.3267 141.491 38.9733 141.491 38.56C141.491 38.1333 141.638 37.78 141.931 37.5C142.238 37.2067 142.625 37.06 143.091 37.06C143.558 37.06 143.938 37.2 144.231 37.48C144.538 37.7467 144.691 38.0867 144.691 38.5C144.691 38.94 144.545 39.3133 144.251 39.62C143.958 39.9133 143.571 40.06 143.091 40.06ZM151.633 52.64C150.459 52.64 149.553 52.34 148.913 51.74C148.273 51.1267 147.953 50.2267 147.953 49.04V39.46H150.453V48.98C150.453 49.4867 150.579 49.88 150.833 50.16C151.099 50.44 151.466 50.58 151.933 50.58C152.493 50.58 152.959 50.4333 153.333 50.14L154.033 51.92C153.739 52.16 153.379 52.34 152.953 52.46C152.526 52.58 152.086 52.64 151.633 52.64ZM146.193 43.9V41.9H153.313V43.9H146.193ZM162.669 52.5V50.34L162.529 49.88V46.1C162.529 45.3667 162.309 44.8 161.869 44.4C161.429 43.9867 160.763 43.78 159.869 43.78C159.269 43.78 158.676 43.8733 158.089 44.06C157.516 44.2467 157.029 44.5067 156.629 44.84L155.649 43.02C156.223 42.58 156.903 42.2533 157.689 42.04C158.489 41.8133 159.316 41.7 160.169 41.7C161.716 41.7 162.909 42.0733 163.749 42.82C164.603 43.5533 165.029 44.6933 165.029 46.24V52.5H162.669ZM159.309 52.64C158.509 52.64 157.809 52.5067 157.209 52.24C156.609 51.96 156.143 51.58 155.809 51.1C155.489 50.6067 155.329 50.0533 155.329 49.44C155.329 48.84 155.469 48.3 155.749 47.82C156.043 47.34 156.516 46.96 157.169 46.68C157.823 46.4 158.689 46.26 159.769 46.26H162.869V47.92H159.949C159.096 47.92 158.523 48.06 158.229 48.34C157.936 48.6067 157.789 48.94 157.789 49.34C157.789 49.7933 157.969 50.1533 158.329 50.42C158.689 50.6867 159.189 50.82 159.829 50.82C160.443 50.82 160.989 50.68 161.469 50.4C161.963 50.12 162.316 49.7067 162.529 49.16L162.949 50.66C162.709 51.2867 162.276 51.7733 161.649 52.12C161.036 52.4667 160.256 52.64 159.309 52.64ZM168.238 52.5V37.66H170.738V52.5H168.238ZM174.019 52.5V41.82H176.519V52.5H174.019ZM175.279 40.06C174.812 40.06 174.426 39.9133 174.119 39.62C173.826 39.3267 173.679 38.9733 173.679 38.56C173.679 38.1333 173.826 37.78 174.119 37.5C174.426 37.2067 174.812 37.06 175.279 37.06C175.746 37.06 176.126 37.2 176.419 37.48C176.726 37.7467 176.879 38.0867 176.879 38.5C176.879 38.94 176.732 39.3133 176.439 39.62C176.146 39.9133 175.759 40.06 175.279 40.06ZM178.92 52.5V50.92L185.5 42.96L185.96 43.82H179.04V41.82H187.96V43.4L181.38 51.36L180.88 50.5H188.14V52.5H178.92ZM195.308 52.64C194.122 52.64 193.082 52.4067 192.188 51.94C191.308 51.46 190.622 50.8067 190.128 49.98C189.648 49.1533 189.408 48.2133 189.408 47.16C189.408 46.0933 189.642 45.1533 190.108 44.34C190.588 43.5133 191.242 42.8667 192.068 42.4C192.908 41.9333 193.862 41.7 194.928 41.7C195.968 41.7 196.895 41.9267 197.708 42.38C198.522 42.8333 199.162 43.4733 199.628 44.3C200.095 45.1267 200.328 46.1 200.328 47.22C200.328 47.3267 200.322 47.4467 200.308 47.58C200.308 47.7133 200.302 47.84 200.288 47.96H191.388V46.3H198.968L197.988 46.82C198.002 46.2067 197.875 45.6667 197.608 45.2C197.342 44.7333 196.975 44.3667 196.508 44.1C196.055 43.8333 195.528 43.7 194.928 43.7C194.315 43.7 193.775 43.8333 193.308 44.1C192.855 44.3667 192.495 44.74 192.228 45.22C191.975 45.6867 191.848 46.24 191.848 46.88V47.28C191.848 47.92 191.995 48.4867 192.288 48.98C192.582 49.4733 192.995 49.8533 193.528 50.12C194.062 50.3867 194.675 50.52 195.368 50.52C195.968 50.52 196.508 50.4267 196.988 50.24C197.468 50.0533 197.895 49.76 198.268 49.36L199.608 50.9C199.128 51.46 198.522 51.8933 197.788 52.2C197.068 52.4933 196.242 52.64 195.308 52.64ZM207.25 52.64C206.223 52.64 205.297 52.4133 204.47 51.96C203.657 51.4933 203.017 50.8533 202.55 50.04C202.083 49.2267 201.85 48.2667 201.85 47.16C201.85 46.0533 202.083 45.0933 202.55 44.28C203.017 43.4667 203.657 42.8333 204.47 42.38C205.297 41.9267 206.223 41.7 207.25 41.7C208.143 41.7 208.943 41.9 209.65 42.3C210.357 42.6867 210.917 43.28 211.33 44.08C211.743 44.88 211.95 45.9067 211.95 47.16C211.95 48.4 211.75 49.4267 211.35 50.24C210.95 51.04 210.397 51.64 209.69 52.04C208.983 52.44 208.17 52.64 207.25 52.64ZM207.55 50.5C208.15 50.5 208.683 50.3667 209.15 50.1C209.63 49.8333 210.01 49.4467 210.29 48.94C210.583 48.4333 210.73 47.84 210.73 47.16C210.73 46.4667 210.583 45.8733 210.29 45.38C210.01 44.8733 209.63 44.4867 209.15 44.22C208.683 43.9533 208.15 43.82 207.55 43.82C206.95 43.82 206.41 43.9533 205.93 44.22C205.463 44.4867 205.083 44.8733 204.79 45.38C204.51 45.8733 204.37 46.4667 204.37 47.16C204.37 47.84 204.51 48.4333 204.79 48.94C205.083 49.4467 205.463 49.8333 205.93 50.1C206.41 50.3667 206.95 50.5 207.55 50.5ZM210.79 52.5V49.98L210.89 47.14L210.69 44.3V37.66H213.17V52.5H210.79ZM228.708 52.7C227.641 52.7 226.648 52.5267 225.728 52.18C224.821 51.82 224.028 51.32 223.348 50.68C222.681 50.0267 222.161 49.26 221.788 48.38C221.414 47.5 221.228 46.54 221.228 45.5C221.228 44.46 221.414 43.5 221.788 42.62C222.161 41.74 222.688 40.98 223.368 40.34C224.048 39.6867 224.841 39.1867 225.748 38.84C226.654 38.48 227.648 38.3 228.728 38.3C229.874 38.3 230.921 38.5 231.868 38.9C232.814 39.2867 233.614 39.8667 234.268 40.64L232.588 42.22C232.081 41.6733 231.514 41.2667 230.888 41C230.261 40.72 229.581 40.58 228.848 40.58C228.114 40.58 227.441 40.7 226.828 40.94C226.228 41.18 225.701 41.52 225.248 41.96C224.808 42.4 224.461 42.92 224.208 43.52C223.968 44.12 223.848 44.78 223.848 45.5C223.848 46.22 223.968 46.88 224.208 47.48C224.461 48.08 224.808 48.6 225.248 49.04C225.701 49.48 226.228 49.82 226.828 50.06C227.441 50.3 228.114 50.42 228.848 50.42C229.581 50.42 230.261 50.2867 230.888 50.02C231.514 49.74 232.081 49.32 232.588 48.76L234.268 50.36C233.614 51.12 232.814 51.7 231.868 52.1C230.921 52.5 229.868 52.7 228.708 52.7ZM240.909 52.64C239.815 52.64 238.842 52.4067 237.989 51.94C237.135 51.46 236.462 50.8067 235.969 49.98C235.475 49.1533 235.229 48.2133 235.229 47.16C235.229 46.0933 235.475 45.1533 235.969 44.34C236.462 43.5133 237.135 42.8667 237.989 42.4C238.842 41.9333 239.815 41.7 240.909 41.7C242.015 41.7 242.995 41.9333 243.849 42.4C244.715 42.8667 245.389 43.5067 245.869 44.32C246.362 45.1333 246.609 46.08 246.609 47.16C246.609 48.2133 246.362 49.1533 245.869 49.98C245.389 50.8067 244.715 51.46 243.849 51.94C242.995 52.4067 242.015 52.64 240.909 52.64ZM240.909 50.5C241.522 50.5 242.069 50.3667 242.549 50.1C243.029 49.8333 243.402 49.4467 243.669 48.94C243.949 48.4333 244.089 47.84 244.089 47.16C244.089 46.4667 243.949 45.8733 243.669 45.38C243.402 44.8733 243.029 44.4867 242.549 44.22C242.069 43.9533 241.529 43.82 240.929 43.82C240.315 43.82 239.769 43.9533 239.289 44.22C238.822 44.4867 238.449 44.8733 238.169 45.38C237.889 45.8733 237.749 46.4667 237.749 47.16C237.749 47.84 237.889 48.4333 238.169 48.94C238.449 49.4467 238.822 49.8333 239.289 50.1C239.769 50.3667 240.309 50.5 240.909 50.5ZM248.655 47.98V45.9H254.155V47.98H248.655ZM261.885 52.64C260.792 52.64 259.819 52.4067 258.965 51.94C258.112 51.46 257.439 50.8067 256.945 49.98C256.452 49.1533 256.205 48.2133 256.205 47.16C256.205 46.0933 256.452 45.1533 256.945 44.34C257.439 43.5133 258.112 42.8667 258.965 42.4C259.819 41.9333 260.792 41.7 261.885 41.7C262.992 41.7 263.972 41.9333 264.825 42.4C265.692 42.8667 266.365 43.5067 266.845 44.32C267.339 45.1333 267.585 46.08 267.585 47.16C267.585 48.2133 267.339 49.1533 266.845 49.98C266.365 50.8067 265.692 51.46 264.825 51.94C263.972 52.4067 262.992 52.64 261.885 52.64ZM261.885 50.5C262.499 50.5 263.045 50.3667 263.525 50.1C264.005 49.8333 264.379 49.4467 264.645 48.94C264.925 48.4333 265.065 47.84 265.065 47.16C265.065 46.4667 264.925 45.8733 264.645 45.38C264.379 44.8733 264.005 44.4867 263.525 44.22C263.045 43.9533 262.505 43.82 261.905 43.82C261.292 43.82 260.745 43.9533 260.265 44.22C259.799 44.4867 259.425 44.8733 259.145 45.38C258.865 45.8733 258.725 46.4667 258.725 47.16C258.725 47.84 258.865 48.4333 259.145 48.94C259.425 49.4467 259.799 49.8333 260.265 50.1C260.745 50.3667 261.285 50.5 261.885 50.5ZM275.896 52.64C275.029 52.64 274.236 52.44 273.516 52.04C272.809 51.64 272.243 51.04 271.816 50.24C271.403 49.4267 271.196 48.4 271.196 47.16C271.196 45.9067 271.396 44.88 271.796 44.08C272.209 43.28 272.769 42.6867 273.476 42.3C274.183 41.9 274.989 41.7 275.896 41.7C276.949 41.7 277.876 41.9267 278.676 42.38C279.489 42.8333 280.129 43.4667 280.596 44.28C281.076 45.0933 281.316 46.0533 281.316 47.16C281.316 48.2667 281.076 49.2333 280.596 50.06C280.129 50.8733 279.489 51.5067 278.676 51.96C277.876 52.4133 276.949 52.64 275.896 52.64ZM269.976 56.38V41.82H272.356V44.34L272.276 47.18L272.476 50.02V56.38H269.976ZM275.616 50.5C276.216 50.5 276.749 50.3667 277.216 50.1C277.696 49.8333 278.076 49.4467 278.356 48.94C278.636 48.4333 278.776 47.84 278.776 47.16C278.776 46.4667 278.636 45.8733 278.356 45.38C278.076 44.8733 277.696 44.4867 277.216 44.22C276.749 43.9533 276.216 43.82 275.616 43.82C275.016 43.82 274.476 43.9533 273.996 44.22C273.516 44.4867 273.136 44.8733 272.856 45.38C272.576 45.8733 272.436 46.4667 272.436 47.16C272.436 47.84 272.576 48.4333 272.856 48.94C273.136 49.4467 273.516 49.8333 273.996 50.1C274.476 50.3667 275.016 50.5 275.616 50.5ZM288.707 52.64C287.52 52.64 286.48 52.4067 285.587 51.94C284.707 51.46 284.02 50.8067 283.527 49.98C283.047 49.1533 282.807 48.2133 282.807 47.16C282.807 46.0933 283.04 45.1533 283.507 44.34C283.987 43.5133 284.64 42.8667 285.467 42.4C286.307 41.9333 287.26 41.7 288.327 41.7C289.367 41.7 290.294 41.9267 291.107 42.38C291.92 42.8333 292.56 43.4733 293.027 44.3C293.494 45.1267 293.727 46.1 293.727 47.22C293.727 47.3267 293.72 47.4467 293.707 47.58C293.707 47.7133 293.7 47.84 293.687 47.96H284.787V46.3H292.367L291.387 46.82C291.4 46.2067 291.274 45.6667 291.007 45.2C290.74 44.7333 290.374 44.3667 289.907 44.1C289.454 43.8333 288.927 43.7 288.327 43.7C287.714 43.7 287.174 43.8333 286.707 44.1C286.254 44.3667 285.894 44.74 285.627 45.22C285.374 45.6867 285.247 46.24 285.247 46.88V47.28C285.247 47.92 285.394 48.4867 285.687 48.98C285.98 49.4733 286.394 49.8533 286.927 50.12C287.46 50.3867 288.074 50.52 288.767 50.52C289.367 50.52 289.907 50.4267 290.387 50.24C290.867 50.0533 291.294 49.76 291.667 49.36L293.007 50.9C292.527 51.46 291.92 51.8933 291.187 52.2C290.467 52.4933 289.64 52.64 288.707 52.64ZM296.128 52.5V41.82H298.508V44.76L298.228 43.9C298.548 43.18 299.048 42.6333 299.728 42.26C300.422 41.8867 301.282 41.7 302.308 41.7V44.08C302.202 44.0533 302.102 44.04 302.008 44.04C301.915 44.0267 301.822 44.02 301.728 44.02C300.782 44.02 300.028 44.3 299.468 44.86C298.908 45.4067 298.628 46.2267 298.628 47.32V52.5H296.128ZM310.247 52.5V50.34L310.107 49.88V46.1C310.107 45.3667 309.887 44.8 309.447 44.4C309.007 43.9867 308.341 43.78 307.447 43.78C306.847 43.78 306.254 43.8733 305.667 44.06C305.094 44.2467 304.607 44.5067 304.207 44.84L303.227 43.02C303.801 42.58 304.481 42.2533 305.267 42.04C306.067 41.8133 306.894 41.7 307.747 41.7C309.294 41.7 310.487 42.0733 311.327 42.82C312.181 43.5533 312.607 44.6933 312.607 46.24V52.5H310.247ZM306.887 52.64C306.087 52.64 305.387 52.5067 304.787 52.24C304.187 51.96 303.721 51.58 303.387 51.1C303.067 50.6067 302.907 50.0533 302.907 49.44C302.907 48.84 303.047 48.3 303.327 47.82C303.621 47.34 304.094 46.96 304.747 46.68C305.401 46.4 306.267 46.26 307.347 46.26H310.447V47.92H307.527C306.674 47.92 306.101 48.06 305.807 48.34C305.514 48.6067 305.367 48.94 305.367 49.34C305.367 49.7933 305.547 50.1533 305.907 50.42C306.267 50.6867 306.767 50.82 307.407 50.82C308.021 50.82 308.567 50.68 309.047 50.4C309.541 50.12 309.894 49.7067 310.107 49.16L310.527 50.66C310.287 51.2867 309.854 51.7733 309.227 52.12C308.614 52.4667 307.834 52.64 306.887 52.64ZM319.836 52.64C318.662 52.64 317.756 52.34 317.116 51.74C316.476 51.1267 316.156 50.2267 316.156 49.04V39.46H318.656V48.98C318.656 49.4867 318.782 49.88 319.036 50.16C319.302 50.44 319.669 50.58 320.136 50.58C320.696 50.58 321.162 50.4333 321.536 50.14L322.236 51.92C321.942 52.16 321.582 52.34 321.156 52.46C320.729 52.58 320.289 52.64 319.836 52.64ZM314.396 43.9V41.9H321.516V43.9H314.396ZM324.292 52.5V41.82H326.792V52.5H324.292ZM325.552 40.06C325.086 40.06 324.699 39.9133 324.392 39.62C324.099 39.3267 323.952 38.9733 323.952 38.56C323.952 38.1333 324.099 37.78 324.392 37.5C324.699 37.2067 325.086 37.06 325.552 37.06C326.019 37.06 326.399 37.2 326.692 37.48C326.999 37.7467 327.152 38.0867 327.152 38.5C327.152 38.94 327.006 39.3133 326.712 39.62C326.419 39.9133 326.032 40.06 325.552 40.06ZM332.914 52.5L328.334 41.82H330.934L334.874 51.24H333.594L337.674 41.82H340.074L335.494 52.5H332.914ZM346.363 52.64C345.176 52.64 344.136 52.4067 343.243 51.94C342.363 51.46 341.676 50.8067 341.183 49.98C340.703 49.1533 340.463 48.2133 340.463 47.16C340.463 46.0933 340.696 45.1533 341.163 44.34C341.643 43.5133 342.296 42.8667 343.123 42.4C343.963 41.9333 344.916 41.7 345.983 41.7C347.023 41.7 347.95 41.9267 348.763 42.38C349.576 42.8333 350.216 43.4733 350.683 44.3C351.15 45.1267 351.383 46.1 351.383 47.22C351.383 47.3267 351.376 47.4467 351.363 47.58C351.363 47.7133 351.356 47.84 351.343 47.96H342.443V46.3H350.023L349.043 46.82C349.056 46.2067 348.93 45.6667 348.663 45.2C348.396 44.7333 348.03 44.3667 347.563 44.1C347.11 43.8333 346.583 43.7 345.983 43.7C345.37 43.7 344.83 43.8333 344.363 44.1C343.91 44.3667 343.55 44.74 343.283 45.22C343.03 45.6867 342.903 46.24 342.903 46.88V47.28C342.903 47.92 343.05 48.4867 343.343 48.98C343.636 49.4733 344.05 49.8533 344.583 50.12C345.116 50.3867 345.73 50.52 346.423 50.52C347.023 50.52 347.563 50.4267 348.043 50.24C348.523 50.0533 348.95 49.76 349.323 49.36L350.663 50.9C350.183 51.46 349.576 51.8933 348.843 52.2C348.123 52.4933 347.296 52.64 346.363 52.64Z" fill="#171717"/>
<path d="M106.996 87.216C106.464 86.3667 106.053 85.3867 105.764 84.276C105.475 83.156 105.33 81.952 105.33 80.664C105.33 79.376 105.475 78.172 105.764 77.052C106.053 75.9227 106.464 74.9427 106.996 74.112H108.27C107.71 75.1013 107.299 76.1373 107.038 77.22C106.777 78.2933 106.646 79.4413 106.646 80.664C106.646 81.8867 106.777 83.0393 107.038 84.122C107.299 85.1953 107.71 86.2267 108.27 87.216H106.996ZM110.187 84.5V74.7H111.335L117.817 82.75H117.215V74.7H118.615V84.5H117.467L110.985 76.45H111.587V84.5H110.187ZM124.53 84.584C123.783 84.584 123.121 84.4207 122.542 84.094C121.963 83.7673 121.506 83.3193 121.17 82.75C120.834 82.1713 120.666 81.518 120.666 80.79C120.666 80.0527 120.834 79.3993 121.17 78.83C121.506 78.2607 121.963 77.8173 122.542 77.5C123.121 77.1733 123.783 77.01 124.53 77.01C125.267 77.01 125.925 77.1733 126.504 77.5C127.092 77.8173 127.549 78.2607 127.876 78.83C128.212 79.39 128.38 80.0433 128.38 80.79C128.38 81.5273 128.212 82.1807 127.876 82.75C127.549 83.3193 127.092 83.7673 126.504 84.094C125.925 84.4207 125.267 84.584 124.53 84.584ZM124.53 83.408C125.006 83.408 125.431 83.3007 125.804 83.086C126.187 82.8713 126.485 82.568 126.7 82.176C126.915 81.7747 127.022 81.3127 127.022 80.79C127.022 80.258 126.915 79.8007 126.7 79.418C126.485 79.026 126.187 78.7227 125.804 78.508C125.431 78.2933 125.006 78.186 124.53 78.186C124.054 78.186 123.629 78.2933 123.256 78.508C122.883 78.7227 122.584 79.026 122.36 79.418C122.136 79.8007 122.024 80.258 122.024 80.79C122.024 81.3127 122.136 81.7747 122.36 82.176C122.584 82.568 122.883 82.8713 123.256 83.086C123.629 83.3007 124.054 83.408 124.53 83.408ZM137.961 77.01C138.567 77.01 139.099 77.1267 139.557 77.36C140.023 77.5933 140.387 77.948 140.649 78.424C140.91 78.9 141.041 79.502 141.041 80.23V84.5H139.697V80.384C139.697 79.6653 139.519 79.124 139.165 78.76C138.819 78.396 138.329 78.214 137.695 78.214C137.219 78.214 136.803 78.3073 136.449 78.494C136.094 78.6807 135.819 78.956 135.623 79.32C135.436 79.684 135.343 80.1367 135.343 80.678V84.5H133.999V77.08H135.287V79.082L135.077 78.55C135.319 78.0647 135.693 77.6867 136.197 77.416C136.701 77.1453 137.289 77.01 137.961 77.01ZM146.832 84.584C146.039 84.584 145.339 84.4207 144.732 84.094C144.135 83.7673 143.668 83.3193 143.332 82.75C143.005 82.1807 142.842 81.5273 142.842 80.79C142.842 80.0527 143.001 79.3993 143.318 78.83C143.645 78.2607 144.088 77.8173 144.648 77.5C145.217 77.1733 145.857 77.01 146.566 77.01C147.285 77.01 147.919 77.1687 148.47 77.486C149.021 77.8033 149.45 78.2513 149.758 78.83C150.075 79.3993 150.234 80.0667 150.234 80.832C150.234 80.888 150.229 80.9533 150.22 81.028C150.22 81.1027 150.215 81.1727 150.206 81.238H143.892V80.272H149.506L148.96 80.608C148.969 80.132 148.871 79.7073 148.666 79.334C148.461 78.9607 148.176 78.6713 147.812 78.466C147.457 78.2513 147.042 78.144 146.566 78.144C146.099 78.144 145.684 78.2513 145.32 78.466C144.956 78.6713 144.671 78.9653 144.466 79.348C144.261 79.7213 144.158 80.1507 144.158 80.636V80.86C144.158 81.3547 144.27 81.798 144.494 82.19C144.727 82.5727 145.049 82.8713 145.46 83.086C145.871 83.3007 146.342 83.408 146.874 83.408C147.313 83.408 147.709 83.3333 148.064 83.184C148.428 83.0347 148.745 82.8107 149.016 82.512L149.758 83.38C149.422 83.772 149.002 84.0707 148.498 84.276C148.003 84.4813 147.448 84.584 146.832 84.584ZM155.404 84.584C154.611 84.584 153.911 84.4207 153.304 84.094C152.707 83.7673 152.24 83.3193 151.904 82.75C151.578 82.1807 151.414 81.5273 151.414 80.79C151.414 80.0527 151.573 79.3993 151.89 78.83C152.217 78.2607 152.66 77.8173 153.22 77.5C153.79 77.1733 154.429 77.01 155.138 77.01C155.857 77.01 156.492 77.1687 157.042 77.486C157.593 77.8033 158.022 78.2513 158.33 78.83C158.648 79.3993 158.806 80.0667 158.806 80.832C158.806 80.888 158.802 80.9533 158.792 81.028C158.792 81.1027 158.788 81.1727 158.778 81.238H152.464V80.272H158.078L157.532 80.608C157.542 80.132 157.444 79.7073 157.238 79.334C157.033 78.9607 156.748 78.6713 156.384 78.466C156.03 78.2513 155.614 78.144 155.138 78.144C154.672 78.144 154.256 78.2513 153.892 78.466C153.528 78.6713 153.244 78.9653 153.038 79.348C152.833 79.7213 152.73 80.1507 152.73 80.636V80.86C152.73 81.3547 152.842 81.798 153.066 82.19C153.3 82.5727 153.622 82.8713 154.032 83.086C154.443 83.3007 154.914 83.408 155.446 83.408C155.885 83.408 156.282 83.3333 156.636 83.184C157 83.0347 157.318 82.8107 157.588 82.512L158.33 83.38C157.994 83.772 157.574 84.0707 157.07 84.276C156.576 84.4813 156.02 84.584 155.404 84.584ZM163.738 84.584C163.02 84.584 162.376 84.4253 161.806 84.108C161.246 83.7907 160.803 83.3473 160.476 82.778C160.15 82.2087 159.986 81.546 159.986 80.79C159.986 80.034 160.15 79.376 160.476 78.816C160.803 78.2467 161.246 77.8033 161.806 77.486C162.376 77.1687 163.02 77.01 163.738 77.01C164.364 77.01 164.928 77.15 165.432 77.43C165.936 77.71 166.338 78.13 166.636 78.69C166.944 79.25 167.098 79.95 167.098 80.79C167.098 81.63 166.949 82.33 166.65 82.89C166.361 83.45 165.964 83.8747 165.46 84.164C164.956 84.444 164.382 84.584 163.738 84.584ZM163.85 83.408C164.317 83.408 164.737 83.3007 165.11 83.086C165.493 82.8713 165.792 82.568 166.006 82.176C166.23 81.7747 166.342 81.3127 166.342 80.79C166.342 80.258 166.23 79.8007 166.006 79.418C165.792 79.026 165.493 78.7227 165.11 78.508C164.737 78.2933 164.317 78.186 163.85 78.186C163.374 78.186 162.95 78.2933 162.576 78.508C162.203 78.7227 161.904 79.026 161.68 79.418C161.456 79.8007 161.344 80.258 161.344 80.79C161.344 81.3127 161.456 81.7747 161.68 82.176C161.904 82.568 162.203 82.8713 162.576 83.086C162.95 83.3007 163.374 83.408 163.85 83.408ZM166.384 84.5V82.498L166.468 80.776L166.328 79.054V74.112H167.672V84.5H166.384ZM176.523 84.584C175.777 84.584 175.198 84.3833 174.787 83.982C174.377 83.5807 174.171 83.0067 174.171 82.26V75.456H175.515V82.204C175.515 82.6053 175.613 82.9133 175.809 83.128C176.015 83.3427 176.304 83.45 176.677 83.45C177.097 83.45 177.447 83.3333 177.727 83.1L178.147 84.066C177.942 84.2433 177.695 84.374 177.405 84.458C177.125 84.542 176.831 84.584 176.523 84.584ZM172.911 78.186V77.08H177.643V78.186H172.911ZM182.704 84.584C181.957 84.584 181.295 84.4207 180.716 84.094C180.137 83.7673 179.68 83.3193 179.344 82.75C179.008 82.1713 178.84 81.518 178.84 80.79C178.84 80.0527 179.008 79.3993 179.344 78.83C179.68 78.2607 180.137 77.8173 180.716 77.5C181.295 77.1733 181.957 77.01 182.704 77.01C183.441 77.01 184.099 77.1733 184.678 77.5C185.266 77.8173 185.723 78.2607 186.05 78.83C186.386 79.39 186.554 80.0433 186.554 80.79C186.554 81.5273 186.386 82.1807 186.05 82.75C185.723 83.3193 185.266 83.7673 184.678 84.094C184.099 84.4207 183.441 84.584 182.704 84.584ZM182.704 83.408C183.18 83.408 183.605 83.3007 183.978 83.086C184.361 82.8713 184.659 82.568 184.874 82.176C185.089 81.7747 185.196 81.3127 185.196 80.79C185.196 80.258 185.089 79.8007 184.874 79.418C184.659 79.026 184.361 78.7227 183.978 78.508C183.605 78.2933 183.18 78.186 182.704 78.186C182.228 78.186 181.803 78.2933 181.43 78.508C181.057 78.7227 180.758 79.026 180.534 79.418C180.31 79.8007 180.198 80.258 180.198 80.79C180.198 81.3127 180.31 81.7747 180.534 82.176C180.758 82.568 181.057 82.8713 181.43 83.086C181.803 83.3007 182.228 83.408 182.704 83.408ZM196.106 84.584C195.472 84.584 194.898 84.444 194.384 84.164C193.88 83.8747 193.479 83.45 193.18 82.89C192.891 82.33 192.746 81.63 192.746 80.79C192.746 79.95 192.896 79.25 193.194 78.69C193.502 78.13 193.908 77.71 194.412 77.43C194.926 77.15 195.49 77.01 196.106 77.01C196.834 77.01 197.478 77.1687 198.038 77.486C198.598 77.8033 199.042 78.2467 199.368 78.816C199.695 79.376 199.858 80.034 199.858 80.79C199.858 81.546 199.695 82.2087 199.368 82.778C199.042 83.3473 198.598 83.7907 198.038 84.108C197.478 84.4253 196.834 84.584 196.106 84.584ZM192.172 84.5V74.112H193.516V79.054L193.376 80.776L193.46 82.498V84.5H192.172ZM195.994 83.408C196.47 83.408 196.895 83.3007 197.268 83.086C197.651 82.8713 197.95 82.568 198.164 82.176C198.388 81.7747 198.5 81.3127 198.5 80.79C198.5 80.258 198.388 79.8007 198.164 79.418C197.95 79.026 197.651 78.7227 197.268 78.508C196.895 78.2933 196.47 78.186 195.994 78.186C195.528 78.186 195.103 78.2933 194.72 78.508C194.347 78.7227 194.048 79.026 193.824 79.418C193.61 79.8007 193.502 80.258 193.502 80.79C193.502 81.3127 193.61 81.7747 193.824 82.176C194.048 82.568 194.347 82.8713 194.72 83.086C195.103 83.3007 195.528 83.408 195.994 83.408ZM205.019 84.584C204.226 84.584 203.526 84.4207 202.919 84.094C202.322 83.7673 201.855 83.3193 201.519 82.75C201.193 82.1807 201.029 81.5273 201.029 80.79C201.029 80.0527 201.188 79.3993 201.505 78.83C201.832 78.2607 202.275 77.8173 202.835 77.5C203.405 77.1733 204.044 77.01 204.753 77.01C205.472 77.01 206.107 77.1687 206.657 77.486C207.208 77.8033 207.637 78.2513 207.945 78.83C208.263 79.3993 208.421 80.0667 208.421 80.832C208.421 80.888 208.417 80.9533 208.407 81.028C208.407 81.1027 208.403 81.1727 208.393 81.238H202.079V80.272H207.693L207.147 80.608C207.157 80.132 207.059 79.7073 206.853 79.334C206.648 78.9607 206.363 78.6713 205.999 78.466C205.645 78.2513 205.229 78.144 204.753 78.144C204.287 78.144 203.871 78.2513 203.507 78.466C203.143 78.6713 202.859 78.9653 202.653 79.348C202.448 79.7213 202.345 80.1507 202.345 80.636V80.86C202.345 81.3547 202.457 81.798 202.681 82.19C202.915 82.5727 203.237 82.8713 203.647 83.086C204.058 83.3007 204.529 83.408 205.061 83.408C205.5 83.408 205.897 83.3333 206.251 83.184C206.615 83.0347 206.933 82.8107 207.203 82.512L207.945 83.38C207.609 83.772 207.189 84.0707 206.685 84.276C206.191 84.4813 205.635 84.584 205.019 84.584ZM217.981 84.584C217.365 84.584 216.801 84.444 216.287 84.164C215.783 83.8747 215.377 83.45 215.069 82.89C214.771 82.33 214.621 81.63 214.621 80.79C214.621 79.95 214.766 79.25 215.055 78.69C215.354 78.13 215.755 77.71 216.259 77.43C216.773 77.15 217.347 77.01 217.981 77.01C218.709 77.01 219.353 77.1687 219.913 77.486C220.473 77.8033 220.917 78.2467 221.243 78.816C221.57 79.376 221.733 80.034 221.733 80.79C221.733 81.546 221.57 82.2087 221.243 82.778C220.917 83.3473 220.473 83.7907 219.913 84.108C219.353 84.4253 218.709 84.584 217.981 84.584ZM214.047 87.216V77.08H215.335V79.082L215.251 80.804L215.391 82.526V87.216H214.047ZM217.869 83.408C218.345 83.408 218.77 83.3007 219.143 83.086C219.526 82.8713 219.825 82.568 220.039 82.176C220.263 81.7747 220.375 81.3127 220.375 80.79C220.375 80.258 220.263 79.8007 220.039 79.418C219.825 79.026 219.526 78.7227 219.143 78.508C218.77 78.2933 218.345 78.186 217.869 78.186C217.403 78.186 216.978 78.2933 216.595 78.508C216.222 78.7227 215.923 79.026 215.699 79.418C215.485 79.8007 215.377 80.258 215.377 80.79C215.377 81.3127 215.485 81.7747 215.699 82.176C215.923 82.568 216.222 82.8713 216.595 83.086C216.978 83.3007 217.403 83.408 217.869 83.408ZM227.552 77.01C228.159 77.01 228.691 77.1267 229.148 77.36C229.615 77.5933 229.979 77.948 230.24 78.424C230.502 78.9 230.632 79.502 230.632 80.23V84.5H229.288V80.384C229.288 79.6653 229.111 79.124 228.756 78.76C228.411 78.396 227.921 78.214 227.286 78.214C226.81 78.214 226.395 78.3073 226.04 78.494C225.686 78.6807 225.41 78.956 225.214 79.32C225.028 79.684 224.934 80.1367 224.934 80.678V84.5H223.59V74.112H224.934V79.082L224.668 78.55C224.911 78.0647 225.284 77.6867 225.788 77.416C226.292 77.1453 226.88 77.01 227.552 77.01ZM233.305 87.3C232.95 87.3 232.605 87.2393 232.269 87.118C231.933 87.006 231.644 86.838 231.401 86.614L231.975 85.606C232.162 85.7833 232.367 85.9187 232.591 86.012C232.815 86.1053 233.053 86.152 233.305 86.152C233.632 86.152 233.902 86.068 234.117 85.9C234.332 85.732 234.532 85.4333 234.719 85.004L235.181 83.982L235.321 83.814L238.233 77.08H239.549L235.951 85.242C235.736 85.7647 235.494 86.1753 235.223 86.474C234.962 86.7727 234.672 86.9827 234.355 87.104C234.038 87.2347 233.688 87.3 233.305 87.3ZM235.069 84.738L231.681 77.08H233.081L235.965 83.688L235.069 84.738ZM242.836 84.584C242.22 84.584 241.632 84.5 241.072 84.332C240.521 84.164 240.087 83.9587 239.77 83.716L240.33 82.652C240.647 82.8667 241.039 83.0487 241.506 83.198C241.972 83.3473 242.448 83.422 242.934 83.422C243.559 83.422 244.007 83.3333 244.278 83.156C244.558 82.9787 244.698 82.7313 244.698 82.414C244.698 82.1807 244.614 81.9987 244.446 81.868C244.278 81.7373 244.054 81.6393 243.774 81.574C243.503 81.5087 243.2 81.4527 242.864 81.406C242.528 81.35 242.192 81.2847 241.856 81.21C241.52 81.126 241.212 81.014 240.932 80.874C240.652 80.7247 240.428 80.524 240.26 80.272C240.092 80.0107 240.008 79.6653 240.008 79.236C240.008 78.788 240.134 78.396 240.386 78.06C240.638 77.724 240.992 77.4673 241.45 77.29C241.916 77.1033 242.467 77.01 243.102 77.01C243.587 77.01 244.077 77.0707 244.572 77.192C245.076 77.304 245.486 77.4673 245.804 77.682L245.23 78.746C244.894 78.522 244.544 78.368 244.18 78.284C243.816 78.2 243.452 78.158 243.088 78.158C242.5 78.158 242.061 78.256 241.772 78.452C241.482 78.6387 241.338 78.8813 241.338 79.18C241.338 79.432 241.422 79.628 241.59 79.768C241.767 79.8987 241.991 80.0013 242.262 80.076C242.542 80.1507 242.85 80.216 243.186 80.272C243.522 80.3187 243.858 80.384 244.194 80.468C244.53 80.5427 244.833 80.65 245.104 80.79C245.384 80.93 245.608 81.126 245.776 81.378C245.953 81.63 246.042 81.966 246.042 82.386C246.042 82.834 245.911 83.2213 245.65 83.548C245.388 83.8747 245.02 84.1313 244.544 84.318C244.068 84.4953 243.498 84.584 242.836 84.584ZM247.721 84.5V77.08H249.065V84.5H247.721ZM248.393 75.652C248.132 75.652 247.913 75.568 247.735 75.4C247.567 75.232 247.483 75.0267 247.483 74.784C247.483 74.532 247.567 74.322 247.735 74.154C247.913 73.986 248.132 73.902 248.393 73.902C248.655 73.902 248.869 73.986 249.037 74.154C249.215 74.3127 249.303 74.5133 249.303 74.756C249.303 75.008 249.219 75.2227 249.051 75.4C248.883 75.568 248.664 75.652 248.393 75.652ZM254.865 84.584C254.109 84.584 253.433 84.4207 252.835 84.094C252.247 83.7673 251.785 83.3193 251.449 82.75C251.113 82.1807 250.945 81.5273 250.945 80.79C250.945 80.0527 251.113 79.3993 251.449 78.83C251.785 78.2607 252.247 77.8173 252.835 77.5C253.433 77.1733 254.109 77.01 254.865 77.01C255.537 77.01 256.135 77.1453 256.657 77.416C257.189 77.6773 257.6 78.0693 257.889 78.592L256.867 79.25C256.625 78.886 256.326 78.62 255.971 78.452C255.626 78.2747 255.253 78.186 254.851 78.186C254.366 78.186 253.932 78.2933 253.549 78.508C253.167 78.7227 252.863 79.026 252.639 79.418C252.415 79.8007 252.303 80.258 252.303 80.79C252.303 81.322 252.415 81.784 252.639 82.176C252.863 82.568 253.167 82.8713 253.549 83.086C253.932 83.3007 254.366 83.408 254.851 83.408C255.253 83.408 255.626 83.324 255.971 83.156C256.326 82.9787 256.625 82.708 256.867 82.344L257.889 82.988C257.6 83.5013 257.189 83.898 256.657 84.178C256.135 84.4487 255.537 84.584 254.865 84.584ZM264.235 84.5V82.932L264.165 82.638V79.964C264.165 79.3947 263.997 78.956 263.661 78.648C263.335 78.3307 262.84 78.172 262.177 78.172C261.739 78.172 261.309 78.2467 260.889 78.396C260.469 78.536 260.115 78.7273 259.825 78.97L259.265 77.962C259.648 77.654 260.105 77.4207 260.637 77.262C261.179 77.094 261.743 77.01 262.331 77.01C263.349 77.01 264.133 77.2573 264.683 77.752C265.234 78.2467 265.509 79.0027 265.509 80.02V84.5H264.235ZM261.799 84.584C261.249 84.584 260.763 84.4907 260.343 84.304C259.933 84.1173 259.615 83.8607 259.391 83.534C259.167 83.198 259.055 82.82 259.055 82.4C259.055 81.9987 259.149 81.6347 259.335 81.308C259.531 80.9813 259.844 80.72 260.273 80.524C260.712 80.328 261.3 80.23 262.037 80.23H264.389V81.196H262.093C261.421 81.196 260.969 81.308 260.735 81.532C260.502 81.756 260.385 82.0267 260.385 82.344C260.385 82.708 260.53 83.002 260.819 83.226C261.109 83.4407 261.51 83.548 262.023 83.548C262.527 83.548 262.966 83.436 263.339 83.212C263.722 82.988 263.997 82.6613 264.165 82.232L264.431 83.156C264.254 83.5947 263.941 83.9447 263.493 84.206C263.045 84.458 262.481 84.584 261.799 84.584ZM267.997 84.5V74.112H269.341V84.5H267.997ZM271.907 84.5V74.112H273.251V84.5H271.907ZM276.139 87.3C275.784 87.3 275.439 87.2393 275.103 87.118C274.767 87.006 274.478 86.838 274.235 86.614L274.809 85.606C274.996 85.7833 275.201 85.9187 275.425 86.012C275.649 86.1053 275.887 86.152 276.139 86.152C276.466 86.152 276.736 86.068 276.951 85.9C277.166 85.732 277.366 85.4333 277.553 85.004L278.015 83.982L278.155 83.814L281.067 77.08H282.383L278.785 85.242C278.57 85.7647 278.328 86.1753 278.057 86.474C277.796 86.7727 277.506 86.9827 277.189 87.104C276.872 87.2347 276.522 87.3 276.139 87.3ZM277.903 84.738L274.515 77.08H275.915L278.799 83.688L277.903 84.738ZM291.331 84.584C290.715 84.584 290.15 84.444 289.637 84.164C289.133 83.8747 288.727 83.45 288.419 82.89C288.12 82.33 287.971 81.63 287.971 80.79C287.971 79.95 288.116 79.25 288.405 78.69C288.704 78.13 289.105 77.71 289.609 77.43C290.122 77.15 290.696 77.01 291.331 77.01C292.059 77.01 292.703 77.1687 293.263 77.486C293.823 77.8033 294.266 78.2467 294.593 78.816C294.92 79.376 295.083 80.034 295.083 80.79C295.083 81.546 294.92 82.2087 294.593 82.778C294.266 83.3473 293.823 83.7907 293.263 84.108C292.703 84.4253 292.059 84.584 291.331 84.584ZM287.397 87.216V77.08H288.685V79.082L288.601 80.804L288.741 82.526V87.216H287.397ZM291.219 83.408C291.695 83.408 292.12 83.3007 292.493 83.086C292.876 82.8713 293.174 82.568 293.389 82.176C293.613 81.7747 293.725 81.3127 293.725 80.79C293.725 80.258 293.613 79.8007 293.389 79.418C293.174 79.026 292.876 78.7227 292.493 78.508C292.12 78.2933 291.695 78.186 291.219 78.186C290.752 78.186 290.328 78.2933 289.945 78.508C289.572 78.7227 289.273 79.026 289.049 79.418C288.834 79.8007 288.727 80.258 288.727 80.79C288.727 81.3127 288.834 81.7747 289.049 82.176C289.273 82.568 289.572 82.8713 289.945 83.086C290.328 83.3007 290.752 83.408 291.219 83.408ZM300.244 84.584C299.451 84.584 298.751 84.4207 298.144 84.094C297.547 83.7673 297.08 83.3193 296.744 82.75C296.417 82.1807 296.254 81.5273 296.254 80.79C296.254 80.0527 296.413 79.3993 296.73 78.83C297.057 78.2607 297.5 77.8173 298.06 77.5C298.629 77.1733 299.269 77.01 299.978 77.01C300.697 77.01 301.331 77.1687 301.882 77.486C302.433 77.8033 302.862 78.2513 303.17 78.83C303.487 79.3993 303.646 80.0667 303.646 80.832C303.646 80.888 303.641 80.9533 303.632 81.028C303.632 81.1027 303.627 81.1727 303.618 81.238H297.304V80.272H302.918L302.372 80.608C302.381 80.132 302.283 79.7073 302.078 79.334C301.873 78.9607 301.588 78.6713 301.224 78.466C300.869 78.2513 300.454 78.144 299.978 78.144C299.511 78.144 299.096 78.2513 298.732 78.466C298.368 78.6713 298.083 78.9653 297.878 79.348C297.673 79.7213 297.57 80.1507 297.57 80.636V80.86C297.57 81.3547 297.682 81.798 297.906 82.19C298.139 82.5727 298.461 82.8713 298.872 83.086C299.283 83.3007 299.754 83.408 300.286 83.408C300.725 83.408 301.121 83.3333 301.476 83.184C301.84 83.0347 302.157 82.8107 302.428 82.512L303.17 83.38C302.834 83.772 302.414 84.0707 301.91 84.276C301.415 84.4813 300.86 84.584 300.244 84.584ZM307.64 84.584C307.024 84.584 306.436 84.5 305.876 84.332C305.326 84.164 304.892 83.9587 304.574 83.716L305.134 82.652C305.452 82.8667 305.844 83.0487 306.31 83.198C306.777 83.3473 307.253 83.422 307.738 83.422C308.364 83.422 308.812 83.3333 309.082 83.156C309.362 82.9787 309.502 82.7313 309.502 82.414C309.502 82.1807 309.418 81.9987 309.25 81.868C309.082 81.7373 308.858 81.6393 308.578 81.574C308.308 81.5087 308.004 81.4527 307.668 81.406C307.332 81.35 306.996 81.2847 306.66 81.21C306.324 81.126 306.016 81.014 305.736 80.874C305.456 80.7247 305.232 80.524 305.064 80.272C304.896 80.0107 304.812 79.6653 304.812 79.236C304.812 78.788 304.938 78.396 305.19 78.06C305.442 77.724 305.797 77.4673 306.254 77.29C306.721 77.1033 307.272 77.01 307.906 77.01C308.392 77.01 308.882 77.0707 309.376 77.192C309.88 77.304 310.291 77.4673 310.608 77.682L310.034 78.746C309.698 78.522 309.348 78.368 308.984 78.284C308.62 78.2 308.256 78.158 307.892 78.158C307.304 78.158 306.866 78.256 306.576 78.452C306.287 78.6387 306.142 78.8813 306.142 79.18C306.142 79.432 306.226 79.628 306.394 79.768C306.572 79.8987 306.796 80.0013 307.066 80.076C307.346 80.1507 307.654 80.216 307.99 80.272C308.326 80.3187 308.662 80.384 308.998 80.468C309.334 80.5427 309.638 80.65 309.908 80.79C310.188 80.93 310.412 81.126 310.58 81.378C310.758 81.63 310.846 81.966 310.846 82.386C310.846 82.834 310.716 83.2213 310.454 83.548C310.193 83.8747 309.824 84.1313 309.348 84.318C308.872 84.4953 308.303 84.584 307.64 84.584ZM315.83 84.584C315.037 84.584 314.337 84.4207 313.73 84.094C313.133 83.7673 312.666 83.3193 312.33 82.75C312.003 82.1807 311.84 81.5273 311.84 80.79C311.84 80.0527 311.999 79.3993 312.316 78.83C312.643 78.2607 313.086 77.8173 313.646 77.5C314.215 77.1733 314.855 77.01 315.564 77.01C316.283 77.01 316.917 77.1687 317.468 77.486C318.019 77.8033 318.448 78.2513 318.756 78.83C319.073 79.3993 319.232 80.0667 319.232 80.832C319.232 80.888 319.227 80.9533 319.218 81.028C319.218 81.1027 319.213 81.1727 319.204 81.238H312.89V80.272H318.504L317.958 80.608C317.967 80.132 317.869 79.7073 317.664 79.334C317.459 78.9607 317.174 78.6713 316.81 78.466C316.455 78.2513 316.04 78.144 315.564 78.144C315.097 78.144 314.682 78.2513 314.318 78.466C313.954 78.6713 313.669 78.9653 313.464 79.348C313.259 79.7213 313.156 80.1507 313.156 80.636V80.86C313.156 81.3547 313.268 81.798 313.492 82.19C313.725 82.5727 314.047 82.8713 314.458 83.086C314.869 83.3007 315.34 83.408 315.872 83.408C316.311 83.408 316.707 83.3333 317.062 83.184C317.426 83.0347 317.743 82.8107 318.014 82.512L318.756 83.38C318.42 83.772 318 84.0707 317.496 84.276C317.001 84.4813 316.446 84.584 315.83 84.584ZM325.06 77.01C325.667 77.01 326.199 77.1267 326.656 77.36C327.123 77.5933 327.487 77.948 327.748 78.424C328.01 78.9 328.14 79.502 328.14 80.23V84.5H326.796V80.384C326.796 79.6653 326.619 79.124 326.264 78.76C325.919 78.396 325.429 78.214 324.794 78.214C324.318 78.214 323.903 78.3073 323.548 78.494C323.194 78.6807 322.918 78.956 322.722 79.32C322.536 79.684 322.442 80.1367 322.442 80.678V84.5H321.098V77.08H322.386V79.082L322.176 78.55C322.419 78.0647 322.792 77.6867 323.296 77.416C323.8 77.1453 324.388 77.01 325.06 77.01ZM333.176 84.584C332.429 84.584 331.85 84.3833 331.44 83.982C331.029 83.5807 330.824 83.0067 330.824 82.26V75.456H332.168V82.204C332.168 82.6053 332.266 82.9133 332.462 83.128C332.667 83.3427 332.956 83.45 333.33 83.45C333.75 83.45 334.1 83.3333 334.38 83.1L334.8 84.066C334.594 84.2433 334.347 84.374 334.058 84.458C333.778 84.542 333.484 84.584 333.176 84.584ZM329.564 78.186V77.08H334.296V78.186H329.564ZM336.872 87.216H335.598C336.168 86.2267 336.583 85.1953 336.844 84.122C337.106 83.0393 337.236 81.8867 337.236 80.664C337.236 79.4413 337.106 78.2933 336.844 77.22C336.583 76.1373 336.168 75.1013 335.598 74.112H336.872C337.423 74.9427 337.838 75.9227 338.118 77.052C338.408 78.172 338.552 79.376 338.552 80.664C338.552 81.952 338.408 83.156 338.118 84.276C337.838 85.3867 337.423 86.3667 336.872 87.216Z" fill="#5E5E5E"/>
</svg>
