<svg width="384" height="120" viewBox="0 0 384 120" fill="none" xmlns="http://www.w3.org/2000/svg">
<mask id="path-1-inside-1_2740_1441" fill="white">
<path d="M0 12C0 5.37259 5.37258 0 12 0H372C378.627 0 384 5.37258 384 12V108C384 114.627 378.627 120 372 120H12C5.37258 120 0 114.627 0 108V12Z"/>
</mask>
<path d="M0 12C0 5.37259 5.37258 0 12 0H372C378.627 0 384 5.37258 384 12V108C384 114.627 378.627 120 372 120H12C5.37258 120 0 114.627 0 108V12Z" fill="white"/>
<path d="M0 0H384H0ZM392 108C392 119.046 383.046 128 372 128H20C8.9543 128 0 119.046 0 108C0 110.209 5.37258 112 12 112H372C374.209 112 376 110.209 376 108H392ZM0 120V0V120ZM372 0C383.046 0 392 8.9543 392 20V108C392 119.046 383.046 128 372 128V112C374.209 112 376 110.209 376 108V12C376 5.37258 374.209 0 372 0Z" fill="#02981D" mask="url(#path-1-inside-1_2740_1441)"/>
<path d="M24 40C24 33.3726 29.3726 28 36 28H76C82.6274 28 88 33.3726 88 40V80C88 86.6274 82.6274 92 76 92H36C29.3726 92 24 86.6274 24 80V40Z" fill="#015B11"/>
<path d="M62 58V53C62 49.6863 59.3137 47 56 47C52.6863 47 50 49.6863 50 53V58M49 73H63C64.6569 73 66 71.6569 66 70V61C66 59.3431 64.6569 58 63 58H49C47.3431 58 46 59.3431 46 61V70C46 71.6569 47.3431 73 49 73Z" stroke="white" stroke-width="2" stroke-linecap="round" stroke-linejoin="round"/>
<path d="M108.26 59.44H115.24V61.64H108.26V59.44ZM108.48 67H105.88V53H116.1V55.18H108.48V67ZM118.374 67V56.32H120.874V67H118.374ZM119.634 54.56C119.168 54.56 118.781 54.4133 118.474 54.12C118.181 53.8267 118.034 53.4733 118.034 53.06C118.034 52.6333 118.181 52.28 118.474 52C118.781 51.7067 119.168 51.56 119.634 51.56C120.101 51.56 120.481 51.7 120.774 51.98C121.081 52.2467 121.234 52.5867 121.234 53C121.234 53.44 121.088 53.8133 120.794 54.12C120.501 54.4133 120.114 54.56 119.634 54.56ZM130.216 56.2C131.069 56.2 131.829 56.3667 132.496 56.7C133.176 57.0333 133.709 57.5467 134.096 58.24C134.482 58.92 134.676 59.8 134.676 60.88V67H132.176V61.2C132.176 60.2533 131.949 59.5467 131.496 59.08C131.056 58.6133 130.436 58.38 129.636 58.38C129.049 58.38 128.529 58.5 128.076 58.74C127.622 58.98 127.269 59.34 127.016 59.82C126.776 60.2867 126.656 60.88 126.656 61.6V67H124.156V56.32H126.536V59.2L126.116 58.32C126.489 57.64 127.029 57.12 127.736 56.76C128.456 56.3867 129.282 56.2 130.216 56.2ZM144.427 67V64.84L144.287 64.38V60.6C144.287 59.8667 144.067 59.3 143.627 58.9C143.187 58.4867 142.52 58.28 141.627 58.28C141.027 58.28 140.434 58.3733 139.847 58.56C139.274 58.7467 138.787 59.0067 138.387 59.34L137.407 57.52C137.98 57.08 138.66 56.7533 139.447 56.54C140.247 56.3133 141.074 56.2 141.927 56.2C143.474 56.2 144.667 56.5733 145.507 57.32C146.36 58.0533 146.787 59.1933 146.787 60.74V67H144.427ZM141.067 67.14C140.267 67.14 139.567 67.0067 138.967 66.74C138.367 66.46 137.9 66.08 137.567 65.6C137.247 65.1067 137.087 64.5533 137.087 63.94C137.087 63.34 137.227 62.8 137.507 62.32C137.8 61.84 138.274 61.46 138.927 61.18C139.58 60.9 140.447 60.76 141.527 60.76H144.627V62.42H141.707C140.854 62.42 140.28 62.56 139.987 62.84C139.694 63.1067 139.547 63.44 139.547 63.84C139.547 64.2933 139.727 64.6533 140.087 64.92C140.447 65.1867 140.947 65.32 141.587 65.32C142.2 65.32 142.747 65.18 143.227 64.9C143.72 64.62 144.074 64.2067 144.287 63.66L144.707 65.16C144.467 65.7867 144.034 66.2733 143.407 66.62C142.794 66.9667 142.014 67.14 141.067 67.14ZM156.055 56.2C156.909 56.2 157.669 56.3667 158.335 56.7C159.015 57.0333 159.549 57.5467 159.935 58.24C160.322 58.92 160.515 59.8 160.515 60.88V67H158.015V61.2C158.015 60.2533 157.789 59.5467 157.335 59.08C156.895 58.6133 156.275 58.38 155.475 58.38C154.889 58.38 154.369 58.5 153.915 58.74C153.462 58.98 153.109 59.34 152.855 59.82C152.615 60.2867 152.495 60.88 152.495 61.6V67H149.995V56.32H152.375V59.2L151.955 58.32C152.329 57.64 152.869 57.12 153.575 56.76C154.295 56.3867 155.122 56.2 156.055 56.2ZM168.606 67.14C167.486 67.14 166.486 66.9067 165.606 66.44C164.74 65.96 164.06 65.3067 163.566 64.48C163.073 63.6533 162.826 62.7133 162.826 61.66C162.826 60.5933 163.073 59.6533 163.566 58.84C164.06 58.0133 164.74 57.3667 165.606 56.9C166.486 56.4333 167.486 56.2 168.606 56.2C169.646 56.2 170.56 56.4133 171.346 56.84C172.146 57.2533 172.753 57.8667 173.166 58.68L171.246 59.8C170.926 59.2933 170.533 58.92 170.066 58.68C169.613 58.44 169.12 58.32 168.586 58.32C167.973 58.32 167.42 58.4533 166.926 58.72C166.433 58.9867 166.046 59.3733 165.766 59.88C165.486 60.3733 165.346 60.9667 165.346 61.66C165.346 62.3533 165.486 62.9533 165.766 63.46C166.046 63.9533 166.433 64.3333 166.926 64.6C167.42 64.8667 167.973 65 168.586 65C169.12 65 169.613 64.88 170.066 64.64C170.533 64.4 170.926 64.0267 171.246 63.52L173.166 64.64C172.753 65.44 172.146 66.06 171.346 66.5C170.56 66.9267 169.646 67.14 168.606 67.14ZM175.23 67V56.32H177.73V67H175.23ZM176.49 54.56C176.023 54.56 175.637 54.4133 175.33 54.12C175.037 53.8267 174.89 53.4733 174.89 53.06C174.89 52.6333 175.037 52.28 175.33 52C175.637 51.7067 176.023 51.56 176.49 51.56C176.957 51.56 177.337 51.7 177.63 51.98C177.937 52.2467 178.09 52.5867 178.09 53C178.09 53.44 177.943 53.8133 177.65 54.12C177.357 54.4133 176.97 54.56 176.49 54.56ZM187.591 67V64.84L187.451 64.38V60.6C187.451 59.8667 187.231 59.3 186.791 58.9C186.351 58.4867 185.684 58.28 184.791 58.28C184.191 58.28 183.598 58.3733 183.011 58.56C182.438 58.7467 181.951 59.0067 181.551 59.34L180.571 57.52C181.144 57.08 181.824 56.7533 182.611 56.54C183.411 56.3133 184.238 56.2 185.091 56.2C186.638 56.2 187.831 56.5733 188.671 57.32C189.524 58.0533 189.951 59.1933 189.951 60.74V67H187.591ZM184.231 67.14C183.431 67.14 182.731 67.0067 182.131 66.74C181.531 66.46 181.064 66.08 180.731 65.6C180.411 65.1067 180.251 64.5533 180.251 63.94C180.251 63.34 180.391 62.8 180.671 62.32C180.964 61.84 181.438 61.46 182.091 61.18C182.744 60.9 183.611 60.76 184.691 60.76H187.791V62.42H184.871C184.018 62.42 183.444 62.56 183.151 62.84C182.858 63.1067 182.711 63.44 182.711 63.84C182.711 64.2933 182.891 64.6533 183.251 64.92C183.611 65.1867 184.111 65.32 184.751 65.32C185.364 65.32 185.911 65.18 186.391 64.9C186.884 64.62 187.238 64.2067 187.451 63.66L187.871 65.16C187.631 65.7867 187.198 66.2733 186.571 66.62C185.958 66.9667 185.178 67.14 184.231 67.14ZM193.16 67V52.16H195.66V67H193.16ZM209.048 67.2C207.955 67.2 206.908 67.0467 205.908 66.74C204.908 66.42 204.115 66.0133 203.528 65.52L204.428 63.5C204.988 63.94 205.681 64.3067 206.508 64.6C207.335 64.8933 208.181 65.04 209.048 65.04C209.781 65.04 210.375 64.96 210.828 64.8C211.281 64.64 211.615 64.4267 211.828 64.16C212.041 63.88 212.148 63.5667 212.148 63.22C212.148 62.7933 211.995 62.4533 211.688 62.2C211.381 61.9333 210.981 61.7267 210.488 61.58C210.008 61.42 209.468 61.2733 208.868 61.14C208.281 61.0067 207.688 60.8533 207.088 60.68C206.501 60.4933 205.961 60.26 205.468 59.98C204.988 59.6867 204.595 59.3 204.288 58.82C203.981 58.34 203.828 57.7267 203.828 56.98C203.828 56.22 204.028 55.5267 204.428 54.9C204.841 54.26 205.461 53.7533 206.288 53.38C207.128 52.9933 208.188 52.8 209.468 52.8C210.308 52.8 211.141 52.9067 211.968 53.12C212.795 53.3333 213.515 53.64 214.128 54.04L213.308 56.06C212.681 55.6867 212.035 55.4133 211.368 55.24C210.701 55.0533 210.061 54.96 209.448 54.96C208.728 54.96 208.141 55.0467 207.688 55.22C207.248 55.3933 206.921 55.62 206.708 55.9C206.508 56.18 206.408 56.5 206.408 56.86C206.408 57.2867 206.555 57.6333 206.848 57.9C207.155 58.1533 207.548 58.3533 208.028 58.5C208.521 58.6467 209.068 58.7933 209.668 58.94C210.268 59.0733 210.861 59.2267 211.448 59.4C212.048 59.5733 212.588 59.8 213.068 60.08C213.561 60.36 213.955 60.74 214.248 61.22C214.555 61.7 214.708 62.3067 214.708 63.04C214.708 63.7867 214.501 64.48 214.088 65.12C213.688 65.7467 213.068 66.2533 212.228 66.64C211.388 67.0133 210.328 67.2 209.048 67.2ZM222.066 67.14C220.88 67.14 219.84 66.9067 218.946 66.44C218.066 65.96 217.38 65.3067 216.886 64.48C216.406 63.6533 216.166 62.7133 216.166 61.66C216.166 60.5933 216.4 59.6533 216.866 58.84C217.346 58.0133 218 57.3667 218.826 56.9C219.666 56.4333 220.62 56.2 221.686 56.2C222.726 56.2 223.653 56.4267 224.466 56.88C225.28 57.3333 225.92 57.9733 226.386 58.8C226.853 59.6267 227.086 60.6 227.086 61.72C227.086 61.8267 227.08 61.9467 227.066 62.08C227.066 62.2133 227.06 62.34 227.046 62.46H218.146V60.8H225.726L224.746 61.32C224.76 60.7067 224.633 60.1667 224.366 59.7C224.1 59.2333 223.733 58.8667 223.266 58.6C222.813 58.3333 222.286 58.2 221.686 58.2C221.073 58.2 220.533 58.3333 220.066 58.6C219.613 58.8667 219.253 59.24 218.986 59.72C218.733 60.1867 218.606 60.74 218.606 61.38V61.78C218.606 62.42 218.753 62.9867 219.046 63.48C219.34 63.9733 219.753 64.3533 220.286 64.62C220.82 64.8867 221.433 65.02 222.126 65.02C222.726 65.02 223.266 64.9267 223.746 64.74C224.226 64.5533 224.653 64.26 225.026 63.86L226.366 65.4C225.886 65.96 225.28 66.3933 224.546 66.7C223.826 66.9933 223 67.14 222.066 67.14ZM234.388 67.14C233.268 67.14 232.268 66.9067 231.388 66.44C230.521 65.96 229.841 65.3067 229.348 64.48C228.854 63.6533 228.608 62.7133 228.608 61.66C228.608 60.5933 228.854 59.6533 229.348 58.84C229.841 58.0133 230.521 57.3667 231.388 56.9C232.268 56.4333 233.268 56.2 234.388 56.2C235.428 56.2 236.341 56.4133 237.128 56.84C237.928 57.2533 238.534 57.8667 238.948 58.68L237.028 59.8C236.708 59.2933 236.314 58.92 235.848 58.68C235.394 58.44 234.901 58.32 234.368 58.32C233.754 58.32 233.201 58.4533 232.708 58.72C232.214 58.9867 231.828 59.3733 231.548 59.88C231.268 60.3733 231.128 60.9667 231.128 61.66C231.128 62.3533 231.268 62.9533 231.548 63.46C231.828 63.9533 232.214 64.3333 232.708 64.6C233.201 64.8667 233.754 65 234.368 65C234.901 65 235.394 64.88 235.848 64.64C236.314 64.4 236.708 64.0267 237.028 63.52L238.948 64.64C238.534 65.44 237.928 66.06 237.128 66.5C236.341 66.9267 235.428 67.14 234.388 67.14ZM245.629 67.14C244.722 67.14 243.922 66.9733 243.229 66.64C242.535 66.2933 241.995 65.7733 241.609 65.08C241.222 64.3733 241.029 63.4867 241.029 62.42V56.32H243.529V62.08C243.529 63.04 243.742 63.76 244.169 64.24C244.609 64.7067 245.229 64.94 246.029 64.94C246.615 64.94 247.122 64.82 247.549 64.58C247.989 64.34 248.329 63.98 248.569 63.5C248.822 63.02 248.949 62.4267 248.949 61.72V56.32H251.449V67H249.069V64.12L249.489 65C249.129 65.6933 248.602 66.2267 247.909 66.6C247.215 66.96 246.455 67.14 245.629 67.14ZM254.722 67V56.32H257.102V59.26L256.822 58.4C257.142 57.68 257.642 57.1333 258.322 56.76C259.015 56.3867 259.875 56.2 260.902 56.2V58.58C260.795 58.5533 260.695 58.54 260.602 58.54C260.509 58.5267 260.415 58.52 260.322 58.52C259.375 58.52 258.622 58.8 258.062 59.36C257.502 59.9067 257.222 60.7267 257.222 61.82V67H254.722ZM263.023 67V56.32H265.523V67H263.023ZM264.283 54.56C263.816 54.56 263.429 54.4133 263.123 54.12C262.829 53.8267 262.683 53.4733 262.683 53.06C262.683 52.6333 262.829 52.28 263.123 52C263.429 51.7067 263.816 51.56 264.283 51.56C264.749 51.56 265.129 51.7 265.423 51.98C265.729 52.2467 265.883 52.5867 265.883 53C265.883 53.44 265.736 53.8133 265.443 54.12C265.149 54.4133 264.763 54.56 264.283 54.56ZM272.824 67.14C271.651 67.14 270.744 66.84 270.104 66.24C269.464 65.6267 269.144 64.7267 269.144 63.54V53.96H271.644V63.48C271.644 63.9867 271.771 64.38 272.024 64.66C272.291 64.94 272.657 65.08 273.124 65.08C273.684 65.08 274.151 64.9333 274.524 64.64L275.224 66.42C274.931 66.66 274.571 66.84 274.144 66.96C273.717 67.08 273.277 67.14 272.824 67.14ZM267.384 58.4V56.4H274.504V58.4H267.384ZM277.965 71.02C277.445 71.02 276.925 70.9333 276.405 70.76C275.885 70.5867 275.452 70.3467 275.105 70.04L276.105 68.2C276.359 68.4267 276.645 68.6067 276.965 68.74C277.285 68.8733 277.612 68.94 277.945 68.94C278.399 68.94 278.765 68.8267 279.045 68.6C279.325 68.3733 279.585 67.9933 279.825 67.46L280.445 66.06L280.645 65.76L284.685 56.32H287.085L282.085 67.86C281.752 68.66 281.379 69.2933 280.965 69.76C280.565 70.2267 280.112 70.5533 279.605 70.74C279.112 70.9267 278.565 71.02 277.965 71.02ZM280.165 67.38L275.345 56.32H277.945L281.865 65.54L280.165 67.38Z" fill="#171717"/>
</svg>
