<svg width="238" height="87" viewBox="0 0 238 87" fill="none" xmlns="http://www.w3.org/2000/svg">
<mask id="path-1-outside-1_2623_694" maskUnits="userSpaceOnUse" x="0" y="0" width="238" height="87" fill="black">
<rect fill="white" width="238" height="87"/>
<path d="M0 8C0 3.58172 3.58172 0 8 0H222C226.418 0 230 3.58172 230 8V71C230 75.4183 226.418 79 222 79H8C3.58172 79 0 75.4183 0 71V8Z"/>
</mask>
<path d="M0 8C0 3.58172 3.58172 0 8 0H222C226.418 0 230 3.58172 230 8V71C230 75.4183 226.418 79 222 79H8C3.58172 79 0 75.4183 0 71V8Z" fill="#3F3767"/>
<path d="M0 0H230H0ZM238 71C238 79.8366 230.837 87 222 87H16C7.16344 87 0 79.8366 0 71C0 71 3.58172 71 8 71H222H238ZM0 79V0V79ZM222 0C230.837 0 238 7.16344 238 16V71C238 79.8366 230.837 87 222 87V71V8C222 3.58172 222 0 222 0Z" fill="#02981D" mask="url(#path-1-outside-1_2623_694)"/>
<path d="M44.208 57.48C41.584 57.48 39.168 57.064 36.96 56.232C34.784 55.368 32.88 54.168 31.248 52.632C29.616 51.064 28.352 49.224 27.456 47.112C26.56 45 26.112 42.696 26.112 40.2C26.112 37.704 26.56 35.4 27.456 33.288C28.352 31.176 29.616 29.352 31.248 27.816C32.912 26.248 34.848 25.048 37.056 24.216C39.264 23.352 41.68 22.92 44.304 22.92C47.152 22.92 49.712 23.384 51.984 24.312C54.288 25.24 56.224 26.6 57.792 28.392L53.856 32.232C52.544 30.92 51.12 29.96 49.584 29.352C48.08 28.712 46.416 28.392 44.592 28.392C42.832 28.392 41.2 28.68 39.696 29.256C38.192 29.832 36.896 30.648 35.808 31.704C34.72 32.76 33.872 34.008 33.264 35.448C32.688 36.888 32.4 38.472 32.4 40.2C32.4 41.896 32.688 43.464 33.264 44.904C33.872 46.344 34.72 47.608 35.808 48.696C36.896 49.752 38.176 50.568 39.648 51.144C41.12 51.72 42.752 52.008 44.544 52.008C46.208 52.008 47.808 51.752 49.344 51.24C50.912 50.696 52.4 49.8 53.808 48.552L57.36 53.208C55.6 54.616 53.552 55.688 51.216 56.424C48.912 57.128 46.576 57.48 44.208 57.48ZM51.456 52.392V39.816H57.36V53.208L51.456 52.392ZM77.0621 57.336C74.2141 57.336 71.7181 56.776 69.5741 55.656C67.4621 54.504 65.8141 52.936 64.6301 50.952C63.4781 48.968 62.9021 46.712 62.9021 44.184C62.9021 41.624 63.4621 39.368 64.5821 37.416C65.7341 35.432 67.3021 33.88 69.2861 32.76C71.3021 31.64 73.5901 31.08 76.1501 31.08C78.6461 31.08 80.8701 31.624 82.8221 32.712C84.7741 33.8 86.3101 35.336 87.4301 37.32C88.5501 39.304 89.1101 41.64 89.1101 44.328C89.1101 44.584 89.0941 44.872 89.0621 45.192C89.0621 45.512 89.0461 45.816 89.0141 46.104H67.6541V42.12H85.8461L83.4941 43.368C83.5261 41.896 83.2221 40.6 82.5821 39.48C81.9421 38.36 81.0621 37.48 79.9421 36.84C78.8541 36.2 77.5901 35.88 76.1501 35.88C74.6781 35.88 73.3821 36.2 72.2621 36.84C71.1741 37.48 70.3101 38.376 69.6701 39.528C69.0621 40.648 68.7581 41.976 68.7581 43.512V44.472C68.7581 46.008 69.1101 47.368 69.8141 48.552C70.5181 49.736 71.5101 50.648 72.7901 51.288C74.0701 51.928 75.5421 52.248 77.2061 52.248C78.6461 52.248 79.9421 52.024 81.0941 51.576C82.2461 51.128 83.2701 50.424 84.1661 49.464L87.3821 53.16C86.2301 54.504 84.7741 55.544 83.0141 56.28C81.2861 56.984 79.3021 57.336 77.0621 57.336ZM109.418 31.08C111.466 31.08 113.29 31.48 114.89 32.28C116.522 33.08 117.802 34.312 118.73 35.976C119.658 37.608 120.122 39.72 120.122 42.312V57H114.122V43.08C114.122 40.808 113.578 39.112 112.49 37.992C111.434 36.872 109.946 36.312 108.026 36.312C106.618 36.312 105.37 36.6 104.282 37.176C103.194 37.752 102.346 38.616 101.738 39.768C101.162 40.888 100.874 42.312 100.874 44.04V57H94.8735V31.368H100.586V38.28L99.5775 36.168C100.474 34.536 101.77 33.288 103.466 32.424C105.194 31.528 107.178 31.08 109.418 31.08ZM139.031 57V52.824L160.727 26.328L161.447 28.68H139.367V23.4H167.062V27.576L145.367 54.072L144.599 51.72H167.687V57H139.031ZM180.747 57.336C178.603 57.336 176.539 57.064 174.555 56.52C172.603 55.944 171.051 55.256 169.899 54.456L172.203 49.896C173.355 50.632 174.731 51.24 176.331 51.72C177.931 52.2 179.531 52.44 181.131 52.44C183.019 52.44 184.379 52.184 185.211 51.672C186.075 51.16 186.507 50.472 186.507 49.608C186.507 48.904 186.219 48.376 185.643 48.024C185.067 47.64 184.315 47.352 183.387 47.16C182.459 46.968 181.419 46.792 180.267 46.632C179.147 46.472 178.011 46.264 176.859 46.008C175.739 45.72 174.715 45.32 173.787 44.808C172.859 44.264 172.107 43.544 171.531 42.648C170.955 41.752 170.667 40.568 170.667 39.096C170.667 37.464 171.131 36.056 172.059 34.872C172.987 33.656 174.283 32.728 175.947 32.088C177.643 31.416 179.643 31.08 181.947 31.08C183.675 31.08 185.419 31.272 187.179 31.656C188.939 32.04 190.395 32.584 191.547 33.288L189.243 37.848C188.027 37.112 186.795 36.616 185.547 36.36C184.331 36.072 183.115 35.928 181.899 35.928C180.075 35.928 178.715 36.2 177.819 36.744C176.955 37.288 176.523 37.976 176.523 38.808C176.523 39.576 176.811 40.152 177.387 40.536C177.963 40.92 178.715 41.224 179.643 41.448C180.571 41.672 181.595 41.864 182.715 42.024C183.867 42.152 185.003 42.36 186.123 42.648C187.243 42.936 188.267 43.336 189.195 43.848C190.155 44.328 190.923 45.016 191.499 45.912C192.075 46.808 192.363 47.976 192.363 49.416C192.363 51.016 191.883 52.408 190.923 53.592C189.995 54.776 188.667 55.704 186.939 56.376C185.211 57.016 183.147 57.336 180.747 57.336ZM199.45 57.336C198.362 57.336 197.434 56.968 196.666 56.232C195.898 55.464 195.514 54.504 195.514 53.352C195.514 52.136 195.898 51.176 196.666 50.472C197.434 49.736 198.362 49.368 199.45 49.368C200.538 49.368 201.466 49.736 202.234 50.472C203.002 51.176 203.386 52.136 203.386 53.352C203.386 54.504 203.002 55.464 202.234 56.232C201.466 56.968 200.538 57.336 199.45 57.336Z" fill="white"/>
</svg>
