<svg width="333" height="87" viewBox="0 0 333 87" fill="none" xmlns="http://www.w3.org/2000/svg">
<mask id="path-1-outside-1_2623_718" maskUnits="userSpaceOnUse" x="0" y="0" width="333" height="87" fill="black">
<rect fill="white" width="333" height="87"/>
<path d="M0 8C0 3.58172 3.58172 0 8 0H317C321.418 0 325 3.58172 325 8V71C325 75.4183 321.418 79 317 79H8.00001C3.58173 79 0 75.4183 0 71V8Z"/>
</mask>
<path d="M0 8C0 3.58172 3.58172 0 8 0H317C321.418 0 325 3.58172 325 8V71C325 75.4183 321.418 79 317 79H8.00001C3.58173 79 0 75.4183 0 71V8Z" fill="#02981D"/>
<path d="M0 0H325H0ZM333 71C333 79.8366 325.837 87 317 87H16C7.16344 87 0 79.8366 0 71C0 71 3.58172 71 8 71H317H333ZM0 79V0V79ZM317 0C325.837 0 333 7.16344 333 16V71C333 79.8366 325.837 87 317 87V71V8C317 3.58172 317 0 317 0Z" fill="#3F3767" mask="url(#path-1-outside-1_2623_718)"/>
<path d="M28.512 57V23.4H33.648L48.336 47.928H45.648L60.096 23.4H65.232L65.28 57H59.376L59.328 32.664H60.576L48.288 53.16H45.504L33.024 32.664H34.464V57H28.512ZM73.7798 57V31.368H79.7798V57H73.7798ZM76.8038 27.144C75.6838 27.144 74.7558 26.792 74.0198 26.088C73.3158 25.384 72.9638 24.536 72.9638 23.544C72.9638 22.52 73.3158 21.672 74.0198 21C74.7558 20.296 75.6838 19.944 76.8038 19.944C77.9238 19.944 78.8358 20.28 79.5398 20.952C80.2758 21.592 80.6438 22.408 80.6438 23.4C80.6438 24.456 80.2918 25.352 79.5878 26.088C78.8838 26.792 77.9558 27.144 76.8038 27.144ZM87.6548 57V21.384H93.6548V57H87.6548ZM101.53 57V21.384H107.53V57H101.53ZM127.453 57.336C124.605 57.336 122.109 56.776 119.965 55.656C117.853 54.504 116.205 52.936 115.021 50.952C113.869 48.968 113.293 46.712 113.293 44.184C113.293 41.624 113.853 39.368 114.973 37.416C116.125 35.432 117.693 33.88 119.677 32.76C121.693 31.64 123.981 31.08 126.541 31.08C129.037 31.08 131.261 31.624 133.213 32.712C135.165 33.8 136.701 35.336 137.821 37.32C138.941 39.304 139.501 41.64 139.501 44.328C139.501 44.584 139.485 44.872 139.453 45.192C139.453 45.512 139.437 45.816 139.405 46.104H118.045V42.12H136.237L133.885 43.368C133.917 41.896 133.613 40.6 132.973 39.48C132.333 38.36 131.453 37.48 130.333 36.84C129.245 36.2 127.981 35.88 126.541 35.88C125.069 35.88 123.773 36.2 122.653 36.84C121.565 37.48 120.701 38.376 120.061 39.528C119.453 40.648 119.149 41.976 119.149 43.512V44.472C119.149 46.008 119.501 47.368 120.205 48.552C120.909 49.736 121.901 50.648 123.181 51.288C124.461 51.928 125.933 52.248 127.597 52.248C129.037 52.248 130.333 52.024 131.485 51.576C132.637 51.128 133.661 50.424 134.557 49.464L137.773 53.16C136.621 54.504 135.165 55.544 133.405 56.28C131.677 56.984 129.693 57.336 127.453 57.336ZM159.808 31.08C161.856 31.08 163.68 31.48 165.28 32.28C166.912 33.08 168.192 34.312 169.12 35.976C170.048 37.608 170.512 39.72 170.512 42.312V57H164.512V43.08C164.512 40.808 163.968 39.112 162.88 37.992C161.824 36.872 160.336 36.312 158.416 36.312C157.008 36.312 155.76 36.6 154.672 37.176C153.584 37.752 152.736 38.616 152.128 39.768C151.552 40.888 151.264 42.312 151.264 44.04V57H145.264V31.368H150.976V38.28L149.968 36.168C150.864 34.536 152.16 33.288 153.856 32.424C155.584 31.528 157.568 31.08 159.808 31.08ZM192.668 31.08C194.716 31.08 196.54 31.48 198.14 32.28C199.772 33.08 201.052 34.312 201.98 35.976C202.908 37.608 203.372 39.72 203.372 42.312V57H197.372V43.08C197.372 40.808 196.828 39.112 195.74 37.992C194.684 36.872 193.196 36.312 191.276 36.312C189.868 36.312 188.62 36.6 187.532 37.176C186.444 37.752 185.596 38.616 184.988 39.768C184.412 40.888 184.124 42.312 184.124 44.04V57H178.124V31.368H183.836V38.28L182.828 36.168C183.724 34.536 185.02 33.288 186.716 32.424C188.444 31.528 190.428 31.08 192.668 31.08ZM210.983 57V31.368H216.983V57H210.983ZM214.007 27.144C212.887 27.144 211.959 26.792 211.223 26.088C210.519 25.384 210.167 24.536 210.167 23.544C210.167 22.52 210.519 21.672 211.223 21C211.959 20.296 212.887 19.944 214.007 19.944C215.127 19.944 216.039 20.28 216.743 20.952C217.479 21.592 217.847 22.408 217.847 23.4C217.847 24.456 217.495 25.352 216.791 26.088C216.087 26.792 215.159 27.144 214.007 27.144ZM240.65 57V51.816L240.314 50.712V41.64C240.314 39.88 239.786 38.52 238.73 37.56C237.674 36.568 236.074 36.072 233.93 36.072C232.49 36.072 231.066 36.296 229.658 36.744C228.282 37.192 227.114 37.816 226.154 38.616L223.802 34.248C225.178 33.192 226.81 32.408 228.698 31.896C230.618 31.352 232.602 31.08 234.65 31.08C238.362 31.08 241.226 31.976 243.242 33.768C245.29 35.528 246.314 38.264 246.314 41.976V57H240.65ZM232.586 57.336C230.666 57.336 228.986 57.016 227.546 56.376C226.106 55.704 224.986 54.792 224.186 53.64C223.418 52.456 223.034 51.128 223.034 49.656C223.034 48.216 223.37 46.92 224.042 45.768C224.746 44.616 225.882 43.704 227.45 43.032C229.018 42.36 231.098 42.024 233.69 42.024H241.13V46.008H234.122C232.074 46.008 230.698 46.344 229.994 47.016C229.29 47.656 228.938 48.456 228.938 49.416C228.938 50.504 229.37 51.368 230.234 52.008C231.098 52.648 232.298 52.968 233.834 52.968C235.306 52.968 236.618 52.632 237.77 51.96C238.954 51.288 239.802 50.296 240.314 48.984L241.322 52.584C240.746 54.088 239.706 55.256 238.202 56.088C236.73 56.92 234.858 57.336 232.586 57.336ZM254.014 57V21.384H260.014V57H254.014ZM275.809 57.336C273.665 57.336 271.601 57.064 269.617 56.52C267.665 55.944 266.113 55.256 264.961 54.456L267.265 49.896C268.417 50.632 269.793 51.24 271.393 51.72C272.993 52.2 274.593 52.44 276.193 52.44C278.081 52.44 279.441 52.184 280.273 51.672C281.137 51.16 281.569 50.472 281.569 49.608C281.569 48.904 281.281 48.376 280.705 48.024C280.129 47.64 279.377 47.352 278.449 47.16C277.521 46.968 276.481 46.792 275.329 46.632C274.209 46.472 273.073 46.264 271.921 46.008C270.801 45.72 269.777 45.32 268.849 44.808C267.921 44.264 267.169 43.544 266.593 42.648C266.017 41.752 265.729 40.568 265.729 39.096C265.729 37.464 266.193 36.056 267.121 34.872C268.049 33.656 269.345 32.728 271.009 32.088C272.705 31.416 274.705 31.08 277.009 31.08C278.737 31.08 280.481 31.272 282.241 31.656C284.001 32.04 285.457 32.584 286.609 33.288L284.305 37.848C283.089 37.112 281.857 36.616 280.609 36.36C279.393 36.072 278.177 35.928 276.961 35.928C275.137 35.928 273.777 36.2 272.881 36.744C272.017 37.288 271.585 37.976 271.585 38.808C271.585 39.576 271.873 40.152 272.449 40.536C273.025 40.92 273.777 41.224 274.705 41.448C275.633 41.672 276.657 41.864 277.777 42.024C278.929 42.152 280.065 42.36 281.185 42.648C282.305 42.936 283.329 43.336 284.257 43.848C285.217 44.328 285.985 45.016 286.561 45.912C287.137 46.808 287.425 47.976 287.425 49.416C287.425 51.016 286.945 52.408 285.985 53.592C285.057 54.776 283.729 55.704 282.001 56.376C280.273 57.016 278.209 57.336 275.809 57.336ZM294.512 57.336C293.424 57.336 292.496 56.968 291.728 56.232C290.96 55.464 290.576 54.504 290.576 53.352C290.576 52.136 290.96 51.176 291.728 50.472C292.496 49.736 293.424 49.368 294.512 49.368C295.6 49.368 296.528 49.736 297.296 50.472C298.064 51.176 298.448 52.136 298.448 53.352C298.448 54.504 298.064 55.464 297.296 56.232C296.528 56.968 295.6 57.336 294.512 57.336Z" fill="white"/>
</svg>
