<svg width="401" height="87" viewBox="0 0 401 87" fill="none" xmlns="http://www.w3.org/2000/svg">
<mask id="path-1-outside-1_2623_723" maskUnits="userSpaceOnUse" x="0" y="0" width="401" height="87" fill="black">
<rect fill="white" width="401" height="87"/>
<path d="M0 8C0 3.58172 3.58172 0 8 0H385C389.418 0 393 3.58172 393 8V71C393 75.4183 389.418 79 385 79H8C3.58172 79 0 75.4183 0 71V8Z"/>
</mask>
<path d="M0 8C0 3.58172 3.58172 0 8 0H385C389.418 0 393 3.58172 393 8V71C393 75.4183 389.418 79 385 79H8C3.58172 79 0 75.4183 0 71V8Z" fill="#171717"/>
<path d="M0 0H393H0ZM401 71C401 79.8366 393.837 87 385 87H16C7.16344 87 0 79.8366 0 71C0 71 3.58172 71 8 71H385H401ZM0 79V0V79ZM385 0C393.837 0 401 7.16344 401 16V71C401 79.8366 393.837 87 385 87V71V8C385 3.58172 385 0 385 0Z" fill="#02981D" mask="url(#path-1-outside-1_2623_723)"/>
<path d="M44.064 57.48C41.504 57.48 39.12 57.064 36.912 56.232C34.736 55.368 32.832 54.168 31.2 52.632C29.6 51.064 28.352 49.224 27.456 47.112C26.56 45 26.112 42.696 26.112 40.2C26.112 37.704 26.56 35.4 27.456 33.288C28.352 31.176 29.616 29.352 31.248 27.816C32.88 26.248 34.784 25.048 36.96 24.216C39.136 23.352 41.52 22.92 44.112 22.92C46.864 22.92 49.376 23.4 51.648 24.36C53.92 25.288 55.84 26.68 57.408 28.536L53.376 32.328C52.16 31.016 50.8 30.04 49.296 29.4C47.792 28.728 46.16 28.392 44.4 28.392C42.64 28.392 41.024 28.68 39.552 29.256C38.112 29.832 36.848 30.648 35.76 31.704C34.704 32.76 33.872 34.008 33.264 35.448C32.688 36.888 32.4 38.472 32.4 40.2C32.4 41.928 32.688 43.512 33.264 44.952C33.872 46.392 34.704 47.64 35.76 48.696C36.848 49.752 38.112 50.568 39.552 51.144C41.024 51.72 42.64 52.008 44.4 52.008C46.16 52.008 47.792 51.688 49.296 51.048C50.8 50.376 52.16 49.368 53.376 48.024L57.408 51.864C55.84 53.688 53.92 55.08 51.648 56.04C49.376 57 46.848 57.48 44.064 57.48ZM62.811 57V31.368H68.811V57H62.811ZM65.835 27.144C64.715 27.144 63.787 26.792 63.051 26.088C62.347 25.384 61.995 24.536 61.995 23.544C61.995 22.52 62.347 21.672 63.051 21C63.787 20.296 64.715 19.944 65.835 19.944C66.955 19.944 67.867 20.28 68.571 20.952C69.307 21.592 69.675 22.408 69.675 23.4C69.675 24.456 69.323 25.352 68.619 26.088C67.915 26.792 66.987 27.144 65.835 27.144ZM83.502 57L72.51 31.368H78.75L88.206 53.976H85.134L94.926 31.368H100.686L89.694 57H83.502ZM104.436 57V31.368H110.436V57H104.436ZM107.46 27.144C106.34 27.144 105.412 26.792 104.676 26.088C103.972 25.384 103.62 24.536 103.62 23.544C103.62 22.52 103.972 21.672 104.676 21C105.412 20.296 106.34 19.944 107.46 19.944C108.58 19.944 109.492 20.28 110.196 20.952C110.932 21.592 111.3 22.408 111.3 23.4C111.3 24.456 110.948 25.352 110.244 26.088C109.54 26.792 108.612 27.144 107.46 27.144ZM118.311 57V21.384H124.311V57H118.311ZM156.444 57.48C153.82 57.48 151.308 57.112 148.908 56.376C146.508 55.608 144.604 54.632 143.196 53.448L145.356 48.6C146.7 49.656 148.364 50.536 150.348 51.24C152.332 51.944 154.364 52.296 156.444 52.296C158.204 52.296 159.628 52.104 160.716 51.72C161.804 51.336 162.604 50.824 163.116 50.184C163.628 49.512 163.884 48.76 163.884 47.928C163.884 46.904 163.516 46.088 162.78 45.48C162.044 44.84 161.084 44.344 159.9 43.992C158.748 43.608 157.452 43.256 156.012 42.936C154.604 42.616 153.18 42.248 151.74 41.832C150.332 41.384 149.036 40.824 147.852 40.152C146.7 39.448 145.756 38.52 145.02 37.368C144.284 36.216 143.916 34.744 143.916 32.952C143.916 31.128 144.396 29.464 145.356 27.96C146.348 26.424 147.836 25.208 149.82 24.312C151.836 23.384 154.38 22.92 157.452 22.92C159.468 22.92 161.468 23.176 163.452 23.688C165.436 24.2 167.164 24.936 168.636 25.896L166.668 30.744C165.164 29.848 163.612 29.192 162.012 28.776C160.412 28.328 158.876 28.104 157.404 28.104C155.676 28.104 154.268 28.312 153.18 28.728C152.124 29.144 151.34 29.688 150.828 30.36C150.348 31.032 150.108 31.8 150.108 32.664C150.108 33.688 150.46 34.52 151.164 35.16C151.9 35.768 152.844 36.248 153.996 36.6C155.18 36.952 156.492 37.304 157.932 37.656C159.372 37.976 160.796 38.344 162.204 38.76C163.644 39.176 164.94 39.72 166.092 40.392C167.276 41.064 168.22 41.976 168.924 43.128C169.66 44.28 170.028 45.736 170.028 47.496C170.028 49.288 169.532 50.952 168.54 52.488C167.58 53.992 166.092 55.208 164.076 56.136C162.06 57.032 159.516 57.48 156.444 57.48ZM187.687 57.336C184.839 57.336 182.343 56.776 180.199 55.656C178.087 54.504 176.439 52.936 175.255 50.952C174.103 48.968 173.527 46.712 173.527 44.184C173.527 41.624 174.087 39.368 175.207 37.416C176.359 35.432 177.927 33.88 179.911 32.76C181.927 31.64 184.215 31.08 186.775 31.08C189.271 31.08 191.495 31.624 193.447 32.712C195.399 33.8 196.935 35.336 198.055 37.32C199.175 39.304 199.735 41.64 199.735 44.328C199.735 44.584 199.719 44.872 199.687 45.192C199.687 45.512 199.671 45.816 199.639 46.104H178.279V42.12H196.471L194.119 43.368C194.151 41.896 193.847 40.6 193.207 39.48C192.567 38.36 191.687 37.48 190.567 36.84C189.479 36.2 188.215 35.88 186.775 35.88C185.303 35.88 184.007 36.2 182.887 36.84C181.799 37.48 180.935 38.376 180.295 39.528C179.687 40.648 179.383 41.976 179.383 43.512V44.472C179.383 46.008 179.735 47.368 180.439 48.552C181.143 49.736 182.135 50.648 183.415 51.288C184.695 51.928 186.167 52.248 187.831 52.248C189.271 52.248 190.567 52.024 191.719 51.576C192.871 51.128 193.895 50.424 194.791 49.464L198.007 53.16C196.855 54.504 195.399 55.544 193.639 56.28C191.911 56.984 189.927 57.336 187.687 57.336ZM205.499 57V31.368H211.211V38.424L210.539 36.36C211.307 34.632 212.507 33.32 214.139 32.424C215.803 31.528 217.867 31.08 220.331 31.08V36.792C220.075 36.728 219.835 36.696 219.611 36.696C219.387 36.664 219.163 36.648 218.939 36.648C216.667 36.648 214.859 37.32 213.515 38.664C212.171 39.976 211.499 41.944 211.499 44.568V57H205.499ZM233.174 57L222.182 31.368H228.422L237.878 53.976H234.806L244.598 31.368H250.358L239.366 57H233.174ZM269.103 57V51.816L268.767 50.712V41.64C268.767 39.88 268.239 38.52 267.183 37.56C266.127 36.568 264.527 36.072 262.383 36.072C260.943 36.072 259.519 36.296 258.111 36.744C256.735 37.192 255.567 37.816 254.607 38.616L252.255 34.248C253.631 33.192 255.263 32.408 257.151 31.896C259.071 31.352 261.055 31.08 263.103 31.08C266.815 31.08 269.679 31.976 271.695 33.768C273.743 35.528 274.767 38.264 274.767 41.976V57H269.103ZM261.039 57.336C259.119 57.336 257.439 57.016 255.999 56.376C254.559 55.704 253.439 54.792 252.639 53.64C251.871 52.456 251.487 51.128 251.487 49.656C251.487 48.216 251.823 46.92 252.495 45.768C253.199 44.616 254.335 43.704 255.903 43.032C257.471 42.36 259.551 42.024 262.143 42.024H269.583V46.008H262.575C260.527 46.008 259.151 46.344 258.447 47.016C257.743 47.656 257.391 48.456 257.391 49.416C257.391 50.504 257.823 51.368 258.687 52.008C259.551 52.648 260.751 52.968 262.287 52.968C263.759 52.968 265.071 52.632 266.223 51.96C267.407 51.288 268.255 50.296 268.767 48.984L269.775 52.584C269.199 54.088 268.159 55.256 266.655 56.088C265.183 56.92 263.311 57.336 261.039 57.336ZM297.011 31.08C299.059 31.08 300.883 31.48 302.483 32.28C304.115 33.08 305.395 34.312 306.323 35.976C307.251 37.608 307.715 39.72 307.715 42.312V57H301.715V43.08C301.715 40.808 301.171 39.112 300.083 37.992C299.027 36.872 297.539 36.312 295.619 36.312C294.211 36.312 292.963 36.6 291.875 37.176C290.787 37.752 289.939 38.616 289.331 39.768C288.755 40.888 288.467 42.312 288.467 44.04V57H282.467V31.368H288.179V38.28L287.171 36.168C288.067 34.536 289.363 33.288 291.059 32.424C292.787 31.528 294.771 31.08 297.011 31.08ZM324.975 57.336C322.159 57.336 319.983 56.616 318.447 55.176C316.911 53.704 316.143 51.544 316.143 48.696V25.704H322.143V48.552C322.143 49.768 322.447 50.712 323.055 51.384C323.695 52.056 324.575 52.392 325.695 52.392C327.039 52.392 328.159 52.04 329.055 51.336L330.735 55.608C330.031 56.184 329.167 56.616 328.143 56.904C327.119 57.192 326.063 57.336 324.975 57.336ZM311.919 36.36V31.56H329.007V36.36H311.919ZM343.59 57.336C341.446 57.336 339.382 57.064 337.398 56.52C335.446 55.944 333.894 55.256 332.742 54.456L335.046 49.896C336.198 50.632 337.574 51.24 339.174 51.72C340.774 52.2 342.374 52.44 343.974 52.44C345.862 52.44 347.222 52.184 348.054 51.672C348.918 51.16 349.35 50.472 349.35 49.608C349.35 48.904 349.062 48.376 348.486 48.024C347.91 47.64 347.158 47.352 346.23 47.16C345.302 46.968 344.262 46.792 343.11 46.632C341.99 46.472 340.854 46.264 339.702 46.008C338.582 45.72 337.558 45.32 336.63 44.808C335.702 44.264 334.95 43.544 334.374 42.648C333.798 41.752 333.51 40.568 333.51 39.096C333.51 37.464 333.974 36.056 334.902 34.872C335.83 33.656 337.126 32.728 338.79 32.088C340.486 31.416 342.486 31.08 344.79 31.08C346.518 31.08 348.262 31.272 350.022 31.656C351.782 32.04 353.238 32.584 354.39 33.288L352.086 37.848C350.87 37.112 349.638 36.616 348.39 36.36C347.174 36.072 345.958 35.928 344.742 35.928C342.918 35.928 341.558 36.2 340.662 36.744C339.798 37.288 339.366 37.976 339.366 38.808C339.366 39.576 339.654 40.152 340.23 40.536C340.806 40.92 341.558 41.224 342.486 41.448C343.414 41.672 344.438 41.864 345.558 42.024C346.71 42.152 347.846 42.36 348.966 42.648C350.086 42.936 351.11 43.336 352.038 43.848C352.998 44.328 353.766 45.016 354.342 45.912C354.918 46.808 355.206 47.976 355.206 49.416C355.206 51.016 354.726 52.408 353.766 53.592C352.838 54.776 351.51 55.704 349.782 56.376C348.054 57.016 345.99 57.336 343.59 57.336ZM362.294 57.336C361.206 57.336 360.278 56.968 359.51 56.232C358.742 55.464 358.358 54.504 358.358 53.352C358.358 52.136 358.742 51.176 359.51 50.472C360.278 49.736 361.206 49.368 362.294 49.368C363.382 49.368 364.31 49.736 365.078 50.472C365.846 51.176 366.23 52.136 366.23 53.352C366.23 54.504 365.846 55.464 365.078 56.232C364.31 56.968 363.382 57.336 362.294 57.336Z" fill="white"/>
</svg>
