<svg width="494" height="87" viewBox="0 0 494 87" fill="none" xmlns="http://www.w3.org/2000/svg">
<mask id="path-1-outside-1_2623_734" maskUnits="userSpaceOnUse" x="0" y="0" width="494" height="87" fill="black">
<rect fill="white" width="494" height="87"/>
<path d="M0 8C0 3.58172 3.58172 0 8 0H478C482.418 0 486 3.58172 486 8V71C486 75.4183 482.418 79 478 79H8C3.58172 79 0 75.4183 0 71V8Z"/>
</mask>
<path d="M0 8C0 3.58172 3.58172 0 8 0H478C482.418 0 486 3.58172 486 8V71C486 75.4183 482.418 79 478 79H8C3.58172 79 0 75.4183 0 71V8Z" fill="white"/>
<path d="M0 0H486H0ZM494 71C494 79.8366 486.837 87 478 87H16C7.16344 87 0 79.8366 0 71C0 71 3.58172 71 8 71H478H494ZM0 79V0V79ZM478 0C486.837 0 494 7.16344 494 16V71C494 79.8366 486.837 87 478 87V71V8C478 3.58172 478 0 478 0Z" fill="#3F3767" mask="url(#path-1-outside-1_2623_734)"/>
<path d="M28.512 57V23.4H44.256C48.288 23.4 51.36 24.2 53.472 25.8C55.584 27.368 56.64 29.48 56.64 32.136C56.64 33.928 56.224 35.464 55.392 36.744C54.56 37.992 53.44 38.968 52.032 39.672C50.656 40.344 49.152 40.68 47.52 40.68L48.384 38.952C50.272 38.952 51.968 39.304 53.472 40.008C54.976 40.68 56.16 41.672 57.024 42.984C57.92 44.296 58.368 45.928 58.368 47.88C58.368 50.76 57.264 53 55.056 54.6C52.848 56.2 49.568 57 45.216 57H28.512ZM34.752 52.104H44.832C47.168 52.104 48.96 51.72 50.208 50.952C51.456 50.184 52.08 48.952 52.08 47.256C52.08 45.592 51.456 44.376 50.208 43.608C48.96 42.808 47.168 42.408 44.832 42.408H34.272V37.56H43.584C45.76 37.56 47.424 37.176 48.576 36.408C49.76 35.64 50.352 34.488 50.352 32.952C50.352 31.384 49.76 30.216 48.576 29.448C47.424 28.68 45.76 28.296 43.584 28.296H34.752V52.104ZM75.2996 57.336C73.1236 57.336 71.2036 56.936 69.5396 56.136C67.8756 55.304 66.5796 54.056 65.6516 52.392C64.7236 50.696 64.2596 48.568 64.2596 46.008V31.368H70.2596V45.192C70.2596 47.496 70.7716 49.224 71.7956 50.376C72.8516 51.496 74.3396 52.056 76.2596 52.056C77.6676 52.056 78.8836 51.768 79.9076 51.192C80.9636 50.616 81.7796 49.752 82.3556 48.6C82.9636 47.448 83.2676 46.024 83.2676 44.328V31.368H89.2676V57H83.5556V50.088L84.5636 52.2C83.6996 53.864 82.4356 55.144 80.7716 56.04C79.1076 56.904 77.2836 57.336 75.2996 57.336ZM105.044 57.336C102.9 57.336 100.836 57.064 98.8515 56.52C96.8995 55.944 95.3475 55.256 94.1955 54.456L96.4995 49.896C97.6515 50.632 99.0275 51.24 100.628 51.72C102.228 52.2 103.828 52.44 105.428 52.44C107.316 52.44 108.676 52.184 109.508 51.672C110.372 51.16 110.804 50.472 110.804 49.608C110.804 48.904 110.516 48.376 109.94 48.024C109.364 47.64 108.612 47.352 107.684 47.16C106.756 46.968 105.716 46.792 104.564 46.632C103.444 46.472 102.308 46.264 101.156 46.008C100.036 45.72 99.0115 45.32 98.0835 44.808C97.1555 44.264 96.4035 43.544 95.8275 42.648C95.2515 41.752 94.9635 40.568 94.9635 39.096C94.9635 37.464 95.4275 36.056 96.3555 34.872C97.2835 33.656 98.5795 32.728 100.243 32.088C101.94 31.416 103.94 31.08 106.244 31.08C107.972 31.08 109.716 31.272 111.476 31.656C113.236 32.04 114.692 32.584 115.844 33.288L113.54 37.848C112.324 37.112 111.092 36.616 109.844 36.36C108.628 36.072 107.412 35.928 106.196 35.928C104.372 35.928 103.012 36.2 102.116 36.744C101.252 37.288 100.82 37.976 100.82 38.808C100.82 39.576 101.108 40.152 101.684 40.536C102.26 40.92 103.012 41.224 103.94 41.448C104.868 41.672 105.892 41.864 107.012 42.024C108.164 42.152 109.3 42.36 110.42 42.648C111.54 42.936 112.564 43.336 113.492 43.848C114.452 44.328 115.22 45.016 115.796 45.912C116.372 46.808 116.66 47.976 116.66 49.416C116.66 51.016 116.18 52.408 115.22 53.592C114.292 54.776 112.964 55.704 111.236 56.376C109.508 57.016 107.444 57.336 105.044 57.336ZM121.827 57V31.368H127.827V57H121.827ZM124.851 27.144C123.731 27.144 122.803 26.792 122.067 26.088C121.363 25.384 121.011 24.536 121.011 23.544C121.011 22.52 121.363 21.672 122.067 21C122.803 20.296 123.731 19.944 124.851 19.944C125.971 19.944 126.883 20.28 127.587 20.952C128.323 21.592 128.691 22.408 128.691 23.4C128.691 24.456 128.339 25.352 127.635 26.088C126.931 26.792 126.003 27.144 124.851 27.144ZM150.246 31.08C152.294 31.08 154.118 31.48 155.718 32.28C157.35 33.08 158.63 34.312 159.558 35.976C160.486 37.608 160.95 39.72 160.95 42.312V57H154.95V43.08C154.95 40.808 154.406 39.112 153.318 37.992C152.262 36.872 150.774 36.312 148.854 36.312C147.446 36.312 146.198 36.6 145.11 37.176C144.022 37.752 143.174 38.616 142.566 39.768C141.99 40.888 141.702 42.312 141.702 44.04V57H135.702V31.368H141.414V38.28L140.406 36.168C141.302 34.536 142.598 33.288 144.294 32.424C146.022 31.528 148.006 31.08 150.246 31.08ZM180.656 57.336C177.808 57.336 175.312 56.776 173.168 55.656C171.056 54.504 169.408 52.936 168.224 50.952C167.072 48.968 166.496 46.712 166.496 44.184C166.496 41.624 167.056 39.368 168.176 37.416C169.328 35.432 170.896 33.88 172.88 32.76C174.896 31.64 177.184 31.08 179.744 31.08C182.24 31.08 184.464 31.624 186.416 32.712C188.368 33.8 189.904 35.336 191.024 37.32C192.144 39.304 192.704 41.64 192.704 44.328C192.704 44.584 192.688 44.872 192.656 45.192C192.656 45.512 192.64 45.816 192.608 46.104H171.248V42.12H189.44L187.088 43.368C187.12 41.896 186.816 40.6 186.176 39.48C185.536 38.36 184.656 37.48 183.536 36.84C182.448 36.2 181.184 35.88 179.744 35.88C178.272 35.88 176.976 36.2 175.856 36.84C174.768 37.48 173.904 38.376 173.264 39.528C172.656 40.648 172.352 41.976 172.352 43.512V44.472C172.352 46.008 172.704 47.368 173.408 48.552C174.112 49.736 175.104 50.648 176.384 51.288C177.664 51.928 179.136 52.248 180.8 52.248C182.24 52.248 183.536 52.024 184.688 51.576C185.84 51.128 186.864 50.424 187.76 49.464L190.976 53.16C189.824 54.504 188.368 55.544 186.608 56.28C184.88 56.984 182.896 57.336 180.656 57.336ZM206.387 57.336C204.243 57.336 202.179 57.064 200.195 56.52C198.243 55.944 196.691 55.256 195.539 54.456L197.843 49.896C198.995 50.632 200.371 51.24 201.971 51.72C203.571 52.2 205.171 52.44 206.771 52.44C208.659 52.44 210.019 52.184 210.851 51.672C211.715 51.16 212.147 50.472 212.147 49.608C212.147 48.904 211.859 48.376 211.283 48.024C210.707 47.64 209.955 47.352 209.027 47.16C208.099 46.968 207.059 46.792 205.907 46.632C204.787 46.472 203.651 46.264 202.499 46.008C201.379 45.72 200.355 45.32 199.427 44.808C198.499 44.264 197.747 43.544 197.171 42.648C196.595 41.752 196.307 40.568 196.307 39.096C196.307 37.464 196.771 36.056 197.699 34.872C198.627 33.656 199.923 32.728 201.587 32.088C203.283 31.416 205.283 31.08 207.587 31.08C209.315 31.08 211.059 31.272 212.819 31.656C214.579 32.04 216.035 32.584 217.187 33.288L214.883 37.848C213.667 37.112 212.435 36.616 211.187 36.36C209.971 36.072 208.755 35.928 207.539 35.928C205.715 35.928 204.355 36.2 203.459 36.744C202.595 37.288 202.163 37.976 202.163 38.808C202.163 39.576 202.451 40.152 203.027 40.536C203.603 40.92 204.355 41.224 205.283 41.448C206.211 41.672 207.235 41.864 208.355 42.024C209.507 42.152 210.643 42.36 211.763 42.648C212.883 42.936 213.907 43.336 214.835 43.848C215.795 44.328 216.563 45.016 217.139 45.912C217.715 46.808 218.003 47.976 218.003 49.416C218.003 51.016 217.523 52.408 216.563 53.592C215.635 54.776 214.307 55.704 212.579 56.376C210.851 57.016 208.787 57.336 206.387 57.336ZM231.09 57.336C228.946 57.336 226.882 57.064 224.898 56.52C222.946 55.944 221.394 55.256 220.242 54.456L222.546 49.896C223.698 50.632 225.074 51.24 226.674 51.72C228.274 52.2 229.874 52.44 231.474 52.44C233.362 52.44 234.722 52.184 235.554 51.672C236.418 51.16 236.85 50.472 236.85 49.608C236.85 48.904 236.562 48.376 235.986 48.024C235.41 47.64 234.658 47.352 233.73 47.16C232.802 46.968 231.762 46.792 230.61 46.632C229.49 46.472 228.354 46.264 227.202 46.008C226.082 45.72 225.058 45.32 224.13 44.808C223.202 44.264 222.45 43.544 221.874 42.648C221.298 41.752 221.01 40.568 221.01 39.096C221.01 37.464 221.474 36.056 222.402 34.872C223.33 33.656 224.626 32.728 226.29 32.088C227.986 31.416 229.986 31.08 232.29 31.08C234.018 31.08 235.762 31.272 237.522 31.656C239.282 32.04 240.738 32.584 241.89 33.288L239.586 37.848C238.37 37.112 237.138 36.616 235.89 36.36C234.674 36.072 233.458 35.928 232.242 35.928C230.418 35.928 229.058 36.2 228.162 36.744C227.298 37.288 226.866 37.976 226.866 38.808C226.866 39.576 227.154 40.152 227.73 40.536C228.306 40.92 229.058 41.224 229.986 41.448C230.914 41.672 231.938 41.864 233.058 42.024C234.21 42.152 235.346 42.36 236.466 42.648C237.586 42.936 238.61 43.336 239.538 43.848C240.498 44.328 241.266 45.016 241.842 45.912C242.418 46.808 242.706 47.976 242.706 49.416C242.706 51.016 242.226 52.408 241.266 53.592C240.338 54.776 239.01 55.704 237.282 56.376C235.554 57.016 233.49 57.336 231.09 57.336ZM277.459 57.48C274.835 57.48 272.419 57.048 270.211 56.184C268.003 55.32 266.083 54.12 264.451 52.584C262.819 51.016 261.555 49.192 260.659 47.112C259.763 45 259.315 42.696 259.315 40.2C259.315 37.704 259.763 35.416 260.659 33.336C261.555 31.224 262.819 29.4 264.451 27.864C266.083 26.296 268.003 25.08 270.211 24.216C272.419 23.352 274.819 22.92 277.411 22.92C280.035 22.92 282.435 23.352 284.611 24.216C286.819 25.08 288.739 26.296 290.371 27.864C292.003 29.4 293.267 31.224 294.163 33.336C295.059 35.416 295.507 37.704 295.507 40.2C295.507 42.696 295.059 45 294.163 47.112C293.267 49.224 292.003 51.048 290.371 52.584C288.739 54.12 286.819 55.32 284.611 56.184C282.435 57.048 280.051 57.48 277.459 57.48ZM277.411 52.008C279.107 52.008 280.675 51.72 282.115 51.144C283.555 50.568 284.803 49.752 285.859 48.696C286.915 47.608 287.731 46.36 288.307 44.952C288.915 43.512 289.219 41.928 289.219 40.2C289.219 38.472 288.915 36.904 288.307 35.496C287.731 34.056 286.915 32.808 285.859 31.752C284.803 30.664 283.555 29.832 282.115 29.256C280.675 28.68 279.107 28.392 277.411 28.392C275.715 28.392 274.147 28.68 272.707 29.256C271.299 29.832 270.051 30.664 268.963 31.752C267.907 32.808 267.075 34.056 266.467 35.496C265.891 36.904 265.603 38.472 265.603 40.2C265.603 41.896 265.891 43.464 266.467 44.904C267.075 46.344 267.907 47.608 268.963 48.696C270.019 49.752 271.267 50.568 272.707 51.144C274.147 51.72 275.715 52.008 277.411 52.008ZM307.209 57L297.801 31.368H303.465L311.529 53.976H308.841L317.289 31.368H322.329L330.537 53.976H327.897L336.201 31.368H341.529L332.073 57H326.313L318.825 36.984H320.601L312.969 57H307.209ZM360.199 31.08C362.247 31.08 364.071 31.48 365.671 32.28C367.303 33.08 368.583 34.312 369.511 35.976C370.439 37.608 370.903 39.72 370.903 42.312V57H364.903V43.08C364.903 40.808 364.359 39.112 363.271 37.992C362.215 36.872 360.727 36.312 358.807 36.312C357.399 36.312 356.151 36.6 355.063 37.176C353.975 37.752 353.127 38.616 352.519 39.768C351.943 40.888 351.655 42.312 351.655 44.04V57H345.655V31.368H351.367V38.28L350.359 36.168C351.255 34.536 352.551 33.288 354.247 32.424C355.975 31.528 357.959 31.08 360.199 31.08ZM390.609 57.336C387.761 57.336 385.265 56.776 383.121 55.656C381.009 54.504 379.361 52.936 378.177 50.952C377.025 48.968 376.449 46.712 376.449 44.184C376.449 41.624 377.009 39.368 378.129 37.416C379.281 35.432 380.849 33.88 382.833 32.76C384.849 31.64 387.137 31.08 389.697 31.08C392.193 31.08 394.417 31.624 396.369 32.712C398.321 33.8 399.857 35.336 400.977 37.32C402.097 39.304 402.657 41.64 402.657 44.328C402.657 44.584 402.641 44.872 402.609 45.192C402.609 45.512 402.593 45.816 402.561 46.104H381.201V42.12H399.393L397.041 43.368C397.073 41.896 396.769 40.6 396.129 39.48C395.489 38.36 394.609 37.48 393.489 36.84C392.401 36.2 391.137 35.88 389.697 35.88C388.225 35.88 386.929 36.2 385.809 36.84C384.721 37.48 383.857 38.376 383.217 39.528C382.609 40.648 382.305 41.976 382.305 43.512V44.472C382.305 46.008 382.657 47.368 383.361 48.552C384.065 49.736 385.057 50.648 386.337 51.288C387.617 51.928 389.089 52.248 390.753 52.248C392.193 52.248 393.489 52.024 394.641 51.576C395.793 51.128 396.817 50.424 397.713 49.464L400.929 53.16C399.777 54.504 398.321 55.544 396.561 56.28C394.833 56.984 392.849 57.336 390.609 57.336ZM408.42 57V31.368H414.132V38.424L413.46 36.36C414.228 34.632 415.428 33.32 417.06 32.424C418.724 31.528 420.788 31.08 423.252 31.08V36.792C422.996 36.728 422.756 36.696 422.532 36.696C422.308 36.664 422.084 36.648 421.86 36.648C419.588 36.648 417.78 37.32 416.436 38.664C415.092 39.976 414.42 41.944 414.42 44.568V57H408.42ZM436.497 57.336C434.353 57.336 432.289 57.064 430.305 56.52C428.353 55.944 426.801 55.256 425.649 54.456L427.953 49.896C429.105 50.632 430.481 51.24 432.081 51.72C433.681 52.2 435.281 52.44 436.881 52.44C438.769 52.44 440.129 52.184 440.961 51.672C441.825 51.16 442.257 50.472 442.257 49.608C442.257 48.904 441.969 48.376 441.393 48.024C440.817 47.64 440.065 47.352 439.137 47.16C438.209 46.968 437.169 46.792 436.017 46.632C434.897 46.472 433.761 46.264 432.609 46.008C431.489 45.72 430.465 45.32 429.537 44.808C428.609 44.264 427.857 43.544 427.281 42.648C426.705 41.752 426.417 40.568 426.417 39.096C426.417 37.464 426.881 36.056 427.809 34.872C428.737 33.656 430.033 32.728 431.697 32.088C433.393 31.416 435.393 31.08 437.697 31.08C439.425 31.08 441.169 31.272 442.929 31.656C444.689 32.04 446.145 32.584 447.297 33.288L444.993 37.848C443.777 37.112 442.545 36.616 441.297 36.36C440.081 36.072 438.865 35.928 437.649 35.928C435.825 35.928 434.465 36.2 433.569 36.744C432.705 37.288 432.273 37.976 432.273 38.808C432.273 39.576 432.561 40.152 433.137 40.536C433.713 40.92 434.465 41.224 435.393 41.448C436.321 41.672 437.345 41.864 438.465 42.024C439.617 42.152 440.753 42.36 441.873 42.648C442.993 42.936 444.017 43.336 444.945 43.848C445.905 44.328 446.673 45.016 447.249 45.912C447.825 46.808 448.113 47.976 448.113 49.416C448.113 51.016 447.633 52.408 446.673 53.592C445.745 54.776 444.417 55.704 442.689 56.376C440.961 57.016 438.897 57.336 436.497 57.336ZM455.2 57.336C454.112 57.336 453.184 56.968 452.416 56.232C451.648 55.464 451.264 54.504 451.264 53.352C451.264 52.136 451.648 51.176 452.416 50.472C453.184 49.736 454.112 49.368 455.2 49.368C456.288 49.368 457.216 49.736 457.984 50.472C458.752 51.176 459.136 52.136 459.136 53.352C459.136 54.504 458.752 55.464 457.984 56.232C457.216 56.968 456.288 57.336 455.2 57.336Z" fill="#3F3767"/>
</svg>
