<svg width="27" height="30" viewBox="0 0 27 30" fill="none" xmlns="http://www.w3.org/2000/svg">
<g filter="url(#filter0_ii_2917_9520)">
<path d="M1.47962 1.2918C1.15951 1.6306 0.970314 2.1564 0.970314 2.8373V27.1649C0.970314 27.8469 1.15951 28.3716 1.47962 28.7104L1.56101 28.7896L15.1889 15.1617V15.0011V14.8405L1.56101 1.2115L1.47962 1.2918Z" fill="url(#paint0_linear_2917_9520)"/>
<path d="M19.7308 19.7058L15.1889 15.1617V15.0011V14.8405L19.7319 10.2975L19.8342 10.3558L25.2165 13.4138C26.7532 14.2872 26.7532 15.7161 25.2165 16.5906L19.8342 19.6486L19.7308 19.7058Z" fill="url(#paint1_linear_2917_9520)"/>
<g filter="url(#filter1_i_2917_9520)">
<path d="M19.8342 19.6475L15.1878 15.0011L1.4796 28.7104C1.9856 29.2472 2.8227 29.3132 3.7654 28.7786L19.8342 19.6475Z" fill="url(#paint2_linear_2917_9520)"/>
</g>
<path d="M19.8342 10.3547L3.7654 1.2247C2.8227 0.689001 1.9856 0.756102 1.4796 1.2929L15.1889 15.0022L19.8342 10.3547Z" fill="url(#paint3_linear_2917_9520)"/>
</g>
<defs>
<filter id="filter0_ii_2917_9520" x="0.970314" y="0.855019" width="25.3987" height="28.2928" filterUnits="userSpaceOnUse" color-interpolation-filters="sRGB">
<feFlood flood-opacity="0" result="BackgroundImageFix"/>
<feBlend mode="normal" in="SourceGraphic" in2="BackgroundImageFix" result="shape"/>
<feColorMatrix in="SourceAlpha" type="matrix" values="0 0 0 0 0 0 0 0 0 0 0 0 0 0 0 0 0 0 127 0" result="hardAlpha"/>
<feOffset dy="-0.15"/>
<feComposite in2="hardAlpha" operator="arithmetic" k2="-1" k3="1"/>
<feColorMatrix type="matrix" values="0 0 0 0 0 0 0 0 0 0 0 0 0 0 0 0 0 0 0.12 0"/>
<feBlend mode="normal" in2="shape" result="effect1_innerShadow_2917_9520"/>
<feColorMatrix in="SourceAlpha" type="matrix" values="0 0 0 0 0 0 0 0 0 0 0 0 0 0 0 0 0 0 127 0" result="hardAlpha"/>
<feOffset dy="0.15"/>
<feComposite in2="hardAlpha" operator="arithmetic" k2="-1" k3="1"/>
<feColorMatrix type="matrix" values="0 0 0 0 1 0 0 0 0 1 0 0 0 0 1 0 0 0 0.25 0"/>
<feBlend mode="normal" in2="effect1_innerShadow_2917_9520" result="effect2_innerShadow_2917_9520"/>
</filter>
<filter id="filter1_i_2917_9520" x="1.4796" y="15.0011" width="18.3546" height="14.1467" filterUnits="userSpaceOnUse" color-interpolation-filters="sRGB">
<feFlood flood-opacity="0" result="BackgroundImageFix"/>
<feBlend mode="normal" in="SourceGraphic" in2="BackgroundImageFix" result="shape"/>
<feColorMatrix in="SourceAlpha" type="matrix" values="0 0 0 0 0 0 0 0 0 0 0 0 0 0 0 0 0 0 127 0" result="hardAlpha"/>
<feOffset dy="-0.15"/>
<feComposite in2="hardAlpha" operator="arithmetic" k2="-1" k3="1"/>
<feColorMatrix type="matrix" values="0 0 0 0 0 0 0 0 0 0 0 0 0 0 0 0 0 0 0.08 0"/>
<feBlend mode="normal" in2="shape" result="effect1_innerShadow_2917_9520"/>
</filter>
<linearGradient id="paint0_linear_2917_9520" x1="13.9809" y1="2.5799" x2="-4.4793" y2="21.0401" gradientUnits="userSpaceOnUse">
<stop stop-color="#00A0FF"/>
<stop offset="0.0066" stop-color="#00A1FF"/>
<stop offset="0.2601" stop-color="#00BEFF"/>
<stop offset="0.5122" stop-color="#00D2FF"/>
<stop offset="0.7604" stop-color="#00DFFF"/>
<stop offset="1" stop-color="#00E3FF"/>
</linearGradient>
<linearGradient id="paint1_linear_2917_9520" x1="27.2168" y1="15.0011" x2="0.601352" y2="15.0011" gradientUnits="userSpaceOnUse">
<stop stop-color="#FFE000"/>
<stop offset="0.4087" stop-color="#FFBD00"/>
<stop offset="0.7754" stop-color="#FFA500"/>
<stop offset="1" stop-color="#FF9C00"/>
</linearGradient>
<linearGradient id="paint2_linear_2917_9520" x1="17.3109" y1="17.5244" x2="-7.72343" y2="42.5587" gradientUnits="userSpaceOnUse">
<stop stop-color="#FF3A44"/>
<stop offset="1" stop-color="#C31162"/>
</linearGradient>
<linearGradient id="paint3_linear_2917_9520" x1="-1.97286" y1="-6.80552" x2="9.20567" y2="4.37301" gradientUnits="userSpaceOnUse">
<stop stop-color="#32A071"/>
<stop offset="0.0685" stop-color="#2DA771"/>
<stop offset="0.4762" stop-color="#15CF74"/>
<stop offset="0.8009" stop-color="#06E775"/>
<stop offset="1" stop-color="#00F076"/>
</linearGradient>
</defs>
</svg>
