<svg width="116" height="119" viewBox="0 0 116 119" fill="none" xmlns="http://www.w3.org/2000/svg">
<path d="M91.3196 0.563654C91.0008 0.112646 90.3768 0.00544017 89.9258 0.324203C89.4748 0.642967 89.3675 1.26699 89.6863 1.718L91.3196 0.563654ZM62.325 33.6357L61.6184 32.9282L61.6182 32.9284L62.325 33.6357ZM44.5482 62.784L45.3482 63.384L45.3484 63.3838L44.5482 62.784ZM18.0819 91.7592C17.8489 91.2585 17.2542 91.0413 16.7534 91.2743C16.2526 91.5072 16.0355 92.102 16.2684 92.6027L18.0819 91.7592ZM26.196 95.5915C26.7119 95.7886 27.29 95.5303 27.4871 95.0144C27.6843 94.4985 27.4259 93.9204 26.91 93.7233L26.196 95.5915ZM16.7748 90.9206L17.1317 89.9865C16.807 89.8624 16.4412 89.9158 16.1655 90.1276L16.7748 90.9206ZM15.3576 104.647C15.4693 105.188 15.9984 105.535 16.5393 105.424C17.0801 105.312 17.428 104.783 17.3162 104.242L15.3576 104.647ZM90.5029 1.14083C89.6863 1.718 89.6862 1.71786 89.6862 1.71785C89.6863 1.71802 89.6864 1.71815 89.6867 1.71849C89.6871 1.71917 89.688 1.72038 89.6892 1.7221C89.6916 1.72554 89.6955 1.73106 89.7008 1.73861C89.7113 1.75373 89.7275 1.77702 89.7491 1.80831C89.7924 1.87088 89.8571 1.96541 89.9414 2.09041C90.1098 2.34043 90.356 2.71224 90.663 3.19391C91.2772 4.15744 92.1343 5.55949 93.0997 7.30475C95.0324 10.7988 97.3894 15.651 99.1043 21.1022C102.549 32.051 103.32 45.0947 93.377 54.5964L94.7588 56.0423C105.544 45.736 104.532 31.6905 101.012 20.502C99.2449 14.8846 96.8242 9.90608 94.8498 6.3367C93.8616 4.55022 92.9828 3.11232 92.3495 2.11884C92.0328 1.622 91.7773 1.23604 91.6 0.972908C91.5114 0.841336 91.4423 0.740451 91.3948 0.67175C91.3711 0.637398 91.3528 0.61109 91.3402 0.593013C91.3338 0.583974 91.3289 0.576993 91.3255 0.572092C91.3238 0.569641 91.3224 0.567711 91.3214 0.566304C91.3209 0.5656 91.3205 0.564937 91.3202 0.564586C91.3198 0.564054 91.3196 0.563654 90.5029 1.14083ZM93.377 54.5964C88.3621 59.3888 83.4184 61.0058 79.0044 60.7142C74.5637 60.4208 70.5099 58.1854 67.3312 54.9974C64.1499 51.8067 61.9094 47.7236 61.0716 43.8695C60.2303 39.9993 60.8293 36.5441 63.0319 34.3431L61.6182 32.9284C58.7533 35.7912 58.1956 40.0545 59.1173 44.2944C60.0424 48.5505 62.4847 52.9693 65.915 56.4095C69.3479 59.8525 73.8347 62.377 78.8725 62.7098C83.9371 63.0444 89.4099 61.1539 94.7588 56.0423L93.377 54.5964ZM63.0317 34.3433C64.1288 33.2476 65.3665 32.7298 66.6778 32.6611C68.0091 32.5915 69.4842 32.983 71.0172 33.8297C74.0945 35.5294 77.2307 38.9722 79.5368 43.5045C84.1392 52.5493 85.2602 65.5632 76.3817 76.6967L77.9454 77.9437C87.4213 66.061 86.1909 52.1714 81.3193 42.5975C78.8886 37.8203 75.5071 34.0249 71.9842 32.079C70.217 31.103 68.3713 30.5698 66.5733 30.6639C64.7553 30.759 63.0552 31.4932 61.6184 32.9282L63.0317 34.3433ZM76.3817 76.6967C71.9164 82.2962 67.2171 84.8691 62.8771 85.5055C58.5291 86.143 54.4123 84.8563 51.079 82.4963C47.7375 80.1304 45.2305 76.7169 44.1105 73.1967C42.9925 69.6828 43.2743 66.1493 45.3482 63.384L43.7482 62.184C41.1931 65.591 40.943 69.8378 42.2046 73.803C43.4642 77.7619 46.2481 81.5265 49.9234 84.1286C53.6069 86.7366 58.2326 88.2079 63.1673 87.4843C68.1099 86.7596 73.2335 83.8524 77.9454 77.9437L76.3817 76.6967ZM45.3484 63.3838C46.4031 61.9766 47.5837 61.1292 48.8046 60.7129C50.0265 60.2962 51.3571 60.288 52.7487 60.6707C55.5597 61.4439 58.5722 63.8075 61.1009 67.4156C66.1422 74.6091 68.9778 86.3594 64.4802 98.4571L66.3548 99.154C71.0988 86.3937 68.1283 73.9582 62.7388 66.2678C60.052 62.4341 56.6931 59.6813 53.2792 58.7423C51.5583 58.269 49.8133 58.2558 48.159 58.8199C46.5036 59.3845 45.0076 60.5039 43.748 62.1842L45.3484 63.3838ZM64.4802 98.4571C62.2439 104.472 58.7987 108.166 54.8204 110.106C50.8283 112.052 46.1847 112.288 41.4695 111.168C32.0037 108.919 22.4989 101.256 18.0819 91.7592L16.2684 92.6027C20.9381 102.642 30.9337 110.72 41.0071 113.114C46.0614 114.315 51.197 114.098 55.697 111.903C60.2107 109.703 63.9704 105.568 66.3548 99.154L64.4802 98.4571ZM26.91 93.7233L17.1317 89.9865L16.4178 91.8547L26.196 95.5915L26.91 93.7233ZM16.7748 90.9206C16.1655 90.1276 16.1643 90.1285 16.1632 90.1294C16.1628 90.1297 16.1616 90.1306 16.1608 90.1313C16.1592 90.1325 16.1575 90.1338 16.1558 90.1351C16.1524 90.1378 16.1489 90.1406 16.1452 90.1436C16.1378 90.1496 16.1297 90.1562 16.1211 90.1635C16.1039 90.178 16.0844 90.1953 16.0628 90.2153C16.0196 90.2555 15.9685 90.307 15.9113 90.3714C15.7968 90.5005 15.6598 90.6801 15.5157 90.9229C15.2271 91.4092 14.9156 92.1396 14.6945 93.2131C14.2541 95.3508 14.1656 98.8787 15.3576 104.647L17.3162 104.242C16.1564 98.6296 16.2868 95.3956 16.6533 93.6166C16.8356 92.7317 17.0746 92.215 17.2356 91.9437C17.3163 91.8077 17.3788 91.731 17.4077 91.6984C17.4222 91.682 17.4287 91.6763 17.4252 91.6795C17.4235 91.6811 17.4193 91.6849 17.4125 91.6907C17.4091 91.6935 17.4051 91.6969 17.4003 91.7007C17.398 91.7026 17.3954 91.7047 17.3927 91.7068C17.3913 91.7079 17.3899 91.709 17.3885 91.7101C17.3878 91.7107 17.3867 91.7115 17.3863 91.7118C17.3852 91.7127 17.384 91.7135 16.7748 90.9206Z" fill="#02981D"/>
</svg>
