<svg width="106" height="106" viewBox="0 0 106 106" fill="none" xmlns="http://www.w3.org/2000/svg">
<rect y="29.1264" width="81.9287" height="81.9287" rx="40.9644" transform="rotate(-20.8246 0 29.1264)" fill="#E6F5E8"/>
<path d="M41.259 69.8515C40.531 69.8515 39.8375 69.604 39.1785 69.109C38.5195 68.6143 38.0861 68.0091 37.8785 67.2935C37.0451 64.4168 36.3715 61.9791 35.8575 59.9805C35.3431 57.9815 34.9373 56.2583 34.64 54.811C34.3426 53.3636 34.1368 52.1008 34.0225 51.0225C33.9085 49.9445 33.8515 48.8875 33.8515 47.8515C33.8515 45.0668 34.822 42.704 36.763 40.763C38.704 38.822 41.0668 37.8515 43.8515 37.8515H54.3515C55.2515 36.6515 56.3515 35.6848 57.6515 34.9515C58.9515 34.2181 60.3515 33.8515 61.8515 33.8515C62.4028 33.8515 62.874 34.047 63.265 34.438C63.656 34.829 63.8515 35.3001 63.8515 35.8515C63.8515 35.9875 63.8328 36.1201 63.7955 36.2495C63.7585 36.3791 63.7195 36.508 63.6785 36.636C63.5321 37.0283 63.3911 37.4526 63.2555 37.909C63.1195 38.3656 62.9925 38.9451 62.8745 39.6475L68.0785 44.8515H70.0435C70.5591 44.8515 70.9893 45.024 71.334 45.369C71.679 45.7136 71.8515 46.1438 71.8515 46.6595V55.7555C71.8515 56.1501 71.7393 56.5013 71.515 56.809C71.2906 57.1166 70.981 57.341 70.586 57.482L66.3935 58.863L63.8745 67.2705C63.6335 68.0605 63.195 68.6881 62.559 69.1535C61.9233 69.6188 61.2003 69.8515 60.39 69.8515H57.467C56.4696 69.8515 55.6176 69.4983 54.911 68.792C54.2046 68.0853 53.8515 67.2333 53.8515 66.236V65.8515H47.8515V66.236C47.8515 67.2333 47.4983 68.0853 46.792 68.792C46.0853 69.4983 45.2333 69.8515 44.236 69.8515H41.259ZM41.3515 66.8515H44.236C44.4156 66.8515 44.5631 66.7938 44.6785 66.6785C44.7938 66.5631 44.8515 66.4156 44.8515 66.236V62.8515H56.8515V66.236C56.8515 66.4156 56.9091 66.5631 57.0245 66.6785C57.1398 66.7938 57.2873 66.8515 57.467 66.8515H60.39C60.531 66.8515 60.656 66.813 60.765 66.736C60.874 66.659 60.9476 66.55 60.986 66.409L63.9515 56.5515L68.8515 54.9015V47.8515H66.8515L59.8515 40.8515C59.8515 40.2231 59.8963 39.5795 59.986 38.9205C60.0756 38.2618 60.2103 37.6451 60.39 37.0705C59.4616 37.3245 58.6213 37.7925 57.869 38.4745C57.1163 39.1565 56.5605 39.9488 56.2015 40.8515H43.8515C41.9181 40.8515 40.2681 41.5348 38.9015 42.9015C37.5348 44.2681 36.8515 45.9181 36.8515 47.8515C36.8515 49.1925 37.1886 51.4765 37.863 54.7035C38.5373 57.9305 39.4886 61.8195 40.717 66.3705C40.7553 66.5115 40.8355 66.627 40.9575 66.717C41.0791 66.8066 41.2105 66.8515 41.3515 66.8515ZM60.8515 50.6205C61.3411 50.6205 61.7585 50.4481 62.1035 50.1035C62.4481 49.7585 62.6205 49.3411 62.6205 48.8515C62.6205 48.3618 62.4481 47.9445 62.1035 47.5995C61.7585 47.2548 61.3411 47.0825 60.8515 47.0825C60.3618 47.0825 59.9445 47.2548 59.5995 47.5995C59.2548 47.9445 59.0825 48.3618 59.0825 48.8515C59.0825 49.3411 59.2548 49.7585 59.5995 50.1035C59.9445 50.4481 60.3618 50.6205 60.8515 50.6205ZM53.3515 46.3515C53.7771 46.3515 54.1335 46.2078 54.4205 45.9205C54.7078 45.6335 54.8515 45.2771 54.8515 44.8515C54.8515 44.4258 54.7078 44.0695 54.4205 43.7825C54.1335 43.4951 53.7771 43.3515 53.3515 43.3515H46.3515C45.9258 43.3515 45.5695 43.4951 45.2825 43.7825C44.9951 44.0695 44.8515 44.4258 44.8515 44.8515C44.8515 45.2771 44.9951 45.6335 45.2825 45.9205C45.5695 46.2078 45.9258 46.3515 46.3515 46.3515H53.3515Z" fill="#02981D"/>
</svg>
