<svg width="68" height="68" viewBox="0 0 68 68" fill="none" xmlns="http://www.w3.org/2000/svg">
<rect width="68" height="68" rx="34" fill="#ECE9FF"/>
<path d="M41.1809 38.7392C41.3896 39.6256 41.5 40.5499 41.5 41.5C41.5 48.1274 36.1274 53.5 29.5 53.5V43.9006M41.1809 38.7392C48.6488 33.2822 53.5 24.4575 53.5 14.5C43.5429 14.5004 34.7189 19.3517 29.2624 26.8195M41.1809 38.7392C37.7638 41.2362 33.7988 43.028 29.5 43.9006M29.2624 26.8195C28.3755 26.6106 27.4507 26.5 26.5 26.5C19.8726 26.5 14.5 31.8726 14.5 38.5H24.1014M29.2624 26.8195C26.7657 30.2365 24.974 34.2014 24.1014 38.5M29.5 43.9006C29.2932 43.9426 29.0856 43.9825 28.8772 44.0202C27.0634 42.582 25.4198 40.9384 23.9816 39.1245C24.0194 38.9156 24.0593 38.7074 24.1014 38.5M19.6238 43.2815C17.4243 44.9223 16 47.5448 16 50.5C16 50.9737 16.0366 51.4389 16.1071 51.8929C16.5611 51.9634 17.0263 52 17.5 52C20.4552 52 23.0777 50.5757 24.7185 48.3762M43 28C43 29.6569 41.6569 31 40 31C38.3431 31 37 29.6569 37 28C37 26.3431 38.3431 25 40 25C41.6569 25 43 26.3431 43 28Z" stroke="#655E8A" stroke-width="2" stroke-linecap="round" stroke-linejoin="round"/>
</svg>
