<svg width="68" height="126" viewBox="0 0 68 126" fill="none" xmlns="http://www.w3.org/2000/svg">
<path d="M23.7239 121.873C22.4758 121.063 21.6842 119.865 20.8211 118.536C17.0631 112.748 14.1745 106.169 12.3794 99.1071C8.61061 84.2813 8.87213 67.6377 17.2478 53.8264C22.0358 45.9312 30.3752 38.0065 38.9097 38.6713C43.7563 39.0487 47.1783 42.658 49.5455 47.2014C52.0824 52.0704 53.6287 57.9538 53.5075 63.8671C53.4137 68.44 51.7724 76.0444 46.4608 75.279C43.5147 74.8545 41.2094 72.494 39.4963 69.9523C35.9277 64.6574 34.6241 57.8983 34.5552 51.0432C34.4355 39.1271 38.3984 27.3817 46.3979 19.001C49.4373 15.8163 57.6136 9.87231 62.2188 8.23239" stroke="#3F3767" stroke-width="0.726293" stroke-linecap="round" stroke-linejoin="round"/>
</svg>
