<svg width="21" height="25" viewBox="0 0 21 25" fill="none" xmlns="http://www.w3.org/2000/svg">
<path d="M17.2459 13.3309C17.2697 11.4818 18.2628 9.73214 19.8381 8.76363C18.8443 7.34428 17.1797 6.44437 15.4478 6.39019C13.6007 6.1963 11.8099 7.4955 10.8686 7.4955C9.90914 7.4955 8.45989 6.40944 6.89928 6.44154C4.86511 6.50726 2.96874 7.66379 1.97907 9.4422C-0.148327 13.1255 1.43852 18.5386 3.47639 21.5159C4.49598 22.9738 5.68759 24.6023 7.24679 24.5445C8.77255 24.4812 9.3424 23.5716 11.1841 23.5716C13.0088 23.5716 13.5434 24.5445 15.1342 24.5078C16.7714 24.4812 17.803 23.0434 18.7868 21.5717C19.5194 20.533 20.0831 19.3849 20.4571 18.17C18.533 17.3562 17.2481 15.4199 17.2459 13.3309Z" fill="white"/>
<path d="M14.2411 4.43219C15.1337 3.36056 15.5735 1.98316 15.467 0.592505C14.1032 0.735747 12.8434 1.38756 11.9387 2.41808C11.054 3.42494 10.5936 4.7781 10.6806 6.1156C12.0449 6.12965 13.3861 5.49551 14.2411 4.43219Z" fill="white"/>
</svg>
