<svg width="190" height="48" viewBox="0 0 190 48" fill="none" xmlns="http://www.w3.org/2000/svg">
<g clip-path="url(#clip0_2821_24779)">
<path d="M190 16.1973H119.577V31.0537H190V16.1973Z" fill="url(#paint0_linear_2821_24779)"/>
<path d="M73.5682 18.3198L70.1454 28.7386H67.5851L65.2737 21.6751L62.9101 28.7386H60.3363L56.9116 18.3198H59.4141L61.7621 25.6438L64.2202 18.3198H66.4525L68.8334 25.6979L71.2606 18.3198H73.5682Z" fill="white"/>
<path d="M80.1841 18.3198H77.7589L73.0434 28.9315H75.4995L76.4623 26.6163H81.4653L82.428 28.9315H84.9459L80.1841 18.3198ZM77.317 24.6869L78.9647 20.7258L80.6105 24.6869H77.3151H77.317Z" fill="white"/>
<path d="M92.7581 23.5292H94.8804V27.743C94.3267 28.1791 93.6919 28.5051 92.9742 28.7289C92.2564 28.9527 91.5387 29.0627 90.8229 29.0627C90.0299 29.0627 89.2986 28.9315 88.6291 28.6691C87.9596 28.4067 87.3827 28.0343 86.8946 27.5501C86.4065 27.0658 86.0264 26.4947 85.7543 25.8425C85.4823 25.1904 85.3472 24.4727 85.3472 23.6913C85.3472 22.9099 85.4823 22.1921 85.7543 21.538C86.0264 20.8859 86.4123 20.3167 86.9081 19.8325C87.404 19.3482 87.9867 18.9739 88.6562 18.7115C89.3257 18.4491 90.0627 18.3179 90.8653 18.3179C91.7529 18.3179 92.5555 18.4722 93.2655 18.779C93.9775 19.0858 94.5775 19.5315 95.0637 20.1141L93.5877 21.538C93.2153 21.1329 92.814 20.8338 92.3818 20.6409C91.9516 20.446 91.4789 20.3515 90.9637 20.3515C90.4852 20.3515 90.0473 20.4325 89.6459 20.5946C89.2446 20.7586 88.8973 20.9882 88.606 21.2853C88.3146 21.5824 88.0908 21.9336 87.9326 22.3387C87.7744 22.7459 87.6953 23.1954 87.6953 23.6893C87.6953 24.1833 87.7744 24.6077 87.9326 25.0168C88.0908 25.4277 88.3146 25.7789 88.606 26.076C88.8973 26.3731 89.2408 26.6066 89.6382 26.7725C90.0337 26.9423 90.4717 27.0272 90.9502 27.0272C91.4287 27.0272 91.857 26.9481 92.2912 26.788C92.4474 26.732 92.6037 26.6606 92.7561 26.5777V23.5253L92.7581 23.5292Z" fill="white"/>
<path d="M96.4239 24.3009V22.7574H103.949V24.3009H96.4239ZM96.4239 28.7385V26.8091H105.492V28.7385H96.4239ZM97.7745 28.5456V22.4911C97.7745 21.6016 97.9713 20.8395 98.3668 20.2067C98.7624 19.5738 99.3335 19.0857 100.082 18.7442C100.831 18.4027 101.734 18.2329 102.791 18.2329C103.406 18.2329 103.974 18.2908 104.491 18.4046C105.008 18.5185 105.467 18.694 105.868 18.9314L105.114 20.8164C104.786 20.6196 104.421 20.4768 104.022 20.3938C103.623 20.3089 103.212 20.2684 102.791 20.2684C101.981 20.2684 101.359 20.4517 100.929 20.8183C100.499 21.1849 100.283 21.729 100.283 22.4506V28.5494H97.7745V28.5456Z" fill="white"/>
<path d="M110.387 28.9778C109.555 28.9778 108.757 28.8659 107.991 28.644C107.225 28.4221 106.607 28.1327 106.142 27.7757L106.958 25.966C107.394 26.2824 107.917 26.5429 108.531 26.7454C109.144 26.948 109.762 27.0503 110.385 27.0503C110.86 27.0503 111.244 27.0001 111.535 26.9017C111.826 26.8033 112.042 26.6721 112.181 26.5081C112.32 26.3441 112.39 26.155 112.39 25.937C112.39 25.6611 112.282 25.4392 112.064 25.2772C111.846 25.1132 111.556 24.98 111.195 24.8758C110.835 24.7717 110.441 24.6733 110.017 24.5787C109.59 24.4842 109.164 24.3703 108.733 24.2372C108.303 24.1041 107.908 23.9247 107.547 23.7028C107.186 23.4809 106.899 23.1876 106.686 22.8268C106.474 22.466 106.368 22.0126 106.368 21.4685C106.368 20.8743 106.526 20.334 106.843 19.844C107.159 19.3539 107.641 18.9642 108.29 18.6709C108.938 18.3795 109.752 18.2329 110.73 18.2329C111.383 18.2329 112.029 18.312 112.668 18.4702C113.306 18.6284 113.862 18.8561 114.336 19.1532L113.58 20.963C113.115 20.6968 112.635 20.4961 112.141 20.363C111.645 20.2298 111.17 20.1623 110.717 20.1623C110.264 20.1623 109.86 20.2144 109.575 20.3186C109.287 20.4228 109.077 20.5636 108.944 20.7411C108.811 20.9186 108.743 21.1174 108.743 21.3354C108.743 21.6132 108.851 21.8351 109.069 22.003C109.287 22.1708 109.575 22.302 109.93 22.3966C110.287 22.4911 110.682 22.5856 111.116 22.6783C111.552 22.7728 111.983 22.8886 112.407 23.0275C112.832 23.1664 113.223 23.342 113.58 23.5542C113.937 23.7664 114.227 24.0539 114.448 24.4147C114.67 24.7755 114.782 25.2231 114.782 25.7576C114.782 26.3422 114.622 26.8747 114.3 27.3609C113.978 27.8452 113.491 28.2369 112.837 28.534C112.185 28.8311 111.369 28.9797 110.389 28.9797L110.387 28.9778Z" fill="white"/>
<path d="M128.452 20.2492V18.3198H120.542V28.7386H123.05V25.0727H127.873V23.1433H123.05V20.2492H128.452Z" fill="white"/>
<path d="M132.504 18.3198H129.996V28.7386H132.504V18.3198Z" fill="white"/>
<path d="M142.361 28.7386H144.466V18.3198H142.151V24.6406L137.113 18.3198H135.012V28.7386H137.327V22.4179L142.361 28.7386Z" fill="white"/>
<path d="M148.89 26.6163H153.893L154.856 28.9315H157.372L152.612 18.3198H150.187L145.469 28.9315H147.927L148.89 26.6163ZM151.393 20.7258L153.038 24.6869H149.743L151.391 20.7258H151.393Z" fill="white"/>
<path d="M160.673 22.4159L165.707 28.7386H167.812V18.3198H165.497V24.6406L160.463 18.3198H158.358V28.7386H160.673V22.4159Z" fill="white"/>
<path d="M173.033 21.2023C173.33 20.9052 173.681 20.6756 174.086 20.5116C174.491 20.3476 174.937 20.2665 175.421 20.2665C175.937 20.2665 176.413 20.3707 176.853 20.5772C177.293 20.7855 177.687 21.0923 178.032 21.4975L179.591 20.0736C179.095 19.4697 178.483 19.0124 177.75 18.7018C177.019 18.3892 176.203 18.2349 175.302 18.2349C174.501 18.2349 173.756 18.3661 173.069 18.6285C172.383 18.8909 171.783 19.2632 171.273 19.7494C170.764 20.2337 170.368 20.8029 170.087 21.455C169.805 22.1072 169.664 22.8249 169.664 23.6063C169.664 24.3877 169.805 25.1055 170.087 25.7576C170.368 26.4097 170.762 26.9789 171.265 27.4632C171.769 27.9475 172.365 28.3218 173.054 28.5842C173.741 28.8466 174.486 28.9778 175.286 28.9778C176.197 28.9778 177.017 28.8196 177.75 28.5031C178.481 28.1867 179.095 27.7275 179.591 27.1236L178.032 25.6997C177.685 26.1049 177.293 26.4136 176.853 26.6278C176.413 26.84 175.935 26.9461 175.421 26.9461C174.937 26.9461 174.491 26.8651 174.086 26.7011C173.681 26.5371 173.33 26.3075 173.033 26.0104C172.736 25.7132 172.506 25.3621 172.342 24.9569C172.178 24.5517 172.097 24.1022 172.097 23.6063C172.097 23.1105 172.178 22.6609 172.342 22.2557C172.506 21.8506 172.736 21.4994 173.033 21.2023Z" fill="white"/>
<path d="M189.035 20.2492V18.3198H181.125V28.7386H189.228V26.8092H183.633V24.4939H188.456V22.5645H183.633V20.2492H189.035Z" fill="white"/>
<path d="M37.7083 0H9.54283C4.29485 0 0 4.29485 0 9.54283V37.7083C0 42.9563 4.29485 47.2511 9.54283 47.2511H37.7083C42.9563 47.2511 47.2511 42.9563 47.2511 37.7083V9.54283C47.2511 4.29485 42.9563 0 37.7083 0ZM2.96935 12.5431C2.96935 10.741 4.42798 9.28236 6.23005 9.28236C8.03211 9.28236 9.48881 10.741 9.48881 12.5431C9.48881 14.3451 8.03018 15.8018 6.23005 15.8018C4.42991 15.8018 2.96935 14.3432 2.96935 12.5431ZM41.6693 12.6087C41.6346 12.516 36.9192 28.424 35.4933 33.2436C35.2251 34.1524 34.8721 35.0322 34.436 35.8734L34.4148 35.912C33.9421 36.8246 33.261 37.6195 32.4063 38.1887C30.1836 39.6666 28.4182 39.1939 27.2239 38.3894C26.2592 37.7391 25.555 36.7706 25.1768 35.6728L24.7523 34.4476L23.6043 30.8377L21.8872 26.1608L19.1918 34.9762C18.7789 36.1609 17.7891 37.7816 17.0308 38.2639C15.0474 39.5258 12.4196 39.1495 10.8182 37.4304C9.62773 36.1512 9.08364 34.6097 9.08364 34.6097L5.72068 23.394C5.10134 21.3566 5.59334 20.0677 6.28793 19.2747C6.99216 18.4702 8.04562 18.0689 9.11451 18.0997C11.972 18.1827 12.819 20.2163 12.9367 20.5636C12.9367 20.5636 12.9367 20.5732 12.9405 20.579C12.9405 20.5848 12.9444 20.5887 12.9463 20.5925C12.9463 20.5925 12.9463 20.6022 12.9502 20.6041C12.9502 20.6118 12.954 20.6118 12.954 20.6118C13.1257 21.1463 14.5014 25.582 14.5014 25.582L17.1235 17.5556C17.1235 17.5556 17.1235 17.5479 17.1235 17.546C17.1235 17.546 17.1235 17.546 17.1235 17.5421C17.1698 17.3685 17.4457 16.398 17.957 15.5722C19.925 12.4041 24.8951 13.0949 26.6817 16.371C26.9962 16.9498 27.1313 17.3801 27.1313 17.3801L29.7572 25.9119L34.2681 11.5552C34.5479 10.6947 34.9319 10.0213 35.3505 9.49846C36.8362 7.64044 39.6087 7.63851 41.1388 9.4618C41.6037 10.0194 41.76 10.7603 41.8044 11.3217C41.8121 11.4124 41.816 11.505 41.816 11.5957C41.816 11.9353 41.7639 12.2749 41.6693 12.6048V12.6087Z" fill="url(#paint1_linear_2821_24779)"/>
<path d="M10.4014 18.0536C10.4014 18.0536 10.4014 18.0536 10.3975 18.0459C10.3975 18.0459 10.3937 18.0401 10.3937 18.0363C10.3937 18.0363 10.3898 18.0266 10.3879 18.0208C10.3879 18.015 10.384 18.0112 10.384 18.0073C10.384 18.0073 10.3879 18.0131 10.3879 18.015C10.3918 18.0228 10.3937 18.0285 10.3956 18.0363C10.3995 18.044 10.3995 18.0498 10.4014 18.0536Z" fill="url(#paint2_linear_2821_24779)"/>
</g>
<defs>
<linearGradient id="paint0_linear_2821_24779" x1="119.577" y1="23.6255" x2="190" y2="23.6255" gradientUnits="userSpaceOnUse">
<stop stop-color="#02D432"/>
<stop offset="1" stop-color="#04C72E"/>
</linearGradient>
<linearGradient id="paint1_linear_2821_24779" x1="9.23991" y1="-1.2927" x2="38.0131" y2="48.5438" gradientUnits="userSpaceOnUse">
<stop stop-color="#02D432"/>
<stop offset="1" stop-color="#05C12B"/>
</linearGradient>
<linearGradient id="paint2_linear_2821_24779" x1="10.386" y1="18.0305" x2="10.4014" y2="18.0305" gradientUnits="userSpaceOnUse">
<stop stop-color="#80C245"/>
<stop offset="0.28" stop-color="#76C047"/>
<stop offset="0.74" stop-color="#5EBA4C"/>
<stop offset="1" stop-color="#4DB751"/>
</linearGradient>
<clipPath id="clip0_2821_24779">
<rect width="190" height="47.2511" fill="white"/>
</clipPath>
</defs>
</svg>
