<svg width="28" height="28" viewBox="0 0 28 28" fill="none" xmlns="http://www.w3.org/2000/svg">
<path d="M1 7C1 18.0457 9.9543 27 21 27H24C25.6569 27 27 25.6569 27 24V22.1712C27 21.4829 26.5316 20.8829 25.8638 20.716L19.9662 19.2416C19.3807 19.0952 18.7645 19.314 18.4024 19.7968L17.1088 21.5216C16.7334 22.0222 16.084 22.2435 15.4965 22.0283C11.0872 20.4131 7.58687 16.9128 5.97168 12.5035C5.75645 11.916 5.97781 11.2666 6.4784 10.8912L8.20323 9.59758C8.68604 9.23547 8.90482 8.61927 8.75844 8.03378L7.28405 2.1362C7.11711 1.46845 6.51714 1 5.82884 1H4C2.34315 1 1 2.34315 1 4V7Z" stroke="#171717" stroke-width="1.5" stroke-linecap="round" stroke-linejoin="round"/>
</svg>
