<svg width="64" height="64" viewBox="0 0 64 64" fill="none" xmlns="http://www.w3.org/2000/svg">
<mask id="path-1-inside-1_2693_31928" fill="white">
<path d="M0 12C0 5.37258 5.37258 0 12 0H52C58.6274 0 64 5.37258 64 12V52C64 58.6274 58.6274 64 52 64H12C5.37258 64 0 58.6274 0 52V12Z"/>
</mask>
<path d="M0 12C0 5.37258 5.37258 0 12 0H52C58.6274 0 64 5.37258 64 12V52C64 58.6274 58.6274 64 52 64H12C5.37258 64 0 58.6274 0 52V12Z" fill="white"/>
<path d="M0 0H64H0ZM68 52C68 60.8366 60.8366 68 52 68H16C7.16344 68 0 60.8366 0 52C0 56.4183 5.37258 60 12 60H52C56.4183 60 60 56.4183 60 52H68ZM0 64V0V64ZM52 0C60.8366 0 68 7.16344 68 16V52C68 60.8366 60.8366 68 52 68V60C56.4183 60 60 56.4183 60 52V12C60 5.37258 56.4183 0 52 0Z" fill="black" mask="url(#path-1-inside-1_2693_31928)"/>
<path d="M39.9999 40.9589C40.3299 40.9861 40.6637 41 41.0008 41C42.3985 41 43.7405 40.761 44.988 40.3217C44.9965 40.2156 45.0008 40.1083 45.0008 40C45.0008 37.7909 43.2099 36 41.0008 36C40.1639 36 39.3871 36.257 38.745 36.6963M39.9999 40.9589C40 40.9726 40 40.9863 40 41C40 41.3 39.9835 41.5961 39.9513 41.8875C37.609 43.2315 34.8942 44 32 44C29.1058 44 26.391 43.2315 24.0487 41.8875C24.0165 41.5961 24 41.3 24 41C24 40.9863 24 40.9727 24.0001 40.959M39.9999 40.9589C39.992 39.3901 39.5326 37.9282 38.745 36.6963M38.745 36.6963C37.3238 34.4736 34.834 33 32 33C29.1664 33 26.6769 34.4732 25.2556 36.6955M25.2556 36.6955C24.6136 36.2567 23.8373 36 23.001 36C20.7918 36 19.001 37.7909 19.001 40C19.001 40.1083 19.0053 40.2156 19.0137 40.3217C20.2612 40.761 21.6032 41 23.001 41C23.3374 41 23.6707 40.9862 24.0001 40.959M25.2556 36.6955C24.4676 37.9275 24.008 39.3899 24.0001 40.959M36 25C36 27.2091 34.2091 29 32 29C29.7909 29 28 27.2091 28 25C28 22.7909 29.7909 21 32 21C34.2091 21 36 22.7909 36 25ZM44 29C44 30.6569 42.6569 32 41 32C39.3431 32 38 30.6569 38 29C38 27.3431 39.3431 26 41 26C42.6569 26 44 27.3431 44 29ZM26 29C26 30.6569 24.6569 32 23 32C21.3431 32 20 30.6569 20 29C20 27.3431 21.3431 26 23 26C24.6569 26 26 27.3431 26 29Z" stroke="#3F3767" stroke-width="1.5" stroke-linecap="round" stroke-linejoin="round"/>
</svg>
