<svg width="64" height="64" viewBox="0 0 64 64" fill="none" xmlns="http://www.w3.org/2000/svg">
<mask id="path-1-inside-1_2693_32274" fill="white">
<path d="M0 12C0 5.37258 5.37258 0 12 0H52C58.6274 0 64 5.37258 64 12V52C64 58.6274 58.6274 64 52 64H12C5.37258 64 0 58.6274 0 52V12Z"/>
</mask>
<path d="M0 12C0 5.37258 5.37258 0 12 0H52C58.6274 0 64 5.37258 64 12V52C64 58.6274 58.6274 64 52 64H12C5.37258 64 0 58.6274 0 52V12Z" fill="white"/>
<path d="M0 0H64H0ZM68 52C68 60.8366 60.8366 68 52 68H16C7.16344 68 0 60.8366 0 52C0 56.4183 5.37258 60 12 60H52C56.4183 60 60 56.4183 60 52H68ZM0 64V0V64ZM52 0C60.8366 0 68 7.16344 68 16V52C68 60.8366 60.8366 68 52 68V60C56.4183 60 60 56.4183 60 52V12C60 5.37258 56.4183 0 52 0Z" fill="#015B11" mask="url(#path-1-inside-1_2693_32274)"/>
<path d="M33.2333 27.9154L40.1103 21.0721C40.295 20.8874 40.5215 20.7937 40.7897 20.7911C41.0581 20.7886 41.2915 20.8865 41.4897 21.0847C41.6743 21.2694 41.7667 21.5014 41.7667 21.7807C41.7667 22.0603 41.6743 22.2924 41.4897 22.4771L34.077 29.8897C33.8359 30.1308 33.5547 30.2514 33.2333 30.2514C32.912 30.2514 32.6308 30.1308 32.3897 29.8897L28.7437 26.2437C28.5455 26.0455 28.4476 25.8113 28.45 25.5411C28.4527 25.2711 28.5573 25.0369 28.764 24.8387C28.9625 24.6541 29.1967 24.5604 29.4667 24.5577C29.7367 24.5553 29.9709 24.6532 30.1693 24.8514L33.2333 27.9154ZM34.4973 43.4694C34.5402 43.4865 34.5787 43.4951 34.6127 43.4951C34.6469 43.4951 34.6855 43.4865 34.7283 43.4694L42.5717 41.0411C42.5035 40.7386 42.3616 40.5066 42.146 40.3451C41.9307 40.1835 41.6897 40.1027 41.423 40.1027H34.895C34.3121 40.1027 33.8172 40.0805 33.4103 40.0361C33.0035 39.9916 32.5855 39.8942 32.1563 39.7437L30.064 39.0591C29.794 38.9735 29.6005 38.8026 29.4833 38.5464C29.3662 38.2899 29.3505 38.0266 29.436 37.7564C29.5213 37.4948 29.6867 37.3022 29.932 37.1784C30.1773 37.0544 30.435 37.0352 30.705 37.1207L32.4383 37.7284C32.8419 37.8566 33.2932 37.9476 33.7923 38.0014C34.2915 38.0552 34.9393 38.0889 35.736 38.1027H36.0897C36.0897 37.7727 36.0153 37.4881 35.8667 37.2487C35.718 37.0094 35.5222 36.8478 35.2793 36.7641L27.5437 33.9231C27.5179 33.9146 27.4943 33.9083 27.473 33.9041C27.4517 33.8996 27.4282 33.8974 27.4027 33.8974H24.936V40.7694L34.4973 43.4694ZM33.977 45.4284L24.936 42.8361C24.7838 43.3881 24.4743 43.8312 24.0077 44.1654C23.541 44.4996 23.047 44.6667 22.5257 44.6667H20.6797C20.0146 44.6667 19.4466 44.4313 18.9757 43.9604C18.5048 43.4893 18.2693 42.9213 18.2693 42.2564V34.3077C18.2693 33.6428 18.5048 33.0749 18.9757 32.6041C19.4466 32.1332 20.0146 31.8977 20.6797 31.8977H27.3897C27.5281 31.8977 27.6688 31.9122 27.8117 31.9411C27.9543 31.9702 28.088 32.0069 28.2127 32.0514L35.982 34.9131C36.5871 35.1368 37.0897 35.5329 37.4897 36.1014C37.8897 36.6698 38.0897 37.3369 38.0897 38.1027H41.423C42.3803 38.1027 43.1602 38.4117 43.7627 39.0297C44.3653 39.6475 44.6667 40.4496 44.6667 41.4361C44.6667 41.8138 44.5667 42.1181 44.3667 42.3487C44.1667 42.5796 43.8641 42.7625 43.459 42.8974L35.3693 45.4077C35.1505 45.4795 34.9205 45.5175 34.6793 45.5217C34.4385 45.5262 34.2043 45.4951 33.977 45.4284ZM20.2693 42.2564C20.2693 42.3762 20.3078 42.4745 20.3847 42.5514C20.4616 42.6283 20.5599 42.6667 20.6797 42.6667H22.5257C22.6452 42.6667 22.7436 42.6347 22.8207 42.5707C22.8976 42.5065 22.936 42.4017 22.936 42.2564V33.8974H20.6797C20.5599 33.8974 20.4616 33.9359 20.3847 34.0131C20.3078 34.0899 20.2693 34.1882 20.2693 34.3077V42.2564Z" fill="#015B11"/>
</svg>
