<svg width="64" height="64" viewBox="0 0 64 64" fill="none" xmlns="http://www.w3.org/2000/svg">
<mask id="path-1-inside-1_2693_33190" fill="white">
<path d="M0 12C0 5.37258 5.37258 0 12 0H52C58.6274 0 64 5.37258 64 12V52C64 58.6274 58.6274 64 52 64H12C5.37258 64 0 58.6274 0 52V12Z"/>
</mask>
<path d="M0 12C0 5.37258 5.37258 0 12 0H52C58.6274 0 64 5.37258 64 12V52C64 58.6274 58.6274 64 52 64H12C5.37258 64 0 58.6274 0 52V12Z" fill="white"/>
<path d="M0 0H64H0ZM68 52C68 60.8366 60.8366 68 52 68H16C7.16344 68 0 60.8366 0 52C0 56.4183 5.37258 60 12 60H52C56.4183 60 60 56.4183 60 52H68ZM0 64V0V64ZM52 0C60.8366 0 68 7.16344 68 16V52C68 60.8366 60.8366 68 52 68V60C56.4183 60 60 56.4183 60 52V12C60 5.37258 56.4183 0 52 0Z" fill="#02981D" mask="url(#path-1-inside-1_2693_33190)"/>
<path d="M36.7873 35.1595C36.9264 35.7504 37 36.3666 37 37C37 41.4183 33.4183 45 29 45V38.6004M36.7873 35.1595C41.7659 31.5215 45 25.6383 45 19C38.362 19.0003 32.4793 22.2345 28.8416 27.213M36.7873 35.1595C34.5092 36.8241 31.8658 38.0187 29 38.6004M28.8416 27.213C28.2504 27.0737 27.6338 27 27 27C22.5817 27 19 30.5817 19 35H25.401M28.8416 27.213C27.1771 29.491 25.9827 32.1343 25.401 35M29 38.6004C28.8621 38.6284 28.7237 38.655 28.5848 38.6801C27.3756 37.7213 26.2799 36.6256 25.3211 35.4164C25.3463 35.2771 25.3729 35.1383 25.401 35M22.4159 38.1877C20.9495 39.2816 20 41.0299 20 43C20 43.3158 20.0244 43.6259 20.0714 43.9286C20.3741 43.9756 20.6842 44 21 44C22.9701 44 24.7184 43.0505 25.8123 41.5841M38 28C38 29.1046 37.1046 30 36 30C34.8954 30 34 29.1046 34 28C34 26.8954 34.8954 26 36 26C37.1046 26 38 26.8954 38 28Z" stroke="#02981D" stroke-width="1.5" stroke-linecap="round" stroke-linejoin="round"/>
</svg>
