<svg width="64" height="64" viewBox="0 0 64 64" fill="none" xmlns="http://www.w3.org/2000/svg">
<mask id="path-1-inside-1_2693_32824" fill="white">
<path d="M0 12C0 5.37258 5.37258 0 12 0H52C58.6274 0 64 5.37258 64 12V52C64 58.6274 58.6274 64 52 64H12C5.37258 64 0 58.6274 0 52V12Z"/>
</mask>
<path d="M0 12C0 5.37258 5.37258 0 12 0H52C58.6274 0 64 5.37258 64 12V52C64 58.6274 58.6274 64 52 64H12C5.37258 64 0 58.6274 0 52V12Z" fill="white"/>
<path d="M0 0H64H0ZM68 52C68 60.8366 60.8366 68 52 68H16C7.16344 68 0 60.8366 0 52C0 56.4183 5.37258 60 12 60H52C56.4183 60 60 56.4183 60 52H68ZM0 64V0V64ZM52 0C60.8366 0 68 7.16344 68 16V52C68 60.8366 60.8366 68 52 68V60C56.4183 60 60 56.4183 60 52V12C60 5.37258 56.4183 0 52 0Z" fill="#171717" mask="url(#path-1-inside-1_2693_32824)"/>
<path d="M24.2717 43.3333C23.7863 43.3333 23.324 43.1683 22.8847 42.8383C22.4453 42.5085 22.1565 42.105 22.018 41.6279C21.4625 39.7101 21.0133 38.085 20.6707 36.7526C20.3278 35.4199 20.0572 34.2711 19.859 33.3063C19.6608 32.3414 19.5236 31.4995 19.4473 30.7806C19.3713 30.0619 19.3333 29.3573 19.3333 28.6666C19.3333 26.8101 19.9803 25.2349 21.2743 23.9409C22.5683 22.6469 24.1436 21.9999 26 21.9999H33C33.6 21.1999 34.3333 20.5555 35.2 20.0666C36.0667 19.5777 37 19.3333 38 19.3333C38.3676 19.3333 38.6817 19.4636 38.9423 19.7243C39.203 19.9849 39.3333 20.299 39.3333 20.6666C39.3333 20.7573 39.3209 20.8457 39.296 20.9319C39.2713 21.0184 39.2453 21.1043 39.218 21.1896C39.1205 21.4511 39.0265 21.734 38.936 22.0383C38.8453 22.3427 38.7607 22.729 38.682 23.1973L42.1513 26.6666H43.4613C43.8051 26.6666 44.0919 26.7816 44.3217 27.0116C44.5517 27.2414 44.6667 27.5281 44.6667 27.8719V33.9359C44.6667 34.199 44.5919 34.4331 44.4423 34.6383C44.2928 34.8434 44.0863 34.9929 43.823 35.0869L41.028 36.0076L39.3487 41.6126C39.188 42.1393 38.8957 42.5577 38.4717 42.8679C38.0479 43.1781 37.5659 43.3333 37.0257 43.3333H35.077C34.4121 43.3333 33.8441 43.0978 33.373 42.6269C32.9021 42.1558 32.6667 41.5878 32.6667 40.9229V40.6666H28.6667V40.9229C28.6667 41.5878 28.4312 42.1558 27.9603 42.6269C27.4892 43.0978 26.9212 43.3333 26.2563 43.3333H24.2717ZM24.3333 41.3333H26.2563C26.3761 41.3333 26.4745 41.2948 26.5513 41.2179C26.6282 41.141 26.6667 41.0427 26.6667 40.9229V38.6666H34.6667V40.9229C34.6667 41.0427 34.7051 41.141 34.782 41.2179C34.8589 41.2948 34.9572 41.3333 35.077 41.3333H37.0257C37.1197 41.3333 37.203 41.3076 37.2757 41.2563C37.3483 41.2049 37.3975 41.1323 37.423 41.0383L39.4 34.4666L42.6667 33.3666V28.6666H41.3333L36.6667 23.9999C36.6667 23.581 36.6966 23.1519 36.7563 22.7126C36.8161 22.2735 36.9059 21.8624 37.0257 21.4793C36.4068 21.6486 35.8466 21.9606 35.345 22.4153C34.8432 22.8699 34.4727 23.3981 34.2333 23.9999H26C24.7111 23.9999 23.6111 24.4555 22.7 25.3666C21.7889 26.2777 21.3333 27.3777 21.3333 28.6666C21.3333 29.5606 21.5581 31.0833 22.0077 33.2346C22.4572 35.3859 23.0915 37.9786 23.9103 41.0126C23.9359 41.1066 23.9893 41.1836 24.0707 41.2436C24.1518 41.3034 24.2393 41.3333 24.3333 41.3333ZM37.3333 30.5126C37.6598 30.5126 37.938 30.3977 38.168 30.1679C38.3978 29.9379 38.5127 29.6597 38.5127 29.3333C38.5127 29.0068 38.3978 28.7286 38.168 28.4986C37.938 28.2688 37.6598 28.1539 37.3333 28.1539C37.0069 28.1539 36.7287 28.2688 36.4987 28.4986C36.2689 28.7286 36.154 29.0068 36.154 29.3333C36.154 29.6597 36.2689 29.9379 36.4987 30.1679C36.7287 30.3977 37.0069 30.5126 37.3333 30.5126ZM32.3333 27.6666C32.6171 27.6666 32.8547 27.5708 33.046 27.3793C33.2376 27.1879 33.3333 26.9504 33.3333 26.6666C33.3333 26.3828 33.2376 26.1453 33.046 25.9539C32.8547 25.7624 32.6171 25.6666 32.3333 25.6666H27.6667C27.3829 25.6666 27.1453 25.7624 26.954 25.9539C26.7625 26.1453 26.6667 26.3828 26.6667 26.6666C26.6667 26.9504 26.7625 27.1879 26.954 27.3793C27.1453 27.5708 27.3829 27.6666 27.6667 27.6666H32.3333Z" fill="#171717"/>
</svg>
