<svg width="27" height="33" viewBox="0 0 27 33" fill="none" xmlns="http://www.w3.org/2000/svg">
<path d="M22.3075 17.5773C22.3401 15.0453 23.6999 12.6496 25.857 11.3234C24.4961 9.37989 22.2168 8.14766 19.8454 8.07346C17.3161 7.80798 14.8641 9.58695 13.5752 9.58695C12.2614 9.58695 10.2769 8.09982 8.14 8.14379C5.35462 8.23378 2.75795 9.81739 1.40281 12.2525C-1.51021 17.296 0.66264 24.7082 3.45307 28.7849C4.84919 30.7812 6.48084 33.0111 8.61583 32.932C10.705 32.8453 11.4853 31.5998 14.0072 31.5998C16.5056 31.5998 17.2377 32.932 19.416 32.8817C21.6578 32.8453 23.0703 30.8766 24.4174 28.8614C25.4205 27.439 26.1924 25.8669 26.7045 24.2034C24.0699 23.0891 22.3106 20.4378 22.3075 17.5773Z" fill="black"/>
<path d="M18.193 5.3924C19.4153 3.92503 20.0175 2.03897 19.8717 0.134766C18.0042 0.330906 16.2792 1.22343 15.0404 2.6345C13.829 4.01319 13.1985 5.86606 13.3177 7.69748C15.1858 7.71672 17.0224 6.84839 18.193 5.3924Z" fill="black"/>
</svg>
