<svg width="36" height="40" viewBox="0 0 36 40" fill="none" xmlns="http://www.w3.org/2000/svg">
<path fill-rule="evenodd" clip-rule="evenodd" d="M1.07415 1.93295C0.87706 2.34758 0.767548 2.86398 0.767548 3.47016V36.7816C0.767548 37.3892 0.877205 37.9056 1.07453 38.32L19.2666 20.1254L1.07415 1.93295ZM2.0242 39.3068C2.70423 39.63 3.60721 39.5514 4.59484 38.9913L25.9802 26.839L20.2348 21.0936L2.0242 39.3068ZM27.216 26.1384L33.9676 22.3024C36.0718 21.105 36.0718 19.1484 33.9676 17.9525L27.2131 14.1144L21.203 20.1253L27.216 26.1384ZM25.9783 13.4127L4.59484 1.26206C3.60714 0.70079 2.7041 0.62278 2.02404 0.946384L20.2347 19.1571L25.9783 13.4127Z" fill="black"/>
</svg>
