<svg width="28" height="29" viewBox="0 0 28 29" fill="none" xmlns="http://www.w3.org/2000/svg">
<path d="M11.0843 19.7051L10 23.5L8.91574 19.7051C8.34624 17.7118 6.78817 16.1538 4.79492 15.5843L1 14.5L4.79492 13.4157C6.78817 12.8462 8.34624 11.2882 8.91574 9.29492L10 5.5L11.0843 9.29492C11.6538 11.2882 13.2118 12.8462 15.2051 13.4157L19 14.5L15.2051 15.5843C13.2118 16.1538 11.6538 17.7118 11.0843 19.7051Z" stroke="#02981D" stroke-width="1.5" stroke-linecap="round" stroke-linejoin="round"/>
<path d="M22.3452 10.1194L22 11.5L21.6548 10.1194C21.2518 8.5071 19.9929 7.24822 18.3806 6.84515L17 6.5L18.3806 6.15485C19.9929 5.75178 21.2518 4.4929 21.6548 2.88062L22 1.5L22.3452 2.88062C22.7482 4.4929 24.0071 5.75178 25.6194 6.15485L27 6.5L25.6194 6.84515C24.0071 7.24822 22.7482 8.5071 22.3452 10.1194Z" stroke="#02981D" stroke-width="1.5" stroke-linecap="round" stroke-linejoin="round"/>
<path d="M20.5257 25.923L20 27.5L19.4743 25.923C19.1757 25.0272 18.4728 24.3243 17.577 24.0257L16 23.5L17.577 22.9743C18.4728 22.6757 19.1757 21.9728 19.4743 21.077L20 19.5L20.5257 21.077C20.8243 21.9728 21.5272 22.6757 22.423 22.9743L24 23.5L22.423 24.0257C21.5272 24.3243 20.8243 25.0272 20.5257 25.923Z" stroke="#02981D" stroke-width="1.5" stroke-linecap="round" stroke-linejoin="round"/>
</svg>
