<svg width="190" height="48" viewBox="0 0 190 48" fill="none" xmlns="http://www.w3.org/2000/svg">
<g clip-path="url(#clip0_2618_27437)">
<path d="M190 16.5718H119.577V31.4282H190V16.5718Z" fill="url(#paint0_linear_2618_27437)"/>
<path d="M73.5682 18.6941L70.1454 29.1129H67.5851L65.2737 22.0494L62.9101 29.1129H60.3363L56.9116 18.6941H59.4141L61.7621 26.0181L64.2202 18.6941H66.4525L68.8334 26.0722L71.2606 18.6941H73.5682Z" fill="#231F20"/>
<path d="M80.1841 18.6941H77.7589L73.0434 29.3058H75.4995L76.4623 26.9906H81.4653L82.428 29.3058H84.9459L80.1841 18.6941ZM77.317 25.0612L78.9647 21.1001L80.6105 25.0612H77.3151H77.317Z" fill="#231F20"/>
<path d="M92.7581 23.9035H94.8804V28.1173C94.3267 28.5534 93.6919 28.8795 92.9742 29.1033C92.2564 29.3271 91.5387 29.4371 90.8229 29.4371C90.0299 29.4371 89.2986 29.3059 88.6291 29.0435C87.9596 28.7811 87.3827 28.4087 86.8946 27.9244C86.4065 27.4401 86.0264 26.869 85.7543 26.2169C85.4823 25.5647 85.3472 24.847 85.3472 24.0656C85.3472 23.2842 85.4823 22.5664 85.7543 21.9124C86.0264 21.2602 86.4123 20.6911 86.9081 20.2068C87.404 19.7225 87.9867 19.3482 88.6562 19.0858C89.3257 18.8234 90.0627 18.6922 90.8653 18.6922C91.7529 18.6922 92.5555 18.8466 93.2655 19.1533C93.9775 19.4601 94.5775 19.9058 95.0637 20.4885L93.5877 21.9124C93.2153 21.5072 92.814 21.2081 92.3818 21.0152C91.9516 20.8203 91.4789 20.7258 90.9637 20.7258C90.4852 20.7258 90.0473 20.8068 89.6459 20.9689C89.2446 21.1329 88.8973 21.3625 88.606 21.6596C88.3146 21.9568 88.0908 22.3079 87.9326 22.7131C87.7744 23.1202 87.6953 23.5697 87.6953 24.0637C87.6953 24.5576 87.7744 24.9821 87.9326 25.3911C88.0908 25.8021 88.3146 26.1532 88.606 26.4503C88.8973 26.7475 89.2408 26.9809 89.6382 27.1468C90.0337 27.3166 90.4717 27.4015 90.9502 27.4015C91.4287 27.4015 91.857 27.3224 92.2912 27.1623C92.4474 27.1063 92.6037 27.0349 92.7561 26.952V23.8997L92.7581 23.9035Z" fill="#231F20"/>
<path d="M96.4239 24.6753V23.1318H103.949V24.6753H96.4239ZM96.4239 29.1129V27.1835H105.492V29.1129H96.4239ZM97.7745 28.92V22.8655C97.7745 21.976 97.9713 21.2139 98.3668 20.5811C98.7624 19.9482 99.3335 19.4601 100.082 19.1186C100.831 18.7771 101.734 18.6073 102.791 18.6073C103.406 18.6073 103.974 18.6652 104.491 18.779C105.008 18.8929 105.467 19.0684 105.868 19.3057L105.114 21.1908C104.786 20.994 104.421 20.8512 104.022 20.7682C103.623 20.6833 103.212 20.6428 102.791 20.6428C101.981 20.6428 101.359 20.8261 100.929 21.1927C100.499 21.5593 100.283 22.1034 100.283 22.825V28.9238H97.7745V28.92Z" fill="#231F20"/>
<path d="M110.387 29.3522C109.555 29.3522 108.757 29.2402 107.991 29.0184C107.225 28.7965 106.607 28.5071 106.142 28.1501L106.958 26.3404C107.394 26.6568 107.917 26.9172 108.531 27.1198C109.144 27.3224 109.762 27.4247 110.385 27.4247C110.86 27.4247 111.244 27.3745 111.535 27.2761C111.826 27.1777 112.042 27.0465 112.181 26.8825C112.32 26.7185 112.39 26.5294 112.39 26.3114C112.39 26.0355 112.282 25.8136 112.064 25.6516C111.846 25.4876 111.556 25.3544 111.195 25.2502C110.835 25.146 110.441 25.0477 110.017 24.9531C109.59 24.8586 109.164 24.7447 108.733 24.6116C108.303 24.4785 107.908 24.299 107.547 24.0772C107.186 23.8553 106.899 23.562 106.686 23.2012C106.474 22.8404 106.368 22.387 106.368 21.8429C106.368 21.2487 106.526 20.7084 106.843 20.2184C107.159 19.7283 107.641 19.3385 108.29 19.0453C108.938 18.7539 109.752 18.6073 110.73 18.6073C111.383 18.6073 112.029 18.6864 112.668 18.8446C113.306 19.0028 113.862 19.2305 114.336 19.5276L113.58 21.3374C113.115 21.0711 112.635 20.8705 112.141 20.7374C111.645 20.6042 111.17 20.5367 110.717 20.5367C110.264 20.5367 109.86 20.5888 109.575 20.693C109.287 20.7972 109.077 20.938 108.944 21.1155C108.811 21.293 108.743 21.4918 108.743 21.7098C108.743 21.9876 108.851 22.2095 109.069 22.3774C109.287 22.5452 109.575 22.6764 109.93 22.771C110.287 22.8655 110.682 22.96 111.116 23.0526C111.552 23.1472 111.983 23.263 112.407 23.4019C112.832 23.5408 113.223 23.7164 113.58 23.9286C113.937 24.1408 114.227 24.4283 114.448 24.7891C114.67 25.1499 114.782 25.5975 114.782 26.132C114.782 26.7166 114.622 27.2491 114.3 27.7353C113.978 28.2196 113.491 28.6113 112.837 28.9084C112.185 29.2055 111.369 29.3541 110.389 29.3541L110.387 29.3522Z" fill="#231F20"/>
<path d="M128.452 20.6235V18.6941H120.542V29.1129H123.05V25.447H127.873V23.5176H123.05V20.6235H128.452Z" fill="white"/>
<path d="M132.504 18.6941H129.996V29.1129H132.504V18.6941Z" fill="white"/>
<path d="M142.361 29.1129H144.466V18.6941H142.151V25.0149L137.113 18.6941H135.012V29.1129H137.327V22.7922L142.361 29.1129Z" fill="white"/>
<path d="M148.89 26.9906H153.893L154.856 29.3058H157.372L152.612 18.6941H150.187L145.469 29.3058H147.927L148.89 26.9906ZM151.393 21.1001L153.038 25.0612H149.743L151.391 21.1001H151.393Z" fill="white"/>
<path d="M160.673 22.7902L165.707 29.1129H167.812V18.6941H165.497V25.0149L160.463 18.6941H158.358V29.1129H160.673V22.7902Z" fill="white"/>
<path d="M173.033 21.5767C173.33 21.2795 173.681 21.0499 174.086 20.8859C174.491 20.7219 174.937 20.6409 175.421 20.6409C175.937 20.6409 176.413 20.7451 176.853 20.9515C177.293 21.1599 177.687 21.4667 178.032 21.8719L179.591 20.448C179.095 19.8441 178.483 19.3868 177.75 19.0762C177.019 18.7636 176.203 18.6093 175.302 18.6093C174.501 18.6093 173.756 18.7405 173.069 19.0029C172.383 19.2653 171.783 19.6376 171.273 20.1238C170.764 20.6081 170.368 21.1773 170.087 21.8294C169.805 22.4816 169.664 23.1993 169.664 23.9807C169.664 24.7621 169.805 25.4799 170.087 26.132C170.368 26.7841 170.762 27.3533 171.265 27.8376C171.769 28.3219 172.365 28.6962 173.054 28.9586C173.741 29.221 174.486 29.3522 175.286 29.3522C176.197 29.3522 177.017 29.194 177.75 28.8775C178.481 28.5611 179.095 28.1019 179.591 27.498L178.032 26.0741C177.685 26.4793 177.293 26.788 176.853 27.0022C176.413 27.2144 175.935 27.3205 175.421 27.3205C174.937 27.3205 174.491 27.2395 174.086 27.0755C173.681 26.9115 173.33 26.6819 173.033 26.3848C172.736 26.0876 172.506 25.7365 172.342 25.3313C172.178 24.9261 172.097 24.4766 172.097 23.9807C172.097 23.4849 172.178 23.0353 172.342 22.6301C172.506 22.225 172.736 21.8738 173.033 21.5767Z" fill="white"/>
<path d="M189.035 20.6235V18.6941H181.125V29.1129H189.228V27.1835H183.633V24.8682H188.456V22.9388H183.633V20.6235H189.035Z" fill="white"/>
<path d="M37.7083 0.374451H9.54283C4.29485 0.374451 0 4.6693 0 9.91728V38.0827C0 43.3307 4.29485 47.6256 9.54283 47.6256H37.7083C42.9563 47.6256 47.2511 43.3307 47.2511 38.0827V9.91728C47.2511 4.6693 42.9563 0.374451 37.7083 0.374451ZM2.96935 12.9175C2.96935 11.1154 4.42798 9.65681 6.23005 9.65681C8.03211 9.65681 9.48881 11.1154 9.48881 12.9175C9.48881 14.7196 8.03018 16.1763 6.23005 16.1763C4.42991 16.1763 2.96935 14.7176 2.96935 12.9175ZM41.6693 12.9831C41.6346 12.8905 36.9192 28.7984 35.4933 33.6181C35.2251 34.5268 34.8721 35.4066 34.436 36.2479L34.4148 36.2864C33.9421 37.1991 33.261 37.994 32.4063 38.5631C30.1836 40.0411 28.4182 39.5684 27.2239 38.7638C26.2592 38.1136 25.555 37.145 25.1768 36.0472L24.7523 34.822L23.6043 31.2121L21.8872 26.5352L19.1918 35.3507C18.7789 36.5353 17.7891 38.156 17.0308 38.6384C15.0474 39.9002 12.4196 39.524 10.8182 37.8049C9.62773 36.5257 9.08364 34.9841 9.08364 34.9841L5.72068 23.7685C5.10134 21.731 5.59334 20.4422 6.28793 19.6492C6.99216 18.8446 8.04562 18.4433 9.11451 18.4742C11.972 18.5572 12.819 20.5907 12.9367 20.938C12.9367 20.938 12.9367 20.9477 12.9405 20.9535C12.9405 20.9593 12.9444 20.9631 12.9463 20.967C12.9463 20.967 12.9463 20.9766 12.9502 20.9786C12.9502 20.9863 12.954 20.9863 12.954 20.9863C13.1257 21.5207 14.5014 25.9564 14.5014 25.9564L17.1235 17.9301C17.1235 17.9301 17.1235 17.9224 17.1235 17.9205C17.1235 17.9205 17.1235 17.9205 17.1235 17.9166C17.1698 17.7429 17.4457 16.7725 17.957 15.9467C19.925 12.7786 24.8951 13.4693 26.6817 16.7454C26.9962 17.3243 27.1313 17.7545 27.1313 17.7545L29.7572 26.2863L34.2681 11.9297C34.5479 11.0691 34.9319 10.3958 35.3505 9.87291C36.8362 8.01489 39.6087 8.01296 41.1388 9.83625C41.6037 10.3938 41.76 11.1347 41.8044 11.6962C41.8121 11.7869 41.816 11.8795 41.816 11.9702C41.816 12.3097 41.7639 12.6493 41.6693 12.9792V12.9831Z" fill="url(#paint1_linear_2618_27437)"/>
<path d="M10.4014 18.4279C10.4014 18.4279 10.4014 18.4279 10.3975 18.4202C10.3975 18.4202 10.3937 18.4144 10.3937 18.4105C10.3937 18.4105 10.3898 18.4009 10.3879 18.3951C10.3879 18.3893 10.384 18.3855 10.384 18.3816C10.384 18.3816 10.3879 18.3874 10.3879 18.3893C10.3918 18.397 10.3937 18.4028 10.3956 18.4105C10.3995 18.4183 10.3995 18.424 10.4014 18.4279Z" fill="url(#paint2_linear_2618_27437)"/>
</g>
<defs>
<linearGradient id="paint0_linear_2618_27437" x1="119.577" y1="24" x2="190" y2="24" gradientUnits="userSpaceOnUse">
<stop stop-color="#02D432"/>
<stop offset="1" stop-color="#04C72E"/>
</linearGradient>
<linearGradient id="paint1_linear_2618_27437" x1="9.23991" y1="-0.91825" x2="38.0131" y2="48.9183" gradientUnits="userSpaceOnUse">
<stop stop-color="#02D432"/>
<stop offset="1" stop-color="#05C12B"/>
</linearGradient>
<linearGradient id="paint2_linear_2618_27437" x1="10.386" y1="18.4047" x2="10.4014" y2="18.4047" gradientUnits="userSpaceOnUse">
<stop stop-color="#80C245"/>
<stop offset="0.28" stop-color="#76C047"/>
<stop offset="0.74" stop-color="#5EBA4C"/>
<stop offset="1" stop-color="#4DB751"/>
</linearGradient>
<clipPath id="clip0_2618_27437">
<rect width="190" height="47.2511" fill="white" transform="translate(0 0.374451)"/>
</clipPath>
</defs>
</svg>
