<svg width="375" height="294" viewBox="0 0 375 294" fill="none" xmlns="http://www.w3.org/2000/svg">
<mask id="path-1-inside-1_2898_21795" fill="white">
<path d="M0 24C0 10.7452 10.7452 0 24 0H351C364.255 0 375 10.7452 375 24V270C375 283.255 364.255 294 351 294H24C10.7452 294 0 283.255 0 270V24Z"/>
</mask>
<path d="M0 24C0 10.7452 10.7452 0 24 0H351C364.255 0 375 10.7452 375 24V270C375 283.255 364.255 294 351 294H24C10.7452 294 0 283.255 0 270V24Z" fill="#FFF9E2"/>
<path d="M0 0H375H0ZM383 270C383 287.673 368.673 302 351 302H32C14.3269 302 0 287.673 0 270C0 278.837 10.7452 286 24 286H351C359.837 286 367 278.837 367 270H383ZM0 294V0V294ZM351 0C368.673 0 383 14.3269 383 32V270C383 287.673 368.673 302 351 302V286C359.837 286 367 278.837 367 270V24C367 10.7452 359.837 0 351 0Z" fill="#967500" mask="url(#path-1-inside-1_2898_21795)"/>
<path opacity="0.2" d="M46.88 98.8C42.4533 98.8 38.4533 97.68 34.88 95.44C31.36 93.2 28.5867 89.9467 26.56 85.68C24.5333 81.36 23.52 76.1333 23.52 70C23.52 63.8667 24.5333 58.6667 26.56 54.4C28.5867 50.08 31.36 46.8 34.88 44.56C38.4533 42.32 42.4533 41.2 46.88 41.2C51.36 41.2 55.36 42.32 58.88 44.56C62.4 46.8 65.1733 50.08 67.2 54.4C69.28 58.6667 70.32 63.8667 70.32 70C70.32 76.1333 69.28 81.36 67.2 85.68C65.1733 89.9467 62.4 93.2 58.88 95.44C55.36 97.68 51.36 98.8 46.88 98.8ZM46.88 89.76C49.4933 89.76 51.76 89.0667 53.68 87.68C55.6 86.24 57.0933 84.0533 58.16 81.12C59.28 78.1867 59.84 74.48 59.84 70C59.84 65.4667 59.28 61.76 58.16 58.88C57.0933 55.9467 55.6 53.7867 53.68 52.4C51.76 50.96 49.4933 50.24 46.88 50.24C44.3733 50.24 42.1333 50.96 40.16 52.4C38.24 53.7867 36.72 55.9467 35.6 58.88C34.5333 61.76 34 65.4667 34 70C34 74.48 34.5333 78.1867 35.6 81.12C36.72 84.0533 38.24 86.24 40.16 87.68C42.1333 89.0667 44.3733 89.76 46.88 89.76ZM74.23 98V46L78.79 50.72H62.39V42H84.63V98H74.23Z" fill="#D6A700"/>
<path d="M28.708 161.28C27.1773 161.28 25.712 161.065 24.312 160.636C22.912 160.188 21.8013 159.619 20.98 158.928L22.24 156.1C23.024 156.716 23.9947 157.229 25.152 157.64C26.3093 158.051 27.4947 158.256 28.708 158.256C29.7347 158.256 30.5653 158.144 31.2 157.92C31.8347 157.696 32.3013 157.397 32.6 157.024C32.8987 156.632 33.048 156.193 33.048 155.708C33.048 155.111 32.8333 154.635 32.404 154.28C31.9747 153.907 31.4147 153.617 30.724 153.412C30.052 153.188 29.296 152.983 28.456 152.796C27.6347 152.609 26.804 152.395 25.964 152.152C25.1427 151.891 24.3867 151.564 23.696 151.172C23.024 150.761 22.4733 150.22 22.044 149.548C21.6147 148.876 21.4 148.017 21.4 146.972C21.4 145.908 21.68 144.937 22.24 144.06C22.8187 143.164 23.6867 142.455 24.844 141.932C26.02 141.391 27.504 141.12 29.296 141.12C30.472 141.12 31.6387 141.269 32.796 141.568C33.9533 141.867 34.9613 142.296 35.82 142.856L34.672 145.684C33.7947 145.161 32.8893 144.779 31.956 144.536C31.0227 144.275 30.1267 144.144 29.268 144.144C28.26 144.144 27.4387 144.265 26.804 144.508C26.188 144.751 25.7307 145.068 25.432 145.46C25.152 145.852 25.012 146.3 25.012 146.804C25.012 147.401 25.2173 147.887 25.628 148.26C26.0573 148.615 26.608 148.895 27.28 149.1C27.9707 149.305 28.736 149.511 29.576 149.716C30.416 149.903 31.2467 150.117 32.068 150.36C32.908 150.603 33.664 150.92 34.336 151.312C35.0267 151.704 35.5773 152.236 35.988 152.908C36.4173 153.58 36.632 154.429 36.632 155.456C36.632 156.501 36.3427 157.472 35.764 158.368C35.204 159.245 34.336 159.955 33.16 160.496C31.984 161.019 30.5 161.28 28.708 161.28ZM48.3894 145.88C49.584 145.88 50.648 146.113 51.5814 146.58C52.5334 147.047 53.28 147.765 53.8214 148.736C54.3627 149.688 54.6334 150.92 54.6334 152.432V161H51.1334V152.88C51.1334 151.555 50.816 150.565 50.1814 149.912C49.5654 149.259 48.6974 148.932 47.5774 148.932C46.756 148.932 46.028 149.1 45.3934 149.436C44.7587 149.772 44.264 150.276 43.9094 150.948C43.5734 151.601 43.4054 152.432 43.4054 153.44V161H39.9054V140.224H43.4054V150.08L42.6494 148.848C43.172 147.896 43.928 147.168 44.9174 146.664C45.9254 146.141 47.0827 145.88 48.3894 145.88ZM68.2853 161V157.976L68.0893 157.332V152.04C68.0893 151.013 67.7813 150.22 67.1653 149.66C66.5493 149.081 65.616 148.792 64.3653 148.792C63.5253 148.792 62.6947 148.923 61.8733 149.184C61.0707 149.445 60.3893 149.809 59.8293 150.276L58.4573 147.728C59.26 147.112 60.212 146.655 61.3133 146.356C62.4333 146.039 63.5907 145.88 64.7853 145.88C66.9507 145.88 68.6213 146.403 69.7973 147.448C70.992 148.475 71.5893 150.071 71.5893 152.236V161H68.2853ZM63.5813 161.196C62.4613 161.196 61.4813 161.009 60.6413 160.636C59.8013 160.244 59.148 159.712 58.6813 159.04C58.2333 158.349 58.0093 157.575 58.0093 156.716C58.0093 155.876 58.2053 155.12 58.5973 154.448C59.008 153.776 59.6707 153.244 60.5853 152.852C61.5 152.46 62.7133 152.264 64.2253 152.264H68.5653V154.588H64.4773C63.2827 154.588 62.48 154.784 62.0693 155.176C61.6587 155.549 61.4533 156.016 61.4533 156.576C61.4533 157.211 61.7053 157.715 62.2093 158.088C62.7133 158.461 63.4133 158.648 64.3093 158.648C65.168 158.648 65.9333 158.452 66.6053 158.06C67.296 157.668 67.7907 157.089 68.0893 156.324L68.6773 158.424C68.3413 159.301 67.7347 159.983 66.8573 160.468C65.9987 160.953 64.9067 161.196 63.5813 161.196ZM76.0812 161V146.048H79.4132V150.164L79.0212 148.96C79.4692 147.952 80.1692 147.187 81.1212 146.664C82.0918 146.141 83.2958 145.88 84.7332 145.88V149.212C84.5838 149.175 84.4438 149.156 84.3132 149.156C84.1825 149.137 84.0518 149.128 83.9212 149.128C82.5958 149.128 81.5412 149.52 80.7572 150.304C79.9732 151.069 79.5812 152.217 79.5812 153.748V161H76.0812ZM94.5935 161.196C92.9322 161.196 91.4762 160.869 90.2255 160.216C88.9935 159.544 88.0322 158.629 87.3415 157.472C86.6695 156.315 86.3335 154.999 86.3335 153.524C86.3335 152.031 86.6602 150.715 87.3135 149.576C87.9855 148.419 88.9002 147.513 90.0575 146.86C91.2335 146.207 92.5682 145.88 94.0615 145.88C95.5175 145.88 96.8149 146.197 97.9535 146.832C99.0922 147.467 99.9882 148.363 100.642 149.52C101.295 150.677 101.622 152.04 101.622 153.608C101.622 153.757 101.612 153.925 101.594 154.112C101.594 154.299 101.584 154.476 101.566 154.644H89.1055V152.32H99.7175L98.3455 153.048C98.3642 152.189 98.1869 151.433 97.8135 150.78C97.4402 150.127 96.9269 149.613 96.2735 149.24C95.6389 148.867 94.9015 148.68 94.0615 148.68C93.2029 148.68 92.4469 148.867 91.7935 149.24C91.1589 149.613 90.6549 150.136 90.2815 150.808C89.9269 151.461 89.7495 152.236 89.7495 153.132V153.692C89.7495 154.588 89.9549 155.381 90.3655 156.072C90.7762 156.763 91.3549 157.295 92.1015 157.668C92.8482 158.041 93.7069 158.228 94.6775 158.228C95.5175 158.228 96.2735 158.097 96.9455 157.836C97.6175 157.575 98.2149 157.164 98.7375 156.604L100.614 158.76C99.9415 159.544 99.0922 160.151 98.0655 160.58C97.0575 160.991 95.9002 161.196 94.5935 161.196ZM117.874 161V153.244L118.686 155.484L110.174 141.4H114.066L120.898 152.74H118.714L125.602 141.4H129.186L120.674 155.484L121.514 153.244V161H117.874ZM136.286 161.196C134.755 161.196 133.392 160.869 132.198 160.216C131.003 159.544 130.06 158.629 129.37 157.472C128.679 156.315 128.334 154.999 128.334 153.524C128.334 152.031 128.679 150.715 129.37 149.576C130.06 148.419 131.003 147.513 132.198 146.86C133.392 146.207 134.755 145.88 136.286 145.88C137.835 145.88 139.207 146.207 140.402 146.86C141.615 147.513 142.558 148.409 143.23 149.548C143.92 150.687 144.266 152.012 144.266 153.524C144.266 154.999 143.92 156.315 143.23 157.472C142.558 158.629 141.615 159.544 140.402 160.216C139.207 160.869 137.835 161.196 136.286 161.196ZM136.286 158.2C137.144 158.2 137.91 158.013 138.582 157.64C139.254 157.267 139.776 156.725 140.15 156.016C140.542 155.307 140.738 154.476 140.738 153.524C140.738 152.553 140.542 151.723 140.15 151.032C139.776 150.323 139.254 149.781 138.582 149.408C137.91 149.035 137.154 148.848 136.314 148.848C135.455 148.848 134.69 149.035 134.018 149.408C133.364 149.781 132.842 150.323 132.45 151.032C132.058 151.723 131.862 152.553 131.862 153.524C131.862 154.476 132.058 155.307 132.45 156.016C132.842 156.725 133.364 157.267 134.018 157.64C134.69 158.013 135.446 158.2 136.286 158.2ZM153.94 161.196C152.671 161.196 151.551 160.963 150.58 160.496C149.61 160.011 148.854 159.283 148.312 158.312C147.771 157.323 147.5 156.081 147.5 154.588V146.048H151V154.112C151 155.456 151.299 156.464 151.896 157.136C152.512 157.789 153.38 158.116 154.5 158.116C155.322 158.116 156.031 157.948 156.628 157.612C157.244 157.276 157.72 156.772 158.056 156.1C158.411 155.428 158.588 154.597 158.588 153.608V146.048H162.088V161H158.756V156.968L159.344 158.2C158.84 159.171 158.103 159.917 157.132 160.44C156.162 160.944 155.098 161.196 153.94 161.196ZM166.671 161V146.048H170.003V150.164L169.611 148.96C170.059 147.952 170.759 147.187 171.711 146.664C172.682 146.141 173.886 145.88 175.323 145.88V149.212C175.174 149.175 175.034 149.156 174.903 149.156C174.772 149.137 174.642 149.128 174.511 149.128C173.186 149.128 172.131 149.52 171.347 150.304C170.563 151.069 170.171 152.217 170.171 153.748V161H166.671ZM195.575 161.28C194.082 161.28 192.691 161.037 191.403 160.552C190.134 160.048 189.023 159.348 188.071 158.452C187.138 157.537 186.41 156.464 185.887 155.232C185.364 154 185.103 152.656 185.103 151.2C185.103 149.744 185.364 148.4 185.887 147.168C186.41 145.936 187.147 144.872 188.099 143.976C189.051 143.061 190.162 142.361 191.431 141.876C192.7 141.372 194.091 141.12 195.603 141.12C197.208 141.12 198.674 141.4 199.999 141.96C201.324 142.501 202.444 143.313 203.359 144.396L201.007 146.608C200.298 145.843 199.504 145.273 198.627 144.9C197.75 144.508 196.798 144.312 195.771 144.312C194.744 144.312 193.802 144.48 192.943 144.816C192.103 145.152 191.366 145.628 190.731 146.244C190.115 146.86 189.63 147.588 189.275 148.428C188.939 149.268 188.771 150.192 188.771 151.2C188.771 152.208 188.939 153.132 189.275 153.972C189.63 154.812 190.115 155.54 190.731 156.156C191.366 156.772 192.103 157.248 192.943 157.584C193.802 157.92 194.744 158.088 195.771 158.088C196.798 158.088 197.75 157.901 198.627 157.528C199.504 157.136 200.298 156.548 201.007 155.764L203.359 158.004C202.444 159.068 201.324 159.88 199.999 160.44C198.674 161 197.199 161.28 195.575 161.28ZM212.657 161.196C211.126 161.196 209.763 160.869 208.569 160.216C207.374 159.544 206.431 158.629 205.741 157.472C205.05 156.315 204.705 154.999 204.705 153.524C204.705 152.031 205.05 150.715 205.741 149.576C206.431 148.419 207.374 147.513 208.569 146.86C209.763 146.207 211.126 145.88 212.657 145.88C214.206 145.88 215.578 146.207 216.773 146.86C217.986 147.513 218.929 148.409 219.601 149.548C220.291 150.687 220.637 152.012 220.637 153.524C220.637 154.999 220.291 156.315 219.601 157.472C218.929 158.629 217.986 159.544 216.773 160.216C215.578 160.869 214.206 161.196 212.657 161.196ZM212.657 158.2C213.515 158.2 214.281 158.013 214.953 157.64C215.625 157.267 216.147 156.725 216.521 156.016C216.913 155.307 217.109 154.476 217.109 153.524C217.109 152.553 216.913 151.723 216.521 151.032C216.147 150.323 215.625 149.781 214.953 149.408C214.281 149.035 213.525 148.848 212.685 148.848C211.826 148.848 211.061 149.035 210.389 149.408C209.735 149.781 209.213 150.323 208.821 151.032C208.429 151.723 208.233 152.553 208.233 153.524C208.233 154.476 208.429 155.307 208.821 156.016C209.213 156.725 209.735 157.267 210.389 157.64C211.061 158.013 211.817 158.2 212.657 158.2ZM230.312 161.196C228.874 161.196 227.577 160.879 226.42 160.244C225.281 159.591 224.385 158.695 223.732 157.556C223.078 156.417 222.752 155.073 222.752 153.524C222.752 151.975 223.078 150.631 223.732 149.492C224.385 148.353 225.281 147.467 226.42 146.832C227.577 146.197 228.874 145.88 230.312 145.88C231.562 145.88 232.682 146.16 233.672 146.72C234.661 147.261 235.445 148.092 236.024 149.212C236.602 150.332 236.892 151.769 236.892 153.524C236.892 155.26 236.612 156.697 236.052 157.836C235.492 158.956 234.717 159.796 233.728 160.356C232.738 160.916 231.6 161.196 230.312 161.196ZM230.732 158.2C231.572 158.2 232.318 158.013 232.972 157.64C233.644 157.267 234.176 156.725 234.568 156.016C234.978 155.307 235.184 154.476 235.184 153.524C235.184 152.553 234.978 151.723 234.568 151.032C234.176 150.323 233.644 149.781 232.972 149.408C232.318 149.035 231.572 148.848 230.732 148.848C229.892 148.848 229.136 149.035 228.464 149.408C227.81 149.781 227.278 150.323 226.868 151.032C226.476 151.723 226.28 152.553 226.28 153.524C226.28 154.476 226.476 155.307 226.868 156.016C227.278 156.725 227.81 157.267 228.464 157.64C229.136 158.013 229.892 158.2 230.732 158.2ZM235.268 161V157.472L235.408 153.496L235.128 149.52V140.224H238.6V161H235.268ZM250.234 161.196C248.573 161.196 247.117 160.869 245.866 160.216C244.634 159.544 243.673 158.629 242.982 157.472C242.31 156.315 241.974 154.999 241.974 153.524C241.974 152.031 242.301 150.715 242.954 149.576C243.626 148.419 244.541 147.513 245.698 146.86C246.874 146.207 248.209 145.88 249.702 145.88C251.158 145.88 252.455 146.197 253.594 146.832C254.733 147.467 255.629 148.363 256.282 149.52C256.935 150.677 257.262 152.04 257.262 153.608C257.262 153.757 257.253 153.925 257.234 154.112C257.234 154.299 257.225 154.476 257.206 154.644H244.746V152.32H255.358L253.986 153.048C254.005 152.189 253.827 151.433 253.454 150.78C253.081 150.127 252.567 149.613 251.914 149.24C251.279 148.867 250.542 148.68 249.702 148.68C248.843 148.68 248.087 148.867 247.434 149.24C246.799 149.613 246.295 150.136 245.922 150.808C245.567 151.461 245.39 152.236 245.39 153.132V153.692C245.39 154.588 245.595 155.381 246.006 156.072C246.417 156.763 246.995 157.295 247.742 157.668C248.489 158.041 249.347 158.228 250.318 158.228C251.158 158.228 251.914 158.097 252.586 157.836C253.258 157.575 253.855 157.164 254.378 156.604L256.254 158.76C255.582 159.544 254.733 160.151 253.706 160.58C252.698 160.991 251.541 161.196 250.234 161.196Z" fill="#967500"/>
<path d="M22.28 206V192H23.76V206H22.28ZM33.3752 195.4C34.2285 195.4 34.9752 195.567 35.6152 195.9C36.2685 196.22 36.7752 196.713 37.1352 197.38C37.5085 198.047 37.6952 198.887 37.6952 199.9V206H36.2752V200.04C36.2752 198.933 35.9952 198.1 35.4352 197.54C34.8885 196.967 34.1152 196.68 33.1152 196.68C32.3685 196.68 31.7152 196.833 31.1552 197.14C30.6085 197.433 30.1818 197.867 29.8752 198.44C29.5818 199 29.4352 199.68 29.4352 200.48V206H28.0152V195.5H29.3752V198.38L29.1552 197.84C29.4885 197.08 30.0218 196.487 30.7552 196.06C31.4885 195.62 32.3618 195.4 33.3752 195.4ZM44.0355 206L39.3755 195.5H40.8555L45.1355 205.24H44.4355L48.7755 195.5H50.1755L45.4955 206H44.0355ZM52.1753 206V195.5H53.5953V206H52.1753ZM52.8953 193.18C52.602 193.18 52.3553 193.08 52.1553 192.88C51.9553 192.68 51.8553 192.44 51.8553 192.16C51.8553 191.88 51.9553 191.647 52.1553 191.46C52.3553 191.26 52.602 191.16 52.8953 191.16C53.1886 191.16 53.4353 191.253 53.6353 191.44C53.8353 191.627 53.9353 191.86 53.9353 192.14C53.9353 192.433 53.8353 192.68 53.6353 192.88C53.4486 193.08 53.202 193.18 52.8953 193.18ZM60.8664 206.1C59.8797 206.1 59.1197 205.833 58.5864 205.3C58.0531 204.767 57.7864 204.013 57.7864 203.04V193.18H59.2064V202.96C59.2064 203.573 59.3597 204.047 59.6664 204.38C59.9864 204.713 60.4397 204.88 61.0264 204.88C61.6531 204.88 62.1731 204.7 62.5864 204.34L63.0864 205.36C62.8064 205.613 62.4664 205.8 62.0664 205.92C61.6797 206.04 61.2797 206.1 60.8664 206.1ZM55.9064 196.68V195.5H62.4064V196.68H55.9064ZM69.7603 206.1C68.667 206.1 67.707 205.873 66.8803 205.42C66.0536 204.953 65.407 204.32 64.9403 203.52C64.4736 202.707 64.2403 201.78 64.2403 200.74C64.2403 199.7 64.4603 198.78 64.9003 197.98C65.3536 197.18 65.967 196.553 66.7403 196.1C67.527 195.633 68.407 195.4 69.3803 195.4C70.367 195.4 71.2403 195.627 72.0003 196.08C72.7736 196.52 73.3803 197.147 73.8203 197.96C74.2603 198.76 74.4803 199.687 74.4803 200.74C74.4803 200.807 74.4736 200.88 74.4603 200.96C74.4603 201.027 74.4603 201.1 74.4603 201.18H65.3203V200.12H73.7003L73.1403 200.54C73.1403 199.78 72.9736 199.107 72.6403 198.52C72.3203 197.92 71.8803 197.453 71.3203 197.12C70.7603 196.787 70.1136 196.62 69.3803 196.62C68.6603 196.62 68.0136 196.787 67.4403 197.12C66.867 197.453 66.4203 197.92 66.1003 198.52C65.7803 199.12 65.6203 199.807 65.6203 200.58V200.8C65.6203 201.6 65.7936 202.307 66.1403 202.92C66.5003 203.52 66.9936 203.993 67.6203 204.34C68.2603 204.673 68.987 204.84 69.8003 204.84C70.4403 204.84 71.0336 204.727 71.5803 204.5C72.1403 204.273 72.6203 203.927 73.0203 203.46L73.8203 204.38C73.3536 204.94 72.767 205.367 72.0603 205.66C71.367 205.953 70.6003 206.1 69.7603 206.1ZM82.845 206V194.18C82.845 193.247 83.1183 192.493 83.665 191.92C84.2117 191.347 84.9983 191.06 86.025 191.06C86.425 191.06 86.8117 191.113 87.185 191.22C87.5583 191.327 87.8717 191.493 88.125 191.72L87.645 192.78C87.445 192.607 87.2117 192.48 86.945 192.4C86.6783 192.307 86.3917 192.26 86.085 192.26C85.485 192.26 85.025 192.427 84.705 192.76C84.385 193.093 84.225 193.587 84.225 194.24V195.84L84.265 196.5V206H82.845ZM80.965 196.68V195.5H87.465V196.68H80.965ZM89.3823 206V195.5H90.7423V198.36L90.6023 197.86C90.8957 197.06 91.389 196.453 92.0823 196.04C92.7757 195.613 93.6357 195.4 94.6623 195.4V196.78C94.609 196.78 94.5557 196.78 94.5023 196.78C94.449 196.767 94.3957 196.76 94.3423 196.76C93.2357 196.76 92.369 197.1 91.7423 197.78C91.1157 198.447 90.8023 199.4 90.8023 200.64V206H89.3823ZM97.2534 206V195.5H98.6734V206H97.2534ZM97.9734 193.18C97.6801 193.18 97.4334 193.08 97.2334 192.88C97.0334 192.68 96.9334 192.44 96.9334 192.16C96.9334 191.88 97.0334 191.647 97.2334 191.46C97.4334 191.26 97.6801 191.16 97.9734 191.16C98.2668 191.16 98.5134 191.253 98.7134 191.44C98.9134 191.627 99.0134 191.86 99.0134 192.14C99.0134 192.433 98.9134 192.68 98.7134 192.88C98.5268 193.08 98.2801 193.18 97.9734 193.18ZM107.085 206.1C105.991 206.1 105.031 205.873 104.205 205.42C103.378 204.953 102.731 204.32 102.265 203.52C101.798 202.707 101.565 201.78 101.565 200.74C101.565 199.7 101.785 198.78 102.225 197.98C102.678 197.18 103.291 196.553 104.065 196.1C104.851 195.633 105.731 195.4 106.705 195.4C107.691 195.4 108.565 195.627 109.325 196.08C110.098 196.52 110.705 197.147 111.145 197.96C111.585 198.76 111.805 199.687 111.805 200.74C111.805 200.807 111.798 200.88 111.785 200.96C111.785 201.027 111.785 201.1 111.785 201.18H102.645V200.12H111.025L110.465 200.54C110.465 199.78 110.298 199.107 109.965 198.52C109.645 197.92 109.205 197.453 108.645 197.12C108.085 196.787 107.438 196.62 106.705 196.62C105.985 196.62 105.338 196.787 104.765 197.12C104.191 197.453 103.745 197.92 103.425 198.52C103.105 199.12 102.945 199.807 102.945 200.58V200.8C102.945 201.6 103.118 202.307 103.465 202.92C103.825 203.52 104.318 203.993 104.945 204.34C105.585 204.673 106.311 204.84 107.125 204.84C107.765 204.84 108.358 204.727 108.905 204.5C109.465 204.273 109.945 203.927 110.345 203.46L111.145 204.38C110.678 204.94 110.091 205.367 109.385 205.66C108.691 205.953 107.925 206.1 107.085 206.1ZM120.055 195.4C120.908 195.4 121.655 195.567 122.295 195.9C122.948 196.22 123.455 196.713 123.815 197.38C124.188 198.047 124.375 198.887 124.375 199.9V206H122.955V200.04C122.955 198.933 122.675 198.1 122.115 197.54C121.568 196.967 120.795 196.68 119.795 196.68C119.048 196.68 118.395 196.833 117.835 197.14C117.288 197.433 116.862 197.867 116.555 198.44C116.262 199 116.115 199.68 116.115 200.48V206H114.695V195.5H116.055V198.38L115.835 197.84C116.168 197.08 116.702 196.487 117.435 196.06C118.168 195.62 119.042 195.4 120.055 195.4ZM132.39 206.1C131.39 206.1 130.49 205.873 129.69 205.42C128.904 204.967 128.284 204.34 127.83 203.54C127.377 202.727 127.15 201.793 127.15 200.74C127.15 199.673 127.377 198.74 127.83 197.94C128.284 197.14 128.904 196.52 129.69 196.08C130.49 195.627 131.39 195.4 132.39 195.4C133.31 195.4 134.13 195.607 134.85 196.02C135.584 196.433 136.164 197.04 136.59 197.84C137.03 198.627 137.25 199.593 137.25 200.74C137.25 201.873 137.037 202.84 136.61 203.64C136.184 204.44 135.604 205.053 134.87 205.48C134.15 205.893 133.324 206.1 132.39 206.1ZM132.49 204.84C133.237 204.84 133.904 204.673 134.49 204.34C135.09 203.993 135.557 203.513 135.89 202.9C136.237 202.273 136.41 201.553 136.41 200.74C136.41 199.913 136.237 199.193 135.89 198.58C135.557 197.967 135.09 197.493 134.49 197.16C133.904 196.813 133.237 196.64 132.49 196.64C131.757 196.64 131.097 196.813 130.51 197.16C129.924 197.493 129.457 197.967 129.11 198.58C128.764 199.193 128.59 199.913 128.59 200.74C128.59 201.553 128.764 202.273 129.11 202.9C129.457 203.513 129.924 203.993 130.51 204.34C131.097 204.673 131.757 204.84 132.49 204.84ZM136.45 206V202.84L136.59 200.72L136.39 198.6V191.16H137.81V206H136.45ZM144.585 206.1C143.718 206.1 142.898 205.98 142.125 205.74C141.352 205.487 140.745 205.173 140.305 204.8L140.945 203.68C141.372 204 141.918 204.28 142.585 204.52C143.252 204.747 143.952 204.86 144.685 204.86C145.685 204.86 146.405 204.707 146.845 204.4C147.285 204.08 147.505 203.66 147.505 203.14C147.505 202.753 147.378 202.453 147.125 202.24C146.885 202.013 146.565 201.847 146.165 201.74C145.765 201.62 145.318 201.52 144.825 201.44C144.332 201.36 143.838 201.267 143.345 201.16C142.865 201.053 142.425 200.9 142.025 200.7C141.625 200.487 141.298 200.2 141.045 199.84C140.805 199.48 140.685 199 140.685 198.4C140.685 197.827 140.845 197.313 141.165 196.86C141.485 196.407 141.952 196.053 142.565 195.8C143.192 195.533 143.952 195.4 144.845 195.4C145.525 195.4 146.205 195.493 146.885 195.68C147.565 195.853 148.125 196.087 148.565 196.38L147.945 197.52C147.478 197.2 146.978 196.973 146.445 196.84C145.912 196.693 145.378 196.62 144.845 196.62C143.898 196.62 143.198 196.787 142.745 197.12C142.305 197.44 142.085 197.853 142.085 198.36C142.085 198.76 142.205 199.073 142.445 199.3C142.698 199.527 143.025 199.707 143.425 199.84C143.838 199.96 144.285 200.06 144.765 200.14C145.258 200.22 145.745 200.32 146.225 200.44C146.718 200.547 147.165 200.7 147.565 200.9C147.978 201.087 148.305 201.36 148.545 201.72C148.798 202.067 148.925 202.527 148.925 203.1C148.925 203.713 148.752 204.247 148.405 204.7C148.072 205.14 147.578 205.487 146.925 205.74C146.285 205.98 145.505 206.1 144.585 206.1ZM163.345 206V203.68L163.285 203.3V199.42C163.285 198.527 163.032 197.84 162.525 197.36C162.032 196.88 161.292 196.64 160.305 196.64C159.625 196.64 158.978 196.753 158.365 196.98C157.752 197.207 157.232 197.507 156.805 197.88L156.165 196.82C156.698 196.367 157.338 196.02 158.085 195.78C158.832 195.527 159.618 195.4 160.445 195.4C161.805 195.4 162.852 195.74 163.585 196.42C164.332 197.087 164.705 198.107 164.705 199.48V206H163.345ZM159.725 206.1C158.938 206.1 158.252 205.973 157.665 205.72C157.092 205.453 156.652 205.093 156.345 204.64C156.038 204.173 155.885 203.64 155.885 203.04C155.885 202.493 156.012 202 156.265 201.56C156.532 201.107 156.958 200.747 157.545 200.48C158.145 200.2 158.945 200.06 159.945 200.06H163.565V201.12H159.985C158.972 201.12 158.265 201.3 157.865 201.66C157.478 202.02 157.285 202.467 157.285 203C157.285 203.6 157.518 204.08 157.985 204.44C158.452 204.8 159.105 204.98 159.945 204.98C160.745 204.98 161.432 204.8 162.005 204.44C162.592 204.067 163.018 203.533 163.285 202.84L163.605 203.82C163.338 204.513 162.872 205.067 162.205 205.48C161.552 205.893 160.725 206.1 159.725 206.1ZM173.922 195.4C174.775 195.4 175.522 195.567 176.162 195.9C176.815 196.22 177.322 196.713 177.682 197.38C178.055 198.047 178.242 198.887 178.242 199.9V206H176.822V200.04C176.822 198.933 176.542 198.1 175.982 197.54C175.435 196.967 174.662 196.68 173.662 196.68C172.915 196.68 172.262 196.833 171.702 197.14C171.155 197.433 170.729 197.867 170.422 198.44C170.129 199 169.982 199.68 169.982 200.48V206H168.562V195.5H169.922V198.38L169.702 197.84C170.035 197.08 170.569 196.487 171.302 196.06C172.035 195.62 172.909 195.4 173.922 195.4ZM186.258 206.1C185.258 206.1 184.358 205.873 183.558 205.42C182.771 204.967 182.151 204.34 181.698 203.54C181.244 202.727 181.018 201.793 181.018 200.74C181.018 199.673 181.244 198.74 181.698 197.94C182.151 197.14 182.771 196.52 183.558 196.08C184.358 195.627 185.258 195.4 186.258 195.4C187.178 195.4 187.998 195.607 188.718 196.02C189.451 196.433 190.031 197.04 190.458 197.84C190.898 198.627 191.118 199.593 191.118 200.74C191.118 201.873 190.904 202.84 190.478 203.64C190.051 204.44 189.471 205.053 188.738 205.48C188.018 205.893 187.191 206.1 186.258 206.1ZM186.358 204.84C187.104 204.84 187.771 204.673 188.358 204.34C188.958 203.993 189.424 203.513 189.758 202.9C190.104 202.273 190.278 201.553 190.278 200.74C190.278 199.913 190.104 199.193 189.758 198.58C189.424 197.967 188.958 197.493 188.358 197.16C187.771 196.813 187.104 196.64 186.358 196.64C185.624 196.64 184.964 196.813 184.378 197.16C183.791 197.493 183.324 197.967 182.978 198.58C182.631 199.193 182.458 199.913 182.458 200.74C182.458 201.553 182.631 202.273 182.978 202.9C183.324 203.513 183.791 203.993 184.378 204.34C184.964 204.673 185.624 204.84 186.358 204.84ZM190.318 206V202.84L190.458 200.72L190.258 198.6V191.16H191.678V206H190.318ZM201.107 206V194.18C201.107 193.247 201.38 192.493 201.927 191.92C202.473 191.347 203.26 191.06 204.287 191.06C204.687 191.06 205.073 191.113 205.447 191.22C205.82 191.327 206.133 191.493 206.387 191.72L205.907 192.78C205.707 192.607 205.473 192.48 205.207 192.4C204.94 192.307 204.653 192.26 204.347 192.26C203.747 192.26 203.287 192.427 202.967 192.76C202.647 193.093 202.487 193.587 202.487 194.24V195.84L202.527 196.5V206H201.107ZM199.227 196.68V195.5H205.727V196.68H199.227ZM214.029 206V203.68L213.969 203.3V199.42C213.969 198.527 213.715 197.84 213.209 197.36C212.715 196.88 211.975 196.64 210.989 196.64C210.309 196.64 209.662 196.753 209.049 196.98C208.435 197.207 207.915 197.507 207.489 197.88L206.849 196.82C207.382 196.367 208.022 196.02 208.769 195.78C209.515 195.527 210.302 195.4 211.129 195.4C212.489 195.4 213.535 195.74 214.269 196.42C215.015 197.087 215.389 198.107 215.389 199.48V206H214.029ZM210.409 206.1C209.622 206.1 208.935 205.973 208.349 205.72C207.775 205.453 207.335 205.093 207.029 204.64C206.722 204.173 206.569 203.64 206.569 203.04C206.569 202.493 206.695 202 206.949 201.56C207.215 201.107 207.642 200.747 208.229 200.48C208.829 200.2 209.629 200.06 210.629 200.06H214.249V201.12H210.669C209.655 201.12 208.949 201.3 208.549 201.66C208.162 202.02 207.969 202.467 207.969 203C207.969 203.6 208.202 204.08 208.669 204.44C209.135 204.8 209.789 204.98 210.629 204.98C211.429 204.98 212.115 204.8 212.689 204.44C213.275 204.067 213.702 203.533 213.969 202.84L214.289 203.82C214.022 204.513 213.555 205.067 212.889 205.48C212.235 205.893 211.409 206.1 210.409 206.1ZM232.366 195.4C233.219 195.4 233.959 195.567 234.586 195.9C235.226 196.22 235.719 196.713 236.066 197.38C236.426 198.047 236.606 198.887 236.606 199.9V206H235.186V200.04C235.186 198.933 234.919 198.1 234.386 197.54C233.866 196.967 233.126 196.68 232.166 196.68C231.446 196.68 230.819 196.833 230.286 197.14C229.766 197.433 229.359 197.867 229.066 198.44C228.786 199 228.646 199.68 228.646 200.48V206H227.226V200.04C227.226 198.933 226.959 198.1 226.426 197.54C225.892 196.967 225.146 196.68 224.186 196.68C223.479 196.68 222.859 196.833 222.326 197.14C221.792 197.433 221.379 197.867 221.086 198.44C220.806 199 220.666 199.68 220.666 200.48V206H219.246V195.5H220.606V198.34L220.386 197.84C220.706 197.08 221.219 196.487 221.926 196.06C222.646 195.62 223.492 195.4 224.466 195.4C225.492 195.4 226.366 195.66 227.086 196.18C227.806 196.687 228.272 197.453 228.486 198.48L227.926 198.26C228.232 197.407 228.772 196.72 229.546 196.2C230.332 195.667 231.272 195.4 232.366 195.4ZM240.457 206V195.5H241.877V206H240.457ZM241.177 193.18C240.883 193.18 240.637 193.08 240.437 192.88C240.237 192.68 240.137 192.44 240.137 192.16C240.137 191.88 240.237 191.647 240.437 191.46C240.637 191.26 240.883 191.16 241.177 191.16C241.47 191.16 241.717 191.253 241.917 191.44C242.117 191.627 242.217 191.86 242.217 192.14C242.217 192.433 242.117 192.68 241.917 192.88C241.73 193.08 241.483 193.18 241.177 193.18ZM245.828 206V191.16H247.248V206H245.828ZM251.279 209.98C250.785 209.98 250.312 209.9 249.859 209.74C249.419 209.58 249.039 209.34 248.719 209.02L249.379 207.96C249.645 208.213 249.932 208.407 250.239 208.54C250.559 208.687 250.912 208.76 251.299 208.76C251.765 208.76 252.165 208.627 252.499 208.36C252.845 208.107 253.172 207.653 253.479 207L254.159 205.46L254.319 205.24L258.639 195.5H260.039L254.779 207.26C254.485 207.94 254.159 208.48 253.799 208.88C253.452 209.28 253.072 209.56 252.659 209.72C252.245 209.893 251.785 209.98 251.279 209.98ZM254.079 206.3L249.239 195.5H250.719L254.999 205.14L254.079 206.3ZM270.593 206.1C269.606 206.1 268.846 205.833 268.313 205.3C267.78 204.767 267.513 204.013 267.513 203.04V193.18H268.933V202.96C268.933 203.573 269.086 204.047 269.393 204.38C269.713 204.713 270.166 204.88 270.753 204.88C271.38 204.88 271.9 204.7 272.313 204.34L272.813 205.36C272.533 205.613 272.193 205.8 271.793 205.92C271.406 206.04 271.006 206.1 270.593 206.1ZM265.633 196.68V195.5H272.133V196.68H265.633ZM279.307 206.1C278.294 206.1 277.38 205.873 276.567 205.42C275.767 204.953 275.134 204.32 274.667 203.52C274.2 202.707 273.967 201.78 273.967 200.74C273.967 199.687 274.2 198.76 274.667 197.96C275.134 197.16 275.767 196.533 276.567 196.08C277.367 195.627 278.28 195.4 279.307 195.4C280.347 195.4 281.267 195.627 282.067 196.08C282.88 196.533 283.514 197.16 283.967 197.96C284.434 198.76 284.667 199.687 284.667 200.74C284.667 201.78 284.434 202.707 283.967 203.52C283.514 204.32 282.88 204.953 282.067 205.42C281.254 205.873 280.334 206.1 279.307 206.1ZM279.307 204.84C280.067 204.84 280.74 204.673 281.327 204.34C281.914 203.993 282.374 203.513 282.707 202.9C283.054 202.273 283.227 201.553 283.227 200.74C283.227 199.913 283.054 199.193 282.707 198.58C282.374 197.967 281.914 197.493 281.327 197.16C280.74 196.813 280.074 196.64 279.327 196.64C278.58 196.64 277.914 196.813 277.327 197.16C276.74 197.493 276.274 197.967 275.927 198.58C275.58 199.193 275.407 199.913 275.407 200.74C275.407 201.553 275.58 202.273 275.927 202.9C276.274 203.513 276.74 203.993 277.327 204.34C277.914 204.673 278.574 204.84 279.307 204.84ZM291.24 209.98C290.814 209.98 290.407 209.92 290.02 209.8C289.62 209.693 289.287 209.527 289.02 209.3L289.52 208.22C289.947 208.58 290.494 208.76 291.16 208.76C291.72 208.76 292.147 208.593 292.44 208.26C292.747 207.927 292.9 207.433 292.9 206.78V195.5H294.32V206.78C294.32 207.753 294.054 208.527 293.52 209.1C293 209.687 292.24 209.98 291.24 209.98ZM293.62 193.18C293.327 193.18 293.08 193.08 292.88 192.88C292.68 192.68 292.58 192.44 292.58 192.16C292.58 191.88 292.68 191.647 292.88 191.46C293.08 191.26 293.327 191.16 293.62 191.16C293.914 191.16 294.16 191.253 294.36 191.44C294.56 191.627 294.66 191.86 294.66 192.14C294.66 192.433 294.56 192.68 294.36 192.88C294.174 193.08 293.927 193.18 293.62 193.18ZM302.569 206.1C301.555 206.1 300.642 205.873 299.829 205.42C299.029 204.953 298.395 204.32 297.929 203.52C297.462 202.707 297.229 201.78 297.229 200.74C297.229 199.687 297.462 198.76 297.929 197.96C298.395 197.16 299.029 196.533 299.829 196.08C300.629 195.627 301.542 195.4 302.569 195.4C303.609 195.4 304.529 195.627 305.329 196.08C306.142 196.533 306.775 197.16 307.229 197.96C307.695 198.76 307.929 199.687 307.929 200.74C307.929 201.78 307.695 202.707 307.229 203.52C306.775 204.32 306.142 204.953 305.329 205.42C304.515 205.873 303.595 206.1 302.569 206.1ZM302.569 204.84C303.329 204.84 304.002 204.673 304.589 204.34C305.175 203.993 305.635 203.513 305.969 202.9C306.315 202.273 306.489 201.553 306.489 200.74C306.489 199.913 306.315 199.193 305.969 198.58C305.635 197.967 305.175 197.493 304.589 197.16C304.002 196.813 303.335 196.64 302.589 196.64C301.842 196.64 301.175 196.813 300.589 197.16C300.002 197.493 299.535 197.967 299.189 198.58C298.842 199.193 298.669 199.913 298.669 200.74C298.669 201.553 298.842 202.273 299.189 202.9C299.535 203.513 300.002 203.993 300.589 204.34C301.175 204.673 301.835 204.84 302.569 204.84ZM310.828 206V195.5H312.248V206H310.828ZM311.548 193.18C311.254 193.18 311.008 193.08 310.808 192.88C310.608 192.68 310.508 192.44 310.508 192.16C310.508 191.88 310.608 191.647 310.808 191.46C311.008 191.26 311.254 191.16 311.548 191.16C311.841 191.16 312.088 191.253 312.288 191.44C312.488 191.627 312.588 191.86 312.588 192.14C312.588 192.433 312.488 192.68 312.288 192.88C312.101 193.08 311.854 193.18 311.548 193.18ZM321.559 195.4C322.412 195.4 323.159 195.567 323.799 195.9C324.452 196.22 324.959 196.713 325.319 197.38C325.692 198.047 325.879 198.887 325.879 199.9V206H324.459V200.04C324.459 198.933 324.179 198.1 323.619 197.54C323.072 196.967 322.299 196.68 321.299 196.68C320.552 196.68 319.899 196.833 319.339 197.14C318.792 197.433 318.365 197.867 318.059 198.44C317.765 199 317.619 199.68 317.619 200.48V206H316.199V195.5H317.559V198.38L317.339 197.84C317.672 197.08 318.205 196.487 318.939 196.06C319.672 195.62 320.545 195.4 321.559 195.4ZM25.46 236L20.74 222H22.26L26.68 235.18H25.92L30.48 222H31.84L36.34 235.18H35.62L40.08 222H41.5L36.78 236H35.22L30.92 223.5H31.32L27 236H25.46ZM49.6928 236V233.68L49.6328 233.3V229.42C49.6328 228.527 49.3795 227.84 48.8728 227.36C48.3795 226.88 47.6395 226.64 46.6528 226.64C45.9728 226.64 45.3261 226.753 44.7128 226.98C44.0995 227.207 43.5795 227.507 43.1528 227.88L42.5128 226.82C43.0461 226.367 43.6861 226.02 44.4328 225.78C45.1795 225.527 45.9661 225.4 46.7928 225.4C48.1528 225.4 49.1995 225.74 49.9328 226.42C50.6795 227.087 51.0528 228.107 51.0528 229.48V236H49.6928ZM46.0728 236.1C45.2861 236.1 44.5995 235.973 44.0128 235.72C43.4395 235.453 42.9995 235.093 42.6928 234.64C42.3861 234.173 42.2328 233.64 42.2328 233.04C42.2328 232.493 42.3595 232 42.6128 231.56C42.8795 231.107 43.3061 230.747 43.8928 230.48C44.4928 230.2 45.2928 230.06 46.2928 230.06H49.9128V231.12H46.3328C45.3195 231.12 44.6128 231.3 44.2128 231.66C43.8261 232.02 43.6328 232.467 43.6328 233C43.6328 233.6 43.8661 234.08 44.3328 234.44C44.7995 234.8 45.4528 234.98 46.2928 234.98C47.0928 234.98 47.7795 234.8 48.3528 234.44C48.9395 234.067 49.3661 233.533 49.6328 232.84L49.9528 233.82C49.6861 234.513 49.2195 235.067 48.5528 235.48C47.8995 235.893 47.0728 236.1 46.0728 236.1ZM59.3897 239.98C58.4297 239.98 57.5097 239.84 56.6297 239.56C55.7497 239.28 55.0364 238.88 54.4897 238.36L55.2097 237.28C55.703 237.72 56.3097 238.067 57.0297 238.32C57.763 238.587 58.5364 238.72 59.3497 238.72C60.683 238.72 61.663 238.407 62.2897 237.78C62.9164 237.167 63.2297 236.207 63.2297 234.9V232.28L63.4297 230.48L63.2897 228.68V225.5H64.6497V234.72C64.6497 236.533 64.203 237.86 63.3097 238.7C62.4297 239.553 61.123 239.98 59.3897 239.98ZM59.1297 235.6C58.1297 235.6 57.2297 235.387 56.4297 234.96C55.6297 234.52 54.9964 233.913 54.5297 233.14C54.0764 232.367 53.8497 231.48 53.8497 230.48C53.8497 229.48 54.0764 228.6 54.5297 227.84C54.9964 227.067 55.6297 226.467 56.4297 226.04C57.2297 225.613 58.1297 225.4 59.1297 225.4C60.063 225.4 60.903 225.593 61.6497 225.98C62.3964 226.367 62.9897 226.94 63.4297 227.7C63.8697 228.46 64.0897 229.387 64.0897 230.48C64.0897 231.573 63.8697 232.5 63.4297 233.26C62.9897 234.02 62.3964 234.6 61.6497 235C60.903 235.4 60.063 235.6 59.1297 235.6ZM59.2697 234.34C60.043 234.34 60.7297 234.18 61.3297 233.86C61.9297 233.527 62.403 233.073 62.7497 232.5C63.0964 231.913 63.2697 231.24 63.2697 230.48C63.2697 229.72 63.0964 229.053 62.7497 228.48C62.403 227.907 61.9297 227.46 61.3297 227.14C60.7297 226.807 60.043 226.64 59.2697 226.64C58.5097 226.64 57.823 226.807 57.2097 227.14C56.6097 227.46 56.1364 227.907 55.7897 228.48C55.4564 229.053 55.2897 229.72 55.2897 230.48C55.2897 231.24 55.4564 231.913 55.7897 232.5C56.1364 233.073 56.6097 233.527 57.2097 233.86C57.823 234.18 58.5097 234.34 59.2697 234.34ZM73.0611 236.1C71.9678 236.1 71.0078 235.873 70.1811 235.42C69.3544 234.953 68.7078 234.32 68.2411 233.52C67.7744 232.707 67.5411 231.78 67.5411 230.74C67.5411 229.7 67.7611 228.78 68.2011 227.98C68.6544 227.18 69.2678 226.553 70.0411 226.1C70.8278 225.633 71.7078 225.4 72.6811 225.4C73.6678 225.4 74.5411 225.627 75.3011 226.08C76.0744 226.52 76.6811 227.147 77.1211 227.96C77.5611 228.76 77.7811 229.687 77.7811 230.74C77.7811 230.807 77.7744 230.88 77.7611 230.96C77.7611 231.027 77.7611 231.1 77.7611 231.18H68.6211V230.12H77.0011L76.4411 230.54C76.4411 229.78 76.2744 229.107 75.9411 228.52C75.6211 227.92 75.1811 227.453 74.6211 227.12C74.0611 226.787 73.4144 226.62 72.6811 226.62C71.9611 226.62 71.3144 226.787 70.7411 227.12C70.1678 227.453 69.7211 227.92 69.4011 228.52C69.0811 229.12 68.9211 229.807 68.9211 230.58V230.8C68.9211 231.6 69.0944 232.307 69.4411 232.92C69.8011 233.52 70.2944 233.993 70.9211 234.34C71.5611 234.673 72.2878 234.84 73.1011 234.84C73.7411 234.84 74.3344 234.727 74.8811 234.5C75.4411 234.273 75.9211 233.927 76.3211 233.46L77.1211 234.38C76.6544 234.94 76.0678 235.367 75.3611 235.66C74.6678 235.953 73.9011 236.1 73.0611 236.1ZM83.4914 236.1C82.6247 236.1 81.8047 235.98 81.0314 235.74C80.2581 235.487 79.6514 235.173 79.2114 234.8L79.8514 233.68C80.2781 234 80.8247 234.28 81.4914 234.52C82.1581 234.747 82.8581 234.86 83.5914 234.86C84.5914 234.86 85.3114 234.707 85.7514 234.4C86.1914 234.08 86.4114 233.66 86.4114 233.14C86.4114 232.753 86.2847 232.453 86.0314 232.24C85.7914 232.013 85.4714 231.847 85.0714 231.74C84.6714 231.62 84.2247 231.52 83.7314 231.44C83.2381 231.36 82.7447 231.267 82.2514 231.16C81.7714 231.053 81.3314 230.9 80.9314 230.7C80.5314 230.487 80.2047 230.2 79.9514 229.84C79.7114 229.48 79.5914 229 79.5914 228.4C79.5914 227.827 79.7514 227.313 80.0714 226.86C80.3914 226.407 80.8581 226.053 81.4714 225.8C82.0981 225.533 82.8581 225.4 83.7514 225.4C84.4314 225.4 85.1114 225.493 85.7914 225.68C86.4714 225.853 87.0314 226.087 87.4714 226.38L86.8514 227.52C86.3847 227.2 85.8847 226.973 85.3514 226.84C84.8181 226.693 84.2847 226.62 83.7514 226.62C82.8047 226.62 82.1047 226.787 81.6514 227.12C81.2114 227.44 80.9914 227.853 80.9914 228.36C80.9914 228.76 81.1114 229.073 81.3514 229.3C81.6047 229.527 81.9314 229.707 82.3314 229.84C82.7447 229.96 83.1914 230.06 83.6714 230.14C84.1647 230.22 84.6514 230.32 85.1314 230.44C85.6247 230.547 86.0714 230.7 86.4714 230.9C86.8847 231.087 87.2114 231.36 87.4514 231.72C87.7047 232.067 87.8314 232.527 87.8314 233.1C87.8314 233.713 87.6581 234.247 87.3114 234.7C86.9781 235.14 86.4847 235.487 85.8314 235.74C85.1914 235.98 84.4114 236.1 83.4914 236.1ZM92.057 228.78H99.457V230.06H92.057V228.78ZM92.217 236H90.737V222H100.337V223.28H92.217V236ZM103.093 236V225.5H104.513V236H103.093ZM103.813 223.18C103.52 223.18 103.273 223.08 103.073 222.88C102.873 222.68 102.773 222.44 102.773 222.16C102.773 221.88 102.873 221.647 103.073 221.46C103.273 221.26 103.52 221.16 103.813 221.16C104.107 221.16 104.353 221.253 104.553 221.44C104.753 221.627 104.853 221.86 104.853 222.14C104.853 222.433 104.753 222.68 104.553 222.88C104.367 223.08 104.12 223.18 103.813 223.18ZM113.824 225.4C114.678 225.4 115.424 225.567 116.064 225.9C116.718 226.22 117.224 226.713 117.584 227.38C117.958 228.047 118.144 228.887 118.144 229.9V236H116.724V230.04C116.724 228.933 116.444 228.1 115.884 227.54C115.338 226.967 114.564 226.68 113.564 226.68C112.818 226.68 112.164 226.833 111.604 227.14C111.058 227.433 110.631 227.867 110.324 228.44C110.031 229 109.884 229.68 109.884 230.48V236H108.464V225.5H109.824V228.38L109.604 227.84C109.938 227.08 110.471 226.487 111.204 226.06C111.938 225.62 112.811 225.4 113.824 225.4ZM128.56 236V233.68L128.5 233.3V229.42C128.5 228.527 128.247 227.84 127.74 227.36C127.247 226.88 126.507 226.64 125.52 226.64C124.84 226.64 124.193 226.753 123.58 226.98C122.967 227.207 122.447 227.507 122.02 227.88L121.38 226.82C121.913 226.367 122.553 226.02 123.3 225.78C124.047 225.527 124.833 225.4 125.66 225.4C127.02 225.4 128.067 225.74 128.8 226.42C129.547 227.087 129.92 228.107 129.92 229.48V236H128.56ZM124.94 236.1C124.153 236.1 123.467 235.973 122.88 235.72C122.307 235.453 121.867 235.093 121.56 234.64C121.253 234.173 121.1 233.64 121.1 233.04C121.1 232.493 121.227 232 121.48 231.56C121.747 231.107 122.173 230.747 122.76 230.48C123.36 230.2 124.16 230.06 125.16 230.06H128.78V231.12H125.2C124.187 231.12 123.48 231.3 123.08 231.66C122.693 232.02 122.5 232.467 122.5 233C122.5 233.6 122.733 234.08 123.2 234.44C123.667 234.8 124.32 234.98 125.16 234.98C125.96 234.98 126.647 234.8 127.22 234.44C127.807 234.067 128.233 233.533 128.5 232.84L128.82 233.82C128.553 234.513 128.087 235.067 127.42 235.48C126.767 235.893 125.94 236.1 124.94 236.1ZM139.137 225.4C139.99 225.4 140.737 225.567 141.377 225.9C142.03 226.22 142.537 226.713 142.897 227.38C143.27 228.047 143.457 228.887 143.457 229.9V236H142.037V230.04C142.037 228.933 141.757 228.1 141.197 227.54C140.65 226.967 139.877 226.68 138.877 226.68C138.13 226.68 137.477 226.833 136.917 227.14C136.37 227.433 135.944 227.867 135.637 228.44C135.344 229 135.197 229.68 135.197 230.48V236H133.777V225.5H135.137V228.38L134.917 227.84C135.25 227.08 135.784 226.487 136.517 226.06C137.25 225.62 138.124 225.4 139.137 225.4ZM151.653 236.1C150.613 236.1 149.679 235.873 148.853 235.42C148.039 234.953 147.399 234.32 146.933 233.52C146.466 232.707 146.233 231.78 146.233 230.74C146.233 229.687 146.466 228.76 146.933 227.96C147.399 227.16 148.039 226.533 148.853 226.08C149.679 225.627 150.613 225.4 151.653 225.4C152.546 225.4 153.353 225.573 154.073 225.92C154.793 226.267 155.359 226.787 155.773 227.48L154.713 228.2C154.353 227.667 153.906 227.273 153.373 227.02C152.839 226.767 152.259 226.64 151.633 226.64C150.886 226.64 150.213 226.813 149.613 227.16C149.013 227.493 148.539 227.967 148.193 228.58C147.846 229.193 147.673 229.913 147.673 230.74C147.673 231.567 147.846 232.287 148.193 232.9C148.539 233.513 149.013 233.993 149.613 234.34C150.213 234.673 150.886 234.84 151.633 234.84C152.259 234.84 152.839 234.713 153.373 234.46C153.906 234.207 154.353 233.82 154.713 233.3L155.773 234.02C155.359 234.7 154.793 235.22 154.073 235.58C153.353 235.927 152.546 236.1 151.653 236.1ZM162.846 236.1C161.753 236.1 160.793 235.873 159.966 235.42C159.14 234.953 158.493 234.32 158.026 233.52C157.56 232.707 157.326 231.78 157.326 230.74C157.326 229.7 157.546 228.78 157.986 227.98C158.44 227.18 159.053 226.553 159.826 226.1C160.613 225.633 161.493 225.4 162.466 225.4C163.453 225.4 164.326 225.627 165.086 226.08C165.86 226.52 166.466 227.147 166.906 227.96C167.346 228.76 167.566 229.687 167.566 230.74C167.566 230.807 167.56 230.88 167.546 230.96C167.546 231.027 167.546 231.1 167.546 231.18H158.406V230.12H166.786L166.226 230.54C166.226 229.78 166.06 229.107 165.726 228.52C165.406 227.92 164.966 227.453 164.406 227.12C163.846 226.787 163.2 226.62 162.466 226.62C161.746 226.62 161.1 226.787 160.526 227.12C159.953 227.453 159.506 227.92 159.186 228.52C158.866 229.12 158.706 229.807 158.706 230.58V230.8C158.706 231.6 158.88 232.307 159.226 232.92C159.586 233.52 160.08 233.993 160.706 234.34C161.346 234.673 162.073 234.84 162.886 234.84C163.526 234.84 164.12 234.727 164.666 234.5C165.226 234.273 165.706 233.927 166.106 233.46L166.906 234.38C166.44 234.94 165.853 235.367 165.146 235.66C164.453 235.953 163.686 236.1 162.846 236.1ZM180.031 236.1C179.138 236.1 178.358 235.933 177.691 235.6C177.024 235.267 176.504 234.767 176.131 234.1C175.771 233.433 175.591 232.6 175.591 231.6V225.5H177.011V231.44C177.011 232.56 177.284 233.407 177.831 233.98C178.391 234.54 179.171 234.82 180.171 234.82C180.904 234.82 181.538 234.673 182.071 234.38C182.618 234.073 183.031 233.633 183.311 233.06C183.604 232.487 183.751 231.8 183.751 231V225.5H185.171V236H183.811V233.12L184.031 233.64C183.698 234.413 183.178 235.02 182.471 235.46C181.778 235.887 180.964 236.1 180.031 236.1ZM191.948 236.1C191.082 236.1 190.262 235.98 189.488 235.74C188.715 235.487 188.108 235.173 187.668 234.8L188.308 233.68C188.735 234 189.282 234.28 189.948 234.52C190.615 234.747 191.315 234.86 192.048 234.86C193.048 234.86 193.768 234.707 194.208 234.4C194.648 234.08 194.868 233.66 194.868 233.14C194.868 232.753 194.742 232.453 194.488 232.24C194.248 232.013 193.928 231.847 193.528 231.74C193.128 231.62 192.682 231.52 192.188 231.44C191.695 231.36 191.202 231.267 190.708 231.16C190.228 231.053 189.788 230.9 189.388 230.7C188.988 230.487 188.662 230.2 188.408 229.84C188.168 229.48 188.048 229 188.048 228.4C188.048 227.827 188.208 227.313 188.528 226.86C188.848 226.407 189.315 226.053 189.928 225.8C190.555 225.533 191.315 225.4 192.208 225.4C192.888 225.4 193.568 225.493 194.248 225.68C194.928 225.853 195.488 226.087 195.928 226.38L195.308 227.52C194.842 227.2 194.342 226.973 193.808 226.84C193.275 226.693 192.742 226.62 192.208 226.62C191.262 226.62 190.562 226.787 190.108 227.12C189.668 227.44 189.448 227.853 189.448 228.36C189.448 228.76 189.568 229.073 189.808 229.3C190.062 229.527 190.388 229.707 190.788 229.84C191.202 229.96 191.648 230.06 192.128 230.14C192.622 230.22 193.108 230.32 193.588 230.44C194.082 230.547 194.528 230.7 194.928 230.9C195.342 231.087 195.668 231.36 195.908 231.72C196.162 232.067 196.288 232.527 196.288 233.1C196.288 233.713 196.115 234.247 195.768 234.7C195.435 235.14 194.942 235.487 194.288 235.74C193.648 235.98 192.868 236.1 191.948 236.1ZM198.894 236V225.5H200.314V236H198.894ZM199.614 223.18C199.321 223.18 199.074 223.08 198.874 222.88C198.674 222.68 198.574 222.44 198.574 222.16C198.574 221.88 198.674 221.647 198.874 221.46C199.074 221.26 199.321 221.16 199.614 221.16C199.907 221.16 200.154 221.253 200.354 221.44C200.554 221.627 200.654 221.86 200.654 222.14C200.654 222.433 200.554 222.68 200.354 222.88C200.167 223.08 199.921 223.18 199.614 223.18ZM209.625 225.4C210.478 225.4 211.225 225.567 211.865 225.9C212.518 226.22 213.025 226.713 213.385 227.38C213.758 228.047 213.945 228.887 213.945 229.9V236H212.525V230.04C212.525 228.933 212.245 228.1 211.685 227.54C211.138 226.967 210.365 226.68 209.365 226.68C208.618 226.68 207.965 226.833 207.405 227.14C206.858 227.433 206.432 227.867 206.125 228.44C205.832 229 205.685 229.68 205.685 230.48V236H204.265V225.5H205.625V228.38L205.405 227.84C205.738 227.08 206.272 226.487 207.005 226.06C207.738 225.62 208.612 225.4 209.625 225.4ZM222.261 239.98C221.301 239.98 220.381 239.84 219.501 239.56C218.621 239.28 217.907 238.88 217.361 238.36L218.081 237.28C218.574 237.72 219.181 238.067 219.901 238.32C220.634 238.587 221.407 238.72 222.221 238.72C223.554 238.72 224.534 238.407 225.161 237.78C225.787 237.167 226.101 236.207 226.101 234.9V232.28L226.301 230.48L226.161 228.68V225.5H227.521V234.72C227.521 236.533 227.074 237.86 226.181 238.7C225.301 239.553 223.994 239.98 222.261 239.98ZM222.001 235.6C221.001 235.6 220.101 235.387 219.301 234.96C218.501 234.52 217.867 233.913 217.401 233.14C216.947 232.367 216.721 231.48 216.721 230.48C216.721 229.48 216.947 228.6 217.401 227.84C217.867 227.067 218.501 226.467 219.301 226.04C220.101 225.613 221.001 225.4 222.001 225.4C222.934 225.4 223.774 225.593 224.521 225.98C225.267 226.367 225.861 226.94 226.301 227.7C226.741 228.46 226.961 229.387 226.961 230.48C226.961 231.573 226.741 232.5 226.301 233.26C225.861 234.02 225.267 234.6 224.521 235C223.774 235.4 222.934 235.6 222.001 235.6ZM222.141 234.34C222.914 234.34 223.601 234.18 224.201 233.86C224.801 233.527 225.274 233.073 225.621 232.5C225.967 231.913 226.141 231.24 226.141 230.48C226.141 229.72 225.967 229.053 225.621 228.48C225.274 227.907 224.801 227.46 224.201 227.14C223.601 226.807 222.914 226.64 222.141 226.64C221.381 226.64 220.694 226.807 220.081 227.14C219.481 227.46 219.007 227.907 218.661 228.48C218.327 229.053 218.161 229.72 218.161 230.48C218.161 231.24 218.327 231.913 218.661 232.5C219.007 233.073 219.481 233.527 220.081 233.86C220.694 234.18 221.381 234.34 222.141 234.34ZM236.787 239.98C236.293 239.98 235.82 239.9 235.367 239.74C234.927 239.58 234.547 239.34 234.227 239.02L234.887 237.96C235.153 238.213 235.44 238.407 235.747 238.54C236.067 238.687 236.42 238.76 236.807 238.76C237.273 238.76 237.673 238.627 238.007 238.36C238.353 238.107 238.68 237.653 238.987 237L239.667 235.46L239.827 235.24L244.147 225.5H245.547L240.287 237.26C239.993 237.94 239.667 238.48 239.307 238.88C238.96 239.28 238.58 239.56 238.167 239.72C237.753 239.893 237.293 239.98 236.787 239.98ZM239.587 236.3L234.747 225.5H236.227L240.507 235.14L239.587 236.3ZM251.533 236.1C250.52 236.1 249.607 235.873 248.793 235.42C247.993 234.953 247.36 234.32 246.893 233.52C246.427 232.707 246.193 231.78 246.193 230.74C246.193 229.687 246.427 228.76 246.893 227.96C247.36 227.16 247.993 226.533 248.793 226.08C249.593 225.627 250.507 225.4 251.533 225.4C252.573 225.4 253.493 225.627 254.293 226.08C255.107 226.533 255.74 227.16 256.193 227.96C256.66 228.76 256.893 229.687 256.893 230.74C256.893 231.78 256.66 232.707 256.193 233.52C255.74 234.32 255.107 234.953 254.293 235.42C253.48 235.873 252.56 236.1 251.533 236.1ZM251.533 234.84C252.293 234.84 252.967 234.673 253.553 234.34C254.14 233.993 254.6 233.513 254.933 232.9C255.28 232.273 255.453 231.553 255.453 230.74C255.453 229.913 255.28 229.193 254.933 228.58C254.6 227.967 254.14 227.493 253.553 227.16C252.967 226.813 252.3 226.64 251.553 226.64C250.807 226.64 250.14 226.813 249.553 227.16C248.967 227.493 248.5 227.967 248.153 228.58C247.807 229.193 247.633 229.913 247.633 230.74C247.633 231.553 247.807 232.273 248.153 232.9C248.5 233.513 248.967 233.993 249.553 234.34C250.14 234.673 250.8 234.84 251.533 234.84ZM264.133 236.1C263.239 236.1 262.459 235.933 261.793 235.6C261.126 235.267 260.606 234.767 260.233 234.1C259.873 233.433 259.693 232.6 259.693 231.6V225.5H261.113V231.44C261.113 232.56 261.386 233.407 261.933 233.98C262.493 234.54 263.273 234.82 264.273 234.82C265.006 234.82 265.639 234.673 266.173 234.38C266.719 234.073 267.133 233.633 267.413 233.06C267.706 232.487 267.853 231.8 267.853 231V225.5H269.273V236H267.912V233.12L268.133 233.64C267.799 234.413 267.279 235.02 266.573 235.46C265.879 235.887 265.066 236.1 264.133 236.1ZM273.23 236V225.5H274.59V228.36L274.45 227.86C274.743 227.06 275.237 226.453 275.93 226.04C276.623 225.613 277.483 225.4 278.51 225.4V226.78C278.457 226.78 278.403 226.78 278.35 226.78C278.297 226.767 278.243 226.76 278.19 226.76C277.083 226.76 276.217 227.1 275.59 227.78C274.963 228.447 274.65 229.4 274.65 230.64V236H273.23ZM26.32 266.1C25.4267 266.1 24.6467 265.933 23.98 265.6C23.3133 265.267 22.7933 264.767 22.42 264.1C22.06 263.433 21.88 262.6 21.88 261.6V255.5H23.3V261.44C23.3 262.56 23.5733 263.407 24.12 263.98C24.68 264.54 25.46 264.82 26.46 264.82C27.1933 264.82 27.8267 264.673 28.36 264.38C28.9067 264.073 29.32 263.633 29.6 263.06C29.8933 262.487 30.04 261.8 30.04 261V255.5H31.46V266H30.1V263.12L30.32 263.64C29.9867 264.413 29.4667 265.02 28.76 265.46C28.0667 265.887 27.2533 266.1 26.32 266.1ZM40.7775 255.4C41.6308 255.4 42.3775 255.567 43.0175 255.9C43.6708 256.22 44.1775 256.713 44.5375 257.38C44.9108 258.047 45.0975 258.887 45.0975 259.9V266H43.6775V260.04C43.6775 258.933 43.3975 258.1 42.8375 257.54C42.2908 256.967 41.5175 256.68 40.5175 256.68C39.7708 256.68 39.1175 256.833 38.5575 257.14C38.0108 257.433 37.5842 257.867 37.2775 258.44C36.9842 259 36.8375 259.68 36.8375 260.48V266H35.4175V255.5H36.7775V258.38L36.5575 257.84C36.8908 257.08 37.4242 256.487 38.1575 256.06C38.8908 255.62 39.7642 255.4 40.7775 255.4ZM48.9331 266V255.5H50.3531V266H48.9331ZM49.6531 253.18C49.3598 253.18 49.1131 253.08 48.9131 252.88C48.7131 252.68 48.6131 252.44 48.6131 252.16C48.6131 251.88 48.7131 251.647 48.9131 251.46C49.1131 251.26 49.3598 251.16 49.6531 251.16C49.9465 251.16 50.1931 251.253 50.3931 251.44C50.5931 251.627 50.6931 251.86 50.6931 252.14C50.6931 252.433 50.5931 252.68 50.3931 252.88C50.2065 253.08 49.9598 253.18 49.6531 253.18ZM58.4842 266.1C57.4842 266.1 56.5842 265.873 55.7842 265.42C54.9976 264.967 54.3776 264.34 53.9242 263.54C53.4709 262.74 53.2442 261.807 53.2442 260.74C53.2442 259.687 53.4709 258.76 53.9242 257.96C54.3776 257.147 54.9976 256.52 55.7842 256.08C56.5842 255.627 57.4842 255.4 58.4842 255.4C59.4176 255.4 60.2442 255.607 60.9642 256.02C61.6976 256.433 62.2776 257.04 62.7042 257.84C63.1309 258.627 63.3442 259.593 63.3442 260.74C63.3442 261.887 63.1242 262.86 62.6842 263.66C62.2576 264.447 61.6776 265.053 60.9442 265.48C60.2242 265.893 59.4042 266.1 58.4842 266.1ZM58.5842 264.84C59.3309 264.84 59.9976 264.673 60.5842 264.34C61.1842 263.993 61.6509 263.513 61.9842 262.9C62.3309 262.273 62.5042 261.553 62.5042 260.74C62.5042 259.927 62.3309 259.213 61.9842 258.6C61.6509 257.987 61.1842 257.507 60.5842 257.16C59.9976 256.813 59.3309 256.64 58.5842 256.64C57.8509 256.64 57.1909 256.813 56.6042 257.16C56.0176 257.507 55.5509 257.987 55.2042 258.6C54.8576 259.213 54.6842 259.927 54.6842 260.74C54.6842 261.553 54.8576 262.273 55.2042 262.9C55.5509 263.513 56.0176 263.993 56.6042 264.34C57.1909 264.673 57.8509 264.84 58.5842 264.84ZM62.4842 269.88V262.88L62.6842 260.76L62.5442 258.66V255.5H63.9042V269.88H62.4842ZM72.1989 266.1C71.3056 266.1 70.5256 265.933 69.8589 265.6C69.1922 265.267 68.6722 264.767 68.2989 264.1C67.9389 263.433 67.7589 262.6 67.7589 261.6V255.5H69.1789V261.44C69.1789 262.56 69.4522 263.407 69.9989 263.98C70.5589 264.54 71.3389 264.82 72.3389 264.82C73.0722 264.82 73.7056 264.673 74.2389 264.38C74.7856 264.073 75.1989 263.633 75.4789 263.06C75.7722 262.487 75.9189 261.8 75.9189 261V255.5H77.3389V266H75.9789V263.12L76.1989 263.64C75.8656 264.413 75.3456 265.02 74.6389 265.46C73.9456 265.887 73.1322 266.1 72.1989 266.1ZM85.7564 266.1C84.6631 266.1 83.7031 265.873 82.8764 265.42C82.0497 264.953 81.4031 264.32 80.9364 263.52C80.4697 262.707 80.2364 261.78 80.2364 260.74C80.2364 259.7 80.4564 258.78 80.8964 257.98C81.3497 257.18 81.9631 256.553 82.7364 256.1C83.5231 255.633 84.4031 255.4 85.3764 255.4C86.3631 255.4 87.2364 255.627 87.9964 256.08C88.7697 256.52 89.3764 257.147 89.8164 257.96C90.2564 258.76 90.4764 259.687 90.4764 260.74C90.4764 260.807 90.4697 260.88 90.4564 260.96C90.4564 261.027 90.4564 261.1 90.4564 261.18H81.3164V260.12H89.6964L89.1364 260.54C89.1364 259.78 88.9697 259.107 88.6364 258.52C88.3164 257.92 87.8764 257.453 87.3164 257.12C86.7564 256.787 86.1097 256.62 85.3764 256.62C84.6564 256.62 84.0097 256.787 83.4364 257.12C82.8631 257.453 82.4164 257.92 82.0964 258.52C81.7764 259.12 81.6164 259.807 81.6164 260.58V260.8C81.6164 261.6 81.7897 262.307 82.1364 262.92C82.4964 263.52 82.9897 263.993 83.6164 264.34C84.2564 264.673 84.9831 264.84 85.7964 264.84C86.4364 264.84 87.0297 264.727 87.5764 264.5C88.1364 264.273 88.6164 263.927 89.0164 263.46L89.8164 264.38C89.3497 264.94 88.7631 265.367 88.0564 265.66C87.3631 265.953 86.5964 266.1 85.7564 266.1ZM98.6011 266V255.5H99.9611V258.36L99.8211 257.86C100.114 257.06 100.608 256.453 101.301 256.04C101.994 255.613 102.854 255.4 103.881 255.4V256.78C103.828 256.78 103.774 256.78 103.721 256.78C103.668 256.767 103.614 256.76 103.561 256.76C102.454 256.76 101.588 257.1 100.961 257.78C100.334 258.447 100.021 259.4 100.021 260.64V266H98.6011ZM110.835 266.1C109.741 266.1 108.781 265.873 107.955 265.42C107.128 264.953 106.481 264.32 106.015 263.52C105.548 262.707 105.315 261.78 105.315 260.74C105.315 259.7 105.535 258.78 105.975 257.98C106.428 257.18 107.041 256.553 107.815 256.1C108.601 255.633 109.481 255.4 110.455 255.4C111.441 255.4 112.315 255.627 113.075 256.08C113.848 256.52 114.455 257.147 114.895 257.96C115.335 258.76 115.555 259.687 115.555 260.74C115.555 260.807 115.548 260.88 115.535 260.96C115.535 261.027 115.535 261.1 115.535 261.18H106.395V260.12H114.775L114.215 260.54C114.215 259.78 114.048 259.107 113.715 258.52C113.395 257.92 112.955 257.453 112.395 257.12C111.835 256.787 111.188 256.62 110.455 256.62C109.735 256.62 109.088 256.787 108.515 257.12C107.941 257.453 107.495 257.92 107.175 258.52C106.855 259.12 106.695 259.807 106.695 260.58V260.8C106.695 261.6 106.868 262.307 107.215 262.92C107.575 263.52 108.068 263.993 108.695 264.34C109.335 264.673 110.061 264.84 110.875 264.84C111.515 264.84 112.108 264.727 112.655 264.5C113.215 264.273 113.695 263.927 114.095 263.46L114.895 264.38C114.428 264.94 113.841 265.367 113.135 265.66C112.441 265.953 111.675 266.1 110.835 266.1ZM118.685 266V254.18C118.685 253.247 118.958 252.493 119.505 251.92C120.052 251.347 120.838 251.06 121.865 251.06C122.265 251.06 122.652 251.113 123.025 251.22C123.398 251.327 123.712 251.493 123.965 251.72L123.485 252.78C123.285 252.607 123.052 252.48 122.785 252.4C122.518 252.307 122.232 252.26 121.925 252.26C121.325 252.26 120.865 252.427 120.545 252.76C120.225 253.093 120.065 253.587 120.065 254.24V255.84L120.105 256.5V266H118.685ZM116.805 256.68V255.5H123.305V256.68H116.805ZM129.506 266.1C128.413 266.1 127.453 265.873 126.626 265.42C125.8 264.953 125.153 264.32 124.686 263.52C124.22 262.707 123.986 261.78 123.986 260.74C123.986 259.7 124.206 258.78 124.646 257.98C125.1 257.18 125.713 256.553 126.486 256.1C127.273 255.633 128.153 255.4 129.126 255.4C130.113 255.4 130.986 255.627 131.746 256.08C132.52 256.52 133.126 257.147 133.566 257.96C134.006 258.76 134.226 259.687 134.226 260.74C134.226 260.807 134.22 260.88 134.206 260.96C134.206 261.027 134.206 261.1 134.206 261.18H125.066V260.12H133.446L132.886 260.54C132.886 259.78 132.72 259.107 132.386 258.52C132.066 257.92 131.626 257.453 131.066 257.12C130.506 256.787 129.86 256.62 129.126 256.62C128.406 256.62 127.76 256.787 127.186 257.12C126.613 257.453 126.166 257.92 125.846 258.52C125.526 259.12 125.366 259.807 125.366 260.58V260.8C125.366 261.6 125.54 262.307 125.886 262.92C126.246 263.52 126.74 263.993 127.366 264.34C128.006 264.673 128.733 264.84 129.546 264.84C130.186 264.84 130.78 264.727 131.326 264.5C131.886 264.273 132.366 263.927 132.766 263.46L133.566 264.38C133.1 264.94 132.513 265.367 131.806 265.66C131.113 265.953 130.346 266.1 129.506 266.1ZM137.117 266V255.5H138.477V258.36L138.337 257.86C138.63 257.06 139.123 256.453 139.817 256.04C140.51 255.613 141.37 255.4 142.397 255.4V256.78C142.343 256.78 142.29 256.78 142.237 256.78C142.183 256.767 142.13 256.76 142.077 256.76C140.97 256.76 140.103 257.1 139.477 257.78C138.85 258.447 138.537 259.4 138.537 260.64V266H137.117ZM144.988 266V255.5H146.348V258.36L146.208 257.86C146.501 257.06 146.994 256.453 147.688 256.04C148.381 255.613 149.241 255.4 150.268 255.4V256.78C150.214 256.78 150.161 256.78 150.108 256.78C150.054 256.767 150.001 256.76 149.948 256.76C148.841 256.76 147.974 257.1 147.348 257.78C146.721 258.447 146.408 259.4 146.408 260.64V266H144.988ZM158.658 266V263.68L158.598 263.3V259.42C158.598 258.527 158.344 257.84 157.838 257.36C157.344 256.88 156.604 256.64 155.618 256.64C154.938 256.64 154.291 256.753 153.678 256.98C153.064 257.207 152.544 257.507 152.118 257.88L151.478 256.82C152.011 256.367 152.651 256.02 153.398 255.78C154.144 255.527 154.931 255.4 155.758 255.4C157.118 255.4 158.164 255.74 158.898 256.42C159.644 257.087 160.018 258.107 160.018 259.48V266H158.658ZM155.038 266.1C154.251 266.1 153.564 265.973 152.978 265.72C152.404 265.453 151.964 265.093 151.658 264.64C151.351 264.173 151.198 263.64 151.198 263.04C151.198 262.493 151.324 262 151.578 261.56C151.844 261.107 152.271 260.747 152.858 260.48C153.458 260.2 154.258 260.06 155.258 260.06H158.878V261.12H155.298C154.284 261.12 153.578 261.3 153.178 261.66C152.791 262.02 152.598 262.467 152.598 263C152.598 263.6 152.831 264.08 153.298 264.44C153.764 264.8 154.418 264.98 155.258 264.98C156.058 264.98 156.744 264.8 157.318 264.44C157.904 264.067 158.331 263.533 158.598 262.84L158.918 263.82C158.651 264.513 158.184 265.067 157.518 265.48C156.864 265.893 156.038 266.1 155.038 266.1ZM163.875 266V251.16H165.295V266H163.875ZM178.84 266.1C177.8 266.1 176.867 265.873 176.04 265.42C175.227 264.953 174.587 264.32 174.12 263.52C173.653 262.707 173.42 261.78 173.42 260.74C173.42 259.687 173.653 258.76 174.12 257.96C174.587 257.16 175.227 256.533 176.04 256.08C176.867 255.627 177.8 255.4 178.84 255.4C179.733 255.4 180.54 255.573 181.26 255.92C181.98 256.267 182.547 256.787 182.96 257.48L181.9 258.2C181.54 257.667 181.093 257.273 180.56 257.02C180.027 256.767 179.447 256.64 178.82 256.64C178.073 256.64 177.4 256.813 176.8 257.16C176.2 257.493 175.727 257.967 175.38 258.58C175.033 259.193 174.86 259.913 174.86 260.74C174.86 261.567 175.033 262.287 175.38 262.9C175.727 263.513 176.2 263.993 176.8 264.34C177.4 264.673 178.073 264.84 178.82 264.84C179.447 264.84 180.027 264.713 180.56 264.46C181.093 264.207 181.54 263.82 181.9 263.3L182.96 264.02C182.547 264.7 181.98 265.22 181.26 265.58C180.54 265.927 179.733 266.1 178.84 266.1ZM189.854 266.1C188.84 266.1 187.927 265.873 187.114 265.42C186.314 264.953 185.68 264.32 185.214 263.52C184.747 262.707 184.514 261.78 184.514 260.74C184.514 259.687 184.747 258.76 185.214 257.96C185.68 257.16 186.314 256.533 187.114 256.08C187.914 255.627 188.827 255.4 189.854 255.4C190.894 255.4 191.814 255.627 192.614 256.08C193.427 256.533 194.06 257.16 194.514 257.96C194.98 258.76 195.214 259.687 195.214 260.74C195.214 261.78 194.98 262.707 194.514 263.52C194.06 264.32 193.427 264.953 192.614 265.42C191.8 265.873 190.88 266.1 189.854 266.1ZM189.854 264.84C190.614 264.84 191.287 264.673 191.874 264.34C192.46 263.993 192.92 263.513 193.254 262.9C193.6 262.273 193.774 261.553 193.774 260.74C193.774 259.913 193.6 259.193 193.254 258.58C192.92 257.967 192.46 257.493 191.874 257.16C191.287 256.813 190.62 256.64 189.874 256.64C189.127 256.64 188.46 256.813 187.874 257.16C187.287 257.493 186.82 257.967 186.474 258.58C186.127 259.193 185.954 259.913 185.954 260.74C185.954 261.553 186.127 262.273 186.474 262.9C186.82 263.513 187.287 263.993 187.874 264.34C188.46 264.673 189.12 264.84 189.854 264.84ZM202.293 266.1C201.293 266.1 200.393 265.873 199.593 265.42C198.806 264.967 198.186 264.34 197.733 263.54C197.279 262.727 197.053 261.793 197.053 260.74C197.053 259.673 197.279 258.74 197.733 257.94C198.186 257.14 198.806 256.52 199.593 256.08C200.393 255.627 201.293 255.4 202.293 255.4C203.213 255.4 204.033 255.607 204.753 256.02C205.486 256.433 206.066 257.04 206.493 257.84C206.933 258.627 207.153 259.593 207.153 260.74C207.153 261.873 206.939 262.84 206.513 263.64C206.086 264.44 205.506 265.053 204.773 265.48C204.053 265.893 203.226 266.1 202.293 266.1ZM202.393 264.84C203.139 264.84 203.806 264.673 204.393 264.34C204.993 263.993 205.459 263.513 205.793 262.9C206.139 262.273 206.313 261.553 206.313 260.74C206.313 259.913 206.139 259.193 205.793 258.58C205.459 257.967 204.993 257.493 204.393 257.16C203.806 256.813 203.139 256.64 202.393 256.64C201.659 256.64 200.999 256.813 200.413 257.16C199.826 257.493 199.359 257.967 199.013 258.58C198.666 259.193 198.493 259.913 198.493 260.74C198.493 261.553 198.666 262.273 199.013 262.9C199.359 263.513 199.826 263.993 200.413 264.34C200.999 264.673 201.659 264.84 202.393 264.84ZM206.353 266V262.84L206.493 260.72L206.293 258.6V251.16H207.713V266H206.353ZM216.128 266.1C215.034 266.1 214.074 265.873 213.248 265.42C212.421 264.953 211.774 264.32 211.308 263.52C210.841 262.707 210.608 261.78 210.608 260.74C210.608 259.7 210.828 258.78 211.268 257.98C211.721 257.18 212.334 256.553 213.108 256.1C213.894 255.633 214.774 255.4 215.748 255.4C216.734 255.4 217.608 255.627 218.368 256.08C219.141 256.52 219.748 257.147 220.188 257.96C220.628 258.76 220.848 259.687 220.848 260.74C220.848 260.807 220.841 260.88 220.828 260.96C220.828 261.027 220.828 261.1 220.828 261.18H211.688V260.12H220.068L219.508 260.54C219.508 259.78 219.341 259.107 219.008 258.52C218.688 257.92 218.248 257.453 217.688 257.12C217.128 256.787 216.481 256.62 215.748 256.62C215.028 256.62 214.381 256.787 213.808 257.12C213.234 257.453 212.788 257.92 212.468 258.52C212.148 259.12 211.988 259.807 211.988 260.58V260.8C211.988 261.6 212.161 262.307 212.508 262.92C212.868 263.52 213.361 263.993 213.988 264.34C214.628 264.673 215.354 264.84 216.168 264.84C216.808 264.84 217.401 264.727 217.948 264.5C218.508 264.273 218.988 263.927 219.388 263.46L220.188 264.38C219.721 264.94 219.134 265.367 218.428 265.66C217.734 265.953 216.968 266.1 216.128 266.1ZM223.878 266.1C223.584 266.1 223.331 265.993 223.118 265.78C222.918 265.567 222.818 265.307 222.818 265C222.818 264.68 222.918 264.42 223.118 264.22C223.331 264.02 223.584 263.92 223.878 263.92C224.171 263.92 224.418 264.02 224.618 264.22C224.831 264.42 224.938 264.68 224.938 265C224.938 265.307 224.831 265.567 224.618 265.78C224.418 265.993 224.171 266.1 223.878 266.1Z" fill="#967500"/>
<g opacity="0.2" clip-path="url(#clip0_2898_21795)">
<mask id="mask0_2898_21795" style="mask-type:luminance" maskUnits="userSpaceOnUse" x="175" y="-60" width="220" height="213">
<path d="M395 -60H175.7V152.226H395V-60Z" fill="white"/>
</mask>
<g mask="url(#mask0_2898_21795)">
<mask id="mask1_2898_21795" style="mask-type:luminance" maskUnits="userSpaceOnUse" x="224" y="11" width="137" height="100">
<path d="M330.149 45.329H327.9V23.0028C327.942 21.0079 327.433 19.013 326.457 17.2728C325.141 14.9383 323.019 13.1358 320.492 12.2218C317.965 11.3078 315.186 11.3078 312.682 12.2642L257.229 33.0397C256.36 33.3793 255.763 34.2084 255.763 35.1422V78.5636C255.763 79.4974 256.337 80.3463 257.229 80.6858L312.662 101.461C315.039 102.353 317.628 102.418 320.048 101.654C322.467 100.89 324.547 99.3419 325.97 97.2394C327.263 95.2869 327.942 92.9723 327.9 90.618V67.8674H330.149C332.549 67.8674 334.838 66.9138 336.516 65.2358C338.214 63.538 339.148 61.2459 339.148 58.869V54.3698C339.148 51.9703 338.194 49.681 336.516 48.003C334.838 46.2826 332.549 45.329 330.149 45.329ZM346.236 70.1594C344.898 68.8861 342.798 68.8861 341.502 70.2019C340.209 71.495 340.189 73.6173 341.463 74.9331L346.236 79.7096C347.552 80.9829 349.674 80.9603 350.97 79.6671C352.263 78.374 352.286 76.2489 351.013 74.9331L346.236 70.1594ZM343.837 44.0556C344.728 44.0556 345.599 43.6963 346.236 43.0596L351.013 38.2831C352.286 36.9673 352.286 34.845 350.97 33.5491C349.677 32.2559 347.552 32.2361 346.236 33.5094L341.463 38.2831C340.486 39.2593 340.209 40.7025 340.718 41.9758C341.25 43.2266 342.478 44.0556 343.837 44.0556ZM357.207 53.2238H350.438C348.571 53.2238 347.062 54.732 347.062 56.5996C347.062 58.4672 348.571 59.9726 350.438 59.9726H357.207C359.074 59.9726 360.583 58.4672 360.583 56.5996C360.583 54.732 359.074 53.2238 357.207 53.2238ZM249.017 83.657H235.497C234.243 83.657 233.247 84.6757 233.247 85.9066V103.946C233.247 105.728 233.969 107.466 235.222 108.719C236.496 109.993 238.216 110.695 239.999 110.695H244.495C246.278 110.695 248.018 109.973 249.272 108.719C250.545 107.446 251.247 105.728 251.247 103.946V85.9066C251.247 85.3123 251.012 84.7379 250.587 84.3135C250.183 83.889 249.611 83.657 249.017 83.657ZM251.267 36.84V76.8856C251.267 77.4798 251.032 78.0542 250.607 78.4787C250.183 78.9031 249.611 79.1352 249.017 79.1352H235.497C232.506 79.1352 229.642 77.9467 227.54 75.8244C225.417 73.7022 224.249 70.8385 224.229 67.8674V45.8582C224.229 42.8672 225.415 40.0035 227.537 37.9011C229.659 35.7788 232.526 34.5904 235.497 34.5904H249.014C249.608 34.5904 250.183 34.8224 250.607 35.2469C251.032 35.6713 251.267 36.2457 251.267 36.84Z" fill="url(#paint0_linear_2898_21795)"/>
</mask>
<g mask="url(#mask1_2898_21795)">
<path d="M330.149 45.329H327.9V23.0028C327.942 21.0079 327.433 19.013 326.457 17.2728C325.141 14.9383 323.019 13.1358 320.492 12.2218C317.965 11.3078 315.186 11.3078 312.682 12.2642L257.229 33.0397C256.36 33.3793 255.763 34.2084 255.763 35.1422V78.5636C255.763 79.4974 256.337 80.3463 257.229 80.6858L312.662 101.461C315.039 102.353 317.628 102.418 320.048 101.654C322.467 100.89 324.547 99.3419 325.97 97.2394C327.263 95.2869 327.942 92.9723 327.9 90.618V67.8674H330.149C332.549 67.8674 334.838 66.9138 336.516 65.2358C338.214 63.538 339.148 61.2459 339.148 58.869V54.3698C339.148 51.9703 338.194 49.681 336.516 48.003C334.838 46.2826 332.549 45.329 330.149 45.329ZM346.236 70.1594C344.898 68.8861 342.798 68.8861 341.502 70.2019C340.209 71.495 340.189 73.6173 341.463 74.9331L346.236 79.7096C347.552 80.9829 349.674 80.9603 350.97 79.6671C352.263 78.374 352.286 76.2489 351.013 74.9331L346.236 70.1594ZM343.837 44.0556C344.728 44.0556 345.599 43.6963 346.236 43.0596L351.013 38.2831C352.286 36.9673 352.286 34.845 350.97 33.5491C349.677 32.2559 347.552 32.2361 346.236 33.5094L341.463 38.2831C340.486 39.2593 340.209 40.7025 340.718 41.9758C341.25 43.2266 342.478 44.0556 343.837 44.0556ZM357.207 53.2238H350.438C348.571 53.2238 347.062 54.732 347.062 56.5996C347.062 58.4672 348.571 59.9726 350.438 59.9726H357.207C359.074 59.9726 360.583 58.4672 360.583 56.5996C360.583 54.732 359.074 53.2238 357.207 53.2238ZM249.017 83.657H235.497C234.243 83.657 233.247 84.6757 233.247 85.9066V103.946C233.247 105.728 233.969 107.466 235.222 108.719C236.496 109.993 238.216 110.695 239.999 110.695H244.495C246.278 110.695 248.018 109.973 249.272 108.719C250.545 107.446 251.247 105.728 251.247 103.946V85.9066C251.247 85.3123 251.012 84.7379 250.587 84.3135C250.183 83.889 249.611 83.657 249.017 83.657ZM251.267 36.84V76.8856C251.267 77.4798 251.032 78.0542 250.607 78.4787C250.183 78.9031 249.611 79.1352 249.017 79.1352H235.497C232.506 79.1352 229.642 77.9467 227.54 75.8244C225.417 73.7022 224.249 70.8385 224.229 67.8674V45.8582C224.229 42.8672 225.415 40.0035 227.537 37.9011C229.659 35.7788 232.526 34.5904 235.497 34.5904H249.014C249.608 34.5904 250.183 34.8224 250.607 35.2469C251.032 35.6713 251.267 36.2457 251.267 36.84Z" fill="#D6A700"/>
</g>
</g>
</g>
<defs>
<linearGradient id="paint0_linear_2898_21795" x1="292.404" y1="11.5398" x2="292.404" y2="110.697" gradientUnits="userSpaceOnUse">
<stop stop-color="white"/>
<stop offset="1" stop-color="white"/>
</linearGradient>
<clipPath id="clip0_2898_21795">
<rect width="199" height="132" fill="white" transform="translate(176)"/>
</clipPath>
</defs>
</svg>
